AnekTamil-SemiExpandedMedium.ufo
<glyph name="exclam" format="2">
  <advance width="524.0"/>
  <unicode hex="0021"/>
  <outline>
    <contour>
      <point x="350.5" y="401.5" type="line"/>
      <point x="373.5" y="1278.0" type="line"/>
      <point x="150.5" y="1278.0" type="line"/>
      <point x="174.0" y="401.5" type="line"/>
    </contour>
    <contour>
      <point x="262.0" y="-22.5" type="curve" smooth="yes"/>
      <point x="349.0" y="-22.5"/>
      <point x="390.5" y="23.5"/>
      <point x="390.5" y="101.0" type="curve" smooth="yes"/>
      <point x="390.5" y="108.0" type="line" smooth="yes"/>
      <point x="390.5" y="185.0"/>
      <point x="349.0" y="231.0"/>
      <point x="262.0" y="231.0" type="curve" smooth="yes"/>
      <point x="175.5" y="231.0"/>
      <point x="134.0" y="185.0"/>
      <point x="134.0" y="108.0" type="curve" smooth="yes"/>
      <point x="134.0" y="101.0" type="line" smooth="yes"/>
      <point x="134.0" y="23.5"/>
      <point x="175.5" y="-22.5"/>
    </contour>
  </outline>
</glyph>
<glyph name="numbersign" format="2">
  <advance width="1345.0"/>
  <unicode hex="0023"/>
  <outline>
    <contour>
      <point x="238.0" y="0.0" type="line"/>
      <point x="408.0" y="0.0" type="line"/>
      <point x="594.0" y="1278.0" type="line"/>
      <point x="424.0" y="1278.0" type="line"/>
    </contour>
    <contour>
      <point x="69.0" y="310.0" type="line"/>
      <point x="1209.0" y="310.0" type="line"/>
      <point x="1209.0" y="459.5" type="line"/>
      <point x="69.0" y="459.5" type="line"/>
    </contour>
    <contour>
      <point x="757.5" y="0.0" type="line"/>
      <point x="928.5" y="0.0" type="line"/>
      <point x="1109.0" y="1278.0" type="line"/>
      <point x="938.0" y="1278.0" type="line"/>
    </contour>
    <contour>
      <point x="138.5" y="819.5" type="line"/>
      <point x="1276.5" y="819.5" type="line"/>
      <point x="1276.5" y="969.5" type="line"/>
      <point x="138.5" y="969.5" type="line"/>
    </contour>
  </outline>
</glyph>
<glyph name="dollar" format="2">
  <advance width="1254.5"/>
  <unicode hex="0024"/>
  <anchor x="621.0" y="0.0" name="bottom"/>
  <anchor x="621.0" y="1278.0" name="top"/>
  <outline>
    <contour>
      <point x="714.0" y="1192.0" type="line"/>
      <point x="714.0" y="1508.5" type="line"/>
      <point x="524.0" y="1508.5" type="line"/>
      <point x="524.0" y="1192.0" type="line"/>
    </contour>
    <contour>
      <point x="714.0" y="-233.5" type="line"/>
      <point x="714.0" y="106.5" type="line"/>
      <point x="524.0" y="106.5" type="line"/>
      <point x="524.0" y="-233.5" type="line"/>
    </contour>
    <component base="S"/>
  </outline>
</glyph>
<glyph name="percent" format="2">
  <advance width="1703.0"/>
  <unicode hex="0025"/>
  <outline>
    <contour>
      <point x="290.5" y="0.0" type="line"/>
      <point x="495.5" y="0.0" type="line"/>
      <point x="1416.0" y="1278.0" type="line"/>
      <point x="1211.5" y="1278.0" type="line"/>
    </contour>
    <contour>
      <point x="1295.5" y="-30.5" type="curve" smooth="yes"/>
      <point x="1498.5" y="-30.5"/>
      <point x="1614.0" y="83.0"/>
      <point x="1614.0" y="278.5" type="curve" smooth="yes"/>
      <point x="1614.0" y="326.5" type="line" smooth="yes"/>
      <point x="1614.0" y="521.5"/>
      <point x="1498.0" y="633.5"/>
      <point x="1295.5" y="633.5" type="curve" smooth="yes"/>
      <point x="1093.5" y="633.5"/>
      <point x="979.0" y="519.0"/>
      <point x="979.0" y="326.5" type="curve" smooth="yes"/>
      <point x="979.0" y="278.5" type="line" smooth="yes"/>
      <point x="979.0" y="83.0"/>
      <point x="1092.5" y="-30.5"/>
    </contour>
    <contour>
      <point x="1295.5" y="109.5" type="curve" smooth="yes"/>
      <point x="1199.5" y="109.5"/>
      <point x="1144.0" y="168.0"/>
      <point x="1144.0" y="276.5" type="curve" smooth="yes"/>
      <point x="1144.0" y="327.0" type="line" smooth="yes"/>
      <point x="1144.0" y="435.0"/>
      <point x="1198.5" y="494.5"/>
      <point x="1295.5" y="494.5" type="curve" smooth="yes"/>
      <point x="1392.5" y="494.5"/>
      <point x="1447.0" y="435.0"/>
      <point x="1447.0" y="327.0" type="curve" smooth="yes"/>
      <point x="1447.0" y="276.5" type="line" smooth="yes"/>
      <point x="1447.0" y="168.0"/>
      <point x="1393.5" y="109.5"/>
    </contour>
    <contour>
      <point x="405.0" y="645.5" type="curve" smooth="yes"/>
      <point x="607.5" y="645.5"/>
      <point x="723.5" y="760.0"/>
      <point x="723.5" y="953.0" type="curve" smooth="yes"/>
      <point x="723.5" y="1001.5" type="line" smooth="yes"/>
      <point x="723.5" y="1195.5"/>
      <point x="608.0" y="1308.5"/>
      <point x="405.0" y="1308.5" type="curve" smooth="yes"/>
      <point x="202.0" y="1308.5"/>
      <point x="88.0" y="1195.5"/>
      <point x="88.0" y="1001.5" type="curve" smooth="yes"/>
      <point x="88.0" y="953.0" type="line" smooth="yes"/>
      <point x="88.0" y="758.5"/>
      <point x="202.0" y="645.5"/>
    </contour>
    <contour>
      <point x="405.0" y="784.5" type="curve" smooth="yes"/>
      <point x="309.0" y="784.5"/>
      <point x="253.0" y="843.0"/>
      <point x="253.0" y="951.0" type="curve" smooth="yes"/>
      <point x="253.0" y="1003.0" type="line" smooth="yes"/>
      <point x="253.0" y="1110.0"/>
      <point x="308.0" y="1170.0"/>
      <point x="405.0" y="1170.0" type="curve" smooth="yes"/>
      <point x="502.0" y="1170.0"/>
      <point x="556.5" y="1110.0"/>
      <point x="556.5" y="1003.0" type="curve" smooth="yes"/>
      <point x="556.5" y="951.0" type="line" smooth="yes"/>
      <point x="556.5" y="843.0"/>
      <point x="502.5" y="784.5"/>
    </contour>
  </outline>
</glyph>
<glyph name="ampersand" format="2">
  <advance width="1472.0"/>
  <unicode hex="0026"/>
  <outline>
    <contour>
      <point x="1240.0" y="0.0" type="curve"/>
      <point x="1487.0" y="0.0" type="line"/>
      <point x="1487.0" y="19.0" type="line"/>
      <point x="1373.5" y="125.0"/>
      <point x="1269.5" y="217.5"/>
      <point x="1152.5" y="318.5" type="curve"/>
      <point x="1088.0" y="375.0" type="line"/>
      <point x="586.0" y="784.5" type="line" smooth="yes"/>
      <point x="501.0" y="854.5"/>
      <point x="453.0" y="906.0"/>
      <point x="453.0" y="978.5" type="curve" smooth="yes"/>
      <point x="453.0" y="982.0" type="line" smooth="yes"/>
      <point x="453.0" y="1070.5"/>
      <point x="515.0" y="1126.0"/>
      <point x="683.5" y="1126.0" type="curve" smooth="yes"/>
      <point x="838.0" y="1126.0"/>
      <point x="976.5" y="1085.0"/>
      <point x="1081.5" y="1035.5" type="curve"/>
      <point x="1058.5" y="1220.0" type="line"/>
      <point x="971.0" y="1263.0"/>
      <point x="838.5" y="1304.0"/>
      <point x="649.0" y="1304.0" type="curve" smooth="yes"/>
      <point x="366.0" y="1304.0"/>
      <point x="233.0" y="1188.0"/>
      <point x="233.0" y="995.5" type="curve" smooth="yes"/>
      <point x="233.0" y="989.0" type="line" smooth="yes"/>
      <point x="233.0" y="877.0"/>
      <point x="280.5" y="802.5"/>
      <point x="382.0" y="716.5" type="curve"/>
      <point x="413.0" y="680.0" type="line"/>
      <point x="966.0" y="236.0" type="line"/>
      <point x="998.5" y="210.5" type="line"/>
      <point x="1037.0" y="176.5"/>
      <point x="1196.5" y="38.0"/>
    </contour>
    <contour>
      <point x="605.0" y="-27.0" type="curve" smooth="yes"/>
      <point x="842.5" y="-27.0"/>
      <point x="998.0" y="50.5"/>
      <point x="1122.5" y="184.5" type="curve"/>
      <point x="1176.5" y="238.0" type="line"/>
      <point x="1285.5" y="372.5"/>
      <point x="1359.5" y="557.5"/>
      <point x="1390.0" y="779.5" type="curve"/>
      <point x="1184.0" y="779.5" type="line"/>
      <point x="1159.5" y="609.0"/>
      <point x="1110.5" y="472.0"/>
      <point x="1033.0" y="360.0" type="curve"/>
      <point x="984.5" y="302.5" type="line"/>
      <point x="898.0" y="201.5"/>
      <point x="779.0" y="147.0"/>
      <point x="622.0" y="147.0" type="curve" smooth="yes"/>
      <point x="424.5" y="147.0"/>
      <point x="319.5" y="237.5"/>
      <point x="319.5" y="389.5" type="curve" smooth="yes"/>
      <point x="319.5" y="408.5" type="line" smooth="yes"/>
      <point x="319.5" y="532.0"/>
      <point x="376.0" y="601.5"/>
      <point x="493.5" y="650.0" type="curve"/>
      <point x="377.0" y="782.0" type="line"/>
      <point x="181.5" y="695.5"/>
      <point x="101.5" y="577.0"/>
      <point x="101.5" y="387.5" type="curve" smooth="yes"/>
      <point x="101.5" y="367.0" type="line" smooth="yes"/>
      <point x="101.5" y="123.5"/>
      <point x="269.5" y="-27.0"/>
    </contour>
  </outline>
</glyph>
<glyph name="quotesingle" format="2">
  <advance width="413.5"/>
  <unicode hex="0027"/>
  <outline>
    <contour>
      <point x="287.0" y="810.5" type="line"/>
      <point x="309.0" y="1321.5" type="line"/>
      <point x="104.5" y="1321.5" type="line"/>
      <point x="125.0" y="810.5" type="line"/>
    </contour>
  </outline>
</glyph>
<glyph name="parenleft" format="2">
  <advance width="685.5"/>
  <unicode hex="0028"/>
  <outline>
    <contour>
      <point x="351.5" y="587.0" type="line" smooth="yes"/>
      <point x="351.5" y="877.5"/>
      <point x="441.0" y="1131.5"/>
      <point x="631.5" y="1349.5" type="curve"/>
      <point x="413.5" y="1349.5" type="line"/>
      <point x="234.5" y="1140.5"/>
      <point x="149.0" y="892.5"/>
      <point x="149.0" y="589.5" type="curve" smooth="yes"/>
      <point x="149.0" y="521.0" type="line" smooth="yes"/>
      <point x="149.0" y="210.5"/>
      <point x="230.5" y="-36.0"/>
      <point x="410.5" y="-246.0" type="curve"/>
      <point x="631.5" y="-246.0" type="line"/>
      <point x="440.5" y="-25.5"/>
      <point x="351.5" y="230.0"/>
      <point x="351.5" y="524.0" type="curve" smooth="yes"/>
    </contour>
  </outline>
</glyph>
<glyph name="parenright" format="2">
  <advance width="686.5"/>
  <unicode hex="0029"/>
  <outline>
    <contour>
      <point x="335.0" y="587.0" type="curve" smooth="yes"/>
      <point x="335.0" y="524.0" type="line" smooth="yes"/>
      <point x="335.0" y="230.0"/>
      <point x="246.0" y="-25.5"/>
      <point x="55.0" y="-246.0" type="curve"/>
      <point x="276.0" y="-246.0" type="line"/>
      <point x="456.0" y="-36.0"/>
      <point x="537.5" y="210.5"/>
      <point x="537.5" y="521.0" type="curve" smooth="yes"/>
      <point x="537.5" y="589.5" type="line" smooth="yes"/>
      <point x="537.5" y="892.5"/>
      <point x="452.0" y="1140.5"/>
      <point x="273.0" y="1349.5" type="curve"/>
      <point x="55.0" y="1349.5" type="line"/>
      <point x="245.5" y="1131.5"/>
      <point x="335.0" y="877.5"/>
    </contour>
  </outline>
</glyph>
<glyph name="asterisk" format="2">
  <advance width="845.0"/>
  <unicode hex="002A"/>
  <outline>
    <contour>
      <point x="266.5" y="610.0" type="line"/>
      <point x="421.5" y="832.0" type="line"/>
      <point x="423.0" y="832.0" type="line"/>
      <point x="579.5" y="610.0" type="line"/>
      <point x="720.0" y="711.0" type="line"/>
      <point x="531.5" y="905.5" type="line"/>
      <point x="532.5" y="907.0" type="line"/>
      <point x="789.0" y="956.5" type="line"/>
      <point x="746.0" y="1120.5" type="line"/>
      <point x="492.0" y="1022.0" type="line"/>
      <point x="490.5" y="1022.5" type="line"/>
      <point x="514.5" y="1278.0" type="line"/>
      <point x="330.5" y="1278.0" type="line"/>
      <point x="355.0" y="1022.5" type="line"/>
      <point x="353.0" y="1022.0" type="line"/>
      <point x="99.0" y="1120.5" type="line"/>
      <point x="56.0" y="956.5" type="line"/>
      <point x="312.0" y="907.0" type="line"/>
      <point x="312.5" y="905.5" type="line"/>
      <point x="124.0" y="711.0" type="line"/>
    </contour>
  </outline>
</glyph>
<glyph name="plus" format="2">
  <advance width="1170.5"/>
  <unicode hex="002B"/>
  <outline>
    <contour>
      <point x="673.5" y="142.5" type="line"/>
      <point x="673.5" y="1084.5" type="line"/>
      <point x="497.0" y="1084.5" type="line"/>
      <point x="497.0" y="142.5" type="line"/>
    </contour>
    <contour>
      <point x="120.0" y="531.5" type="line"/>
      <point x="1050.5" y="531.5" type="line"/>
      <point x="1050.5" y="695.5" type="line"/>
      <point x="120.0" y="695.5" type="line"/>
    </contour>
  </outline>
</glyph>
<glyph name="comma" format="2">
  <advance width="439.5"/>
  <unicode hex="002C"/>
  <outline>
    <contour>
      <point x="322.5" y="287.5" type="curve"/>
      <point x="123.5" y="287.5" type="line"/>
      <point x="128.5" y="246.5"/>
      <point x="130.5" y="208.5"/>
      <point x="130.5" y="165.0" type="curve" smooth="yes"/>
      <point x="130.5" y="10.0"/>
      <point x="98.0" y="-112.0"/>
      <point x="23.5" y="-228.5" type="curve"/>
      <point x="172.5" y="-269.0" type="line"/>
      <point x="288.5" y="-136.0"/>
      <point x="332.5" y="3.5"/>
      <point x="332.5" y="173.0" type="curve" smooth="yes"/>
      <point x="332.5" y="218.0"/>
      <point x="327.0" y="260.5"/>
    </contour>
  </outline>
</glyph>
<glyph name="hyphen" format="2">
  <advance width="910.0"/>
  <unicode hex="002D"/>
  <outline>
    <contour>
      <point x="127.0" y="440.0" type="line"/>
      <point x="783.0" y="440.0" type="line"/>
      <point x="783.0" y="606.0" type="line"/>
      <point x="127.0" y="606.0" type="line"/>
    </contour>
  </outline>
</glyph>
<glyph name="period" format="2">
  <advance width="455.5"/>
  <unicode hex="002E"/>
  <outline>
    <contour>
      <point x="227.5" y="-22.5" type="curve" smooth="yes"/>
      <point x="314.5" y="-22.5"/>
      <point x="356.0" y="23.5"/>
      <point x="356.0" y="101.0" type="curve" smooth="yes"/>
      <point x="356.0" y="108.0" type="line" smooth="yes"/>
      <point x="356.0" y="185.0"/>
      <point x="314.5" y="231.0"/>
      <point x="227.5" y="231.0" type="curve" smooth="yes"/>
      <point x="141.0" y="231.0"/>
      <point x="99.5" y="185.0"/>
      <point x="99.5" y="108.0" type="curve" smooth="yes"/>
      <point x="99.5" y="101.0" type="line" smooth="yes"/>
      <point x="99.5" y="23.5"/>
      <point x="141.0" y="-22.5"/>
    </contour>
  </outline>
</glyph>
<glyph name="slash" format="2">
  <advance width="1008.0"/>
  <unicode hex="002F"/>
  <outline>
    <contour>
      <point x="19.0" y="-242.5" type="line"/>
      <point x="219.5" y="-242.5" type="line"/>
      <point x="989.0" y="1338.0" type="line"/>
      <point x="789.5" y="1338.0" type="line"/>
    </contour>
  </outline>
</glyph>
<glyph name="zero" format="2">
  <advance width="1345.0"/>
  <unicode hex="0030"/>
  <outline>
    <contour>
      <point x="672.0" y="-29.5" type="curve" smooth="yes"/>
      <point x="1043.5" y="-29.5"/>
      <point x="1235.0" y="177.5"/>
      <point x="1235.0" y="556.0" type="curve"/>
      <point x="1235.0" y="721.5" type="line"/>
      <point x="1235.0" y="1098.5"/>
      <point x="1043.5" y="1307.0"/>
      <point x="672.0" y="1307.0" type="curve" smooth="yes"/>
      <point x="301.0" y="1307.0"/>
      <point x="110.0" y="1098.5"/>
      <point x="110.0" y="721.5" type="curve"/>
      <point x="110.0" y="556.0" type="line"/>
      <point x="110.0" y="177.5"/>
      <point x="302.0" y="-29.5"/>
    </contour>
    <contour>
      <point x="672.0" y="145.5" type="curve" smooth="yes"/>
      <point x="439.0" y="145.5"/>
      <point x="326.5" y="291.0"/>
      <point x="326.5" y="551.0" type="curve" smooth="yes"/>
      <point x="326.5" y="725.5" type="line" smooth="yes"/>
      <point x="326.5" y="986.0"/>
      <point x="437.5" y="1132.0"/>
      <point x="672.0" y="1132.0" type="curve" smooth="yes"/>
      <point x="907.0" y="1132.0"/>
      <point x="1018.5" y="986.5"/>
      <point x="1018.5" y="725.5" type="curve" smooth="yes"/>
      <point x="1018.5" y="551.0" type="line" smooth="yes"/>
      <point x="1018.5" y="291.0"/>
      <point x="907.0" y="145.5"/>
    </contour>
  </outline>
</glyph>
<glyph name="one" format="2">
  <advance width="776.5"/>
  <unicode hex="0031"/>
  <outline>
    <contour>
      <point x="404.0" y="0.0" type="line"/>
      <point x="615.0" y="0.0" type="line"/>
      <point x="615.0" y="1278.0" type="line"/>
      <point x="411.5" y="1278.0" type="line"/>
      <point x="63.0" y="1104.0" type="line"/>
      <point x="55.5" y="909.5" type="line"/>
      <point x="389.5" y="1072.5" type="line"/>
      <point x="404.0" y="1072.5" type="line"/>
    </contour>
  </outline>
</glyph>
<glyph name="two" format="2">
  <advance width="1126.0"/>
  <unicode hex="0032"/>
  <outline>
    <contour>
      <point x="76.5" y="0.0" type="line"/>
      <point x="1041.5" y="0.0" type="line"/>
      <point x="1041.5" y="176.5" type="line"/>
      <point x="279.5" y="176.5" type="line"/>
      <point x="366.0" y="140.0" type="line"/>
      <point x="366.0" y="186.0" type="line"/>
      <point x="655.0" y="398.0" type="line" smooth="yes"/>
      <point x="888.5" y="568.5"/>
      <point x="1019.5" y="700.0"/>
      <point x="1019.5" y="909.5" type="curve" smooth="yes"/>
      <point x="1019.5" y="922.0" type="line" smooth="yes"/>
      <point x="1019.5" y="1166.0"/>
      <point x="856.5" y="1303.0"/>
      <point x="545.5" y="1303.0" type="curve" smooth="yes"/>
      <point x="351.5" y="1303.0"/>
      <point x="201.0" y="1246.0"/>
      <point x="105.0" y="1192.0" type="curve"/>
      <point x="83.5" y="1001.5" type="line"/>
      <point x="193.0" y="1064.5"/>
      <point x="340.5" y="1123.5"/>
      <point x="508.0" y="1123.5" type="curve" smooth="yes"/>
      <point x="711.5" y="1123.5"/>
      <point x="803.0" y="1039.0"/>
      <point x="803.0" y="899.5" type="curve" smooth="yes"/>
      <point x="803.0" y="891.5" type="line" smooth="yes"/>
      <point x="803.0" y="739.0"/>
      <point x="678.0" y="636.5"/>
      <point x="479.5" y="488.5" type="curve" smooth="yes"/>
      <point x="76.5" y="195.0" type="line"/>
    </contour>
  </outline>
</glyph>
<glyph name="three" format="2">
  <advance width="1181.5"/>
  <unicode hex="0033"/>
  <outline>
    <contour>
      <point x="547.0" y="-26.0" type="curve" smooth="yes"/>
      <point x="913.5" y="-26.0"/>
      <point x="1088.0" y="116.0"/>
      <point x="1088.0" y="350.5" type="curve" smooth="yes"/>
      <point x="1088.0" y="374.0" type="line" smooth="yes"/>
      <point x="1088.0" y="548.0"/>
      <point x="1006.0" y="639.5"/>
      <point x="819.0" y="670.0" type="curve"/>
      <point x="825.0" y="648.5" type="line"/>
      <point x="825.0" y="679.0" type="line"/>
      <point x="997.5" y="704.5"/>
      <point x="1076.0" y="800.0"/>
      <point x="1076.0" y="954.0" type="curve" smooth="yes"/>
      <point x="1076.0" y="970.5" type="line" smooth="yes"/>
      <point x="1076.0" y="1184.0"/>
      <point x="915.5" y="1303.5"/>
      <point x="576.0" y="1303.5" type="curve" smooth="yes"/>
      <point x="366.0" y="1303.5"/>
      <point x="213.0" y="1254.5"/>
      <point x="114.0" y="1203.0" type="curve"/>
      <point x="93.5" y="1021.0" type="line"/>
      <point x="203.5" y="1075.5"/>
      <point x="371.0" y="1127.5"/>
      <point x="545.5" y="1127.5" type="curve" smooth="yes"/>
      <point x="774.5" y="1127.5"/>
      <point x="860.0" y="1063.5"/>
      <point x="860.0" y="942.0" type="curve" smooth="yes"/>
      <point x="860.0" y="931.0" type="line" smooth="yes"/>
      <point x="860.0" y="818.0"/>
      <point x="787.5" y="750.0"/>
      <point x="577.5" y="746.0" type="curve" smooth="yes"/>
      <point x="283.0" y="740.5" type="line"/>
      <point x="283.0" y="574.0" type="line"/>
      <point x="577.0" y="570.0" type="line" smooth="yes"/>
      <point x="793.5" y="566.5"/>
      <point x="869.0" y="504.0"/>
      <point x="869.0" y="376.5" type="curve" smooth="yes"/>
      <point x="869.0" y="361.5" type="line" smooth="yes"/>
      <point x="869.0" y="234.0"/>
      <point x="776.5" y="157.0"/>
      <point x="533.5" y="157.0" type="curve" smooth="yes"/>
      <point x="350.0" y="157.0"/>
      <point x="195.0" y="206.0"/>
      <point x="85.5" y="261.0" type="curve"/>
      <point x="107.0" y="60.5" type="line"/>
      <point x="190.0" y="24.0"/>
      <point x="347.5" y="-26.0"/>
    </contour>
  </outline>
</glyph>
<glyph name="four" format="2">
  <advance width="1245.5"/>
  <unicode hex="0034"/>
  <outline>
    <contour>
      <point x="815.0" y="0.0" type="line"/>
      <point x="1018.5" y="0.0" type="line"/>
      <point x="1018.5" y="1278.0" type="line"/>
      <point x="671.5" y="1278.0" type="line"/>
      <point x="62.5" y="455.5" type="line"/>
      <point x="62.5" y="247.5" type="line"/>
      <point x="1212.0" y="247.5" type="line"/>
      <point x="1212.0" y="422.5" type="line"/>
      <point x="203.0" y="422.5" type="line"/>
      <point x="284.5" y="339.5" type="line"/>
      <point x="284.5" y="439.5" type="line"/>
      <point x="790.5" y="1130.5" type="line"/>
      <point x="820.0" y="1130.5" type="line"/>
      <point x="815.0" y="858.5" type="line"/>
    </contour>
  </outline>
</glyph>
<glyph name="five" format="2">
  <advance width="1246.0"/>
  <unicode hex="0035"/>
  <outline>
    <contour>
      <point x="608.5" y="-24.5" type="curve" smooth="yes"/>
      <point x="989.5" y="-24.5"/>
      <point x="1152.0" y="145.0"/>
      <point x="1152.0" y="399.0" type="curve" smooth="yes"/>
      <point x="1152.0" y="438.0" type="line" smooth="yes"/>
      <point x="1152.0" y="684.0"/>
      <point x="1018.0" y="830.0"/>
      <point x="744.5" y="830.0" type="curve" smooth="yes"/>
      <point x="544.0" y="830.0"/>
      <point x="419.0" y="751.0"/>
      <point x="354.0" y="647.0" type="curve"/>
      <point x="346.0" y="647.0" type="line"/>
      <point x="348.5" y="826.5" type="line"/>
      <point x="348.5" y="1102.5" type="line"/>
      <point x="1105.0" y="1102.5" type="line"/>
      <point x="1105.0" y="1278.0" type="line"/>
      <point x="144.0" y="1278.0" type="line"/>
      <point x="144.0" y="540.5" type="line"/>
      <point x="328.0" y="505.5" type="line"/>
      <point x="404.5" y="599.0"/>
      <point x="517.0" y="658.5"/>
      <point x="671.0" y="658.5" type="curve" smooth="yes"/>
      <point x="857.0" y="658.5"/>
      <point x="940.5" y="575.0"/>
      <point x="940.5" y="434.0" type="curve" smooth="yes"/>
      <point x="940.5" y="402.0" type="line" smooth="yes"/>
      <point x="940.5" y="253.0"/>
      <point x="844.0" y="159.0"/>
      <point x="593.5" y="159.0" type="curve" smooth="yes"/>
      <point x="403.5" y="159.0"/>
      <point x="242.5" y="212.0"/>
      <point x="136.0" y="266.5" type="curve"/>
      <point x="158.0" y="67.5" type="line"/>
      <point x="242.5" y="26.5"/>
      <point x="399.0" y="-24.5"/>
    </contour>
  </outline>
</glyph>
<glyph name="six" format="2">
  <advance width="1288.5"/>
  <unicode hex="0036"/>
  <outline>
    <contour>
      <point x="674.0" y="-28.5" type="curve" smooth="yes"/>
      <point x="1012.0" y="-28.5"/>
      <point x="1193.5" y="129.0"/>
      <point x="1193.5" y="388.5" type="curve" smooth="yes"/>
      <point x="1193.5" y="425.5" type="line" smooth="yes"/>
      <point x="1193.5" y="677.5"/>
      <point x="1044.5" y="822.5"/>
      <point x="762.0" y="822.5" type="curve" smooth="yes"/>
      <point x="511.0" y="822.5"/>
      <point x="377.5" y="712.5"/>
      <point x="327.0" y="570.5" type="curve"/>
      <point x="294.0" y="570.5" type="line"/>
      <point x="316.0" y="416.5" type="line"/>
      <point x="372.5" y="558.5"/>
      <point x="507.5" y="657.5"/>
      <point x="696.5" y="657.5" type="curve" smooth="yes"/>
      <point x="904.5" y="657.5"/>
      <point x="983.0" y="564.0"/>
      <point x="983.0" y="422.0" type="curve" smooth="yes"/>
      <point x="983.0" y="391.5" type="line" smooth="yes"/>
      <point x="983.0" y="243.5"/>
      <point x="881.5" y="146.5"/>
      <point x="678.5" y="146.5" type="curve" smooth="yes"/>
      <point x="449.5" y="146.5"/>
      <point x="315.5" y="278.0"/>
      <point x="315.5" y="536.5" type="curve"/>
      <point x="315.5" y="691.0" type="line" smooth="yes"/>
      <point x="315.5" y="977.0"/>
      <point x="455.0" y="1125.0"/>
      <point x="725.5" y="1125.0" type="curve" smooth="yes"/>
      <point x="912.0" y="1125.0"/>
      <point x="1024.0" y="1084.0"/>
      <point x="1130.5" y="1028.0" type="curve"/>
      <point x="1108.0" y="1216.5" type="line"/>
      <point x="1013.5" y="1261.0"/>
      <point x="884.0" y="1302.5"/>
      <point x="696.5" y="1302.5" type="curve" smooth="yes"/>
      <point x="309.5" y="1302.5"/>
      <point x="104.0" y="1078.0"/>
      <point x="104.0" y="694.0" type="curve" smooth="yes"/>
      <point x="104.0" y="547.5" type="line" smooth="yes"/>
      <point x="104.0" y="175.0"/>
      <point x="317.5" y="-28.5"/>
    </contour>
  </outline>
</glyph>
<glyph name="seven" format="2">
  <advance width="1107.5"/>
  <unicode hex="0037"/>
  <outline>
    <contour>
      <point x="246.0" y="0.0" type="line"/>
      <point x="483.0" y="0.0" type="line"/>
      <point x="1040.5" y="1099.5" type="line"/>
      <point x="1040.5" y="1278.0" type="line"/>
      <point x="66.0" y="1278.0" type="line"/>
      <point x="66.0" y="1102.5" type="line"/>
      <point x="812.0" y="1102.5" type="line"/>
    </contour>
  </outline>
</glyph>
<glyph name="eight" format="2">
  <advance width="1327.0"/>
  <unicode hex="0038"/>
  <outline>
    <contour>
      <point x="662.5" y="-32.5" type="curve" smooth="yes"/>
      <point x="1083.0" y="-32.5"/>
      <point x="1229.0" y="120.0"/>
      <point x="1229.0" y="329.5" type="curve" smooth="yes"/>
      <point x="1229.0" y="350.5" type="line" smooth="yes"/>
      <point x="1229.0" y="530.0"/>
      <point x="1122.5" y="633.5"/>
      <point x="958.5" y="668.5" type="curve"/>
      <point x="958.5" y="678.5" type="line"/>
      <point x="1111.5" y="702.0"/>
      <point x="1212.0" y="797.0"/>
      <point x="1212.0" y="954.0" type="curve" smooth="yes"/>
      <point x="1212.0" y="975.0" type="line" smooth="yes"/>
      <point x="1212.0" y="1182.0"/>
      <point x="1037.5" y="1307.0"/>
      <point x="662.5" y="1307.0" type="curve" smooth="yes"/>
      <point x="290.0" y="1307.0"/>
      <point x="115.5" y="1182.0"/>
      <point x="115.5" y="975.0" type="curve" smooth="yes"/>
      <point x="115.5" y="954.0" type="line" smooth="yes"/>
      <point x="115.5" y="796.5"/>
      <point x="216.0" y="702.0"/>
      <point x="369.0" y="678.5" type="curve"/>
      <point x="369.0" y="668.5" type="line"/>
      <point x="206.0" y="634.0"/>
      <point x="98.5" y="531.0"/>
      <point x="98.5" y="350.5" type="curve" smooth="yes"/>
      <point x="98.5" y="329.5" type="line" smooth="yes"/>
      <point x="98.5" y="111.5"/>
      <point x="257.0" y="-32.5"/>
    </contour>
    <contour>
      <point x="666.5" y="138.0" type="curve" smooth="yes"/>
      <point x="422.5" y="138.0"/>
      <point x="315.0" y="219.5"/>
      <point x="315.0" y="349.5" type="curve" smooth="yes"/>
      <point x="315.0" y="367.0" type="line" smooth="yes"/>
      <point x="315.0" y="491.5"/>
      <point x="425.0" y="569.5"/>
      <point x="656.0" y="586.5" type="curve"/>
      <point x="896.0" y="569.5"/>
      <point x="1012.5" y="494.5"/>
      <point x="1012.5" y="367.0" type="curve" smooth="yes"/>
      <point x="1012.5" y="349.5" type="line" smooth="yes"/>
      <point x="1012.5" y="221.5"/>
      <point x="908.0" y="138.0"/>
    </contour>
    <contour>
      <point x="670.5" y="734.5" type="curve"/>
      <point x="445.0" y="744.0"/>
      <point x="327.5" y="814.5"/>
      <point x="327.5" y="938.5" type="curve" smooth="yes"/>
      <point x="327.5" y="952.0" type="line" smooth="yes"/>
      <point x="327.5" y="1070.5"/>
      <point x="433.0" y="1142.0"/>
      <point x="662.5" y="1142.0" type="curve" smooth="yes"/>
      <point x="895.0" y="1142.0"/>
      <point x="1000.0" y="1070.5"/>
      <point x="1000.0" y="951.0" type="curve" smooth="yes"/>
      <point x="1000.0" y="937.5" type="line" smooth="yes"/>
      <point x="1000.0" y="813.0"/>
      <point x="876.5" y="744.0"/>
    </contour>
  </outline>
</glyph>
<glyph name="nine" format="2">
  <advance width="1287.0"/>
  <unicode hex="0039"/>
  <outline>
    <contour>
      <point x="620.0" y="1304.0" type="curve" smooth="yes"/>
      <point x="278.0" y="1304.0"/>
      <point x="95.0" y="1146.0"/>
      <point x="95.0" y="887.0" type="curve" smooth="yes"/>
      <point x="95.0" y="845.0" type="line" smooth="yes"/>
      <point x="95.0" y="596.5"/>
      <point x="247.0" y="451.0"/>
      <point x="532.5" y="451.0" type="curve" smooth="yes"/>
      <point x="776.5" y="451.0"/>
      <point x="912.5" y="561.0"/>
      <point x="961.5" y="703.0" type="curve"/>
      <point x="1000.5" y="703.0" type="line"/>
      <point x="973.0" y="856.5" type="line"/>
      <point x="915.0" y="712.5"/>
      <point x="781.5" y="616.0"/>
      <point x="602.0" y="616.0" type="curve" smooth="yes"/>
      <point x="397.0" y="616.0"/>
      <point x="306.0" y="705.0"/>
      <point x="306.0" y="852.0" type="curve" smooth="yes"/>
      <point x="306.0" y="885.5" type="line" smooth="yes"/>
      <point x="306.0" y="1032.5"/>
      <point x="408.5" y="1129.0"/>
      <point x="616.0" y="1129.0" type="curve" smooth="yes"/>
      <point x="856.0" y="1129.0"/>
      <point x="972.5" y="1001.0"/>
      <point x="972.5" y="730.5" type="curve"/>
      <point x="972.5" y="564.5" type="line" smooth="yes"/>
      <point x="972.5" y="290.5"/>
      <point x="835.5" y="150.5"/>
      <point x="540.5" y="150.5" type="curve" smooth="yes"/>
      <point x="371.5" y="150.5"/>
      <point x="256.5" y="192.0"/>
      <point x="156.0" y="245.5" type="curve"/>
      <point x="179.0" y="50.0" type="line"/>
      <point x="265.5" y="10.5"/>
      <point x="387.0" y="-27.5"/>
      <point x="563.0" y="-27.5" type="curve" smooth="yes"/>
      <point x="973.5" y="-27.5"/>
      <point x="1184.5" y="184.5"/>
      <point x="1184.5" y="558.0" type="curve" smooth="yes"/>
      <point x="1184.5" y="718.5" type="line" smooth="yes"/>
      <point x="1184.5" y="1101.0"/>
      <point x="993.0" y="1304.0"/>
    </contour>
  </outline>
</glyph>
<glyph name="less" format="2">
  <advance width="1195.5"/>
  <unicode hex="003C"/>
  <outline>
    <contour>
      <point x="272.0" y="621.5" type="line"/>
      <point x="1050.5" y="813.0" type="line"/>
      <point x="1050.5" y="993.5" type="line"/>
      <point x="120.0" y="748.5" type="line"/>
      <point x="120.0" y="474.0" type="line"/>
      <point x="1050.5" y="228.0" type="line"/>
      <point x="1050.5" y="409.0" type="line"/>
      <point x="272.0" y="602.0" type="line"/>
    </contour>
  </outline>
</glyph>
<glyph name="equal" format="2">
  <advance width="1193.0"/>
  <unicode hex="003D"/>
  <outline>
    <contour>
      <point x="134.0" y="310.0" type="line"/>
      <point x="1059.0" y="310.0" type="line"/>
      <point x="1059.0" y="474.0" type="line"/>
      <point x="134.0" y="474.0" type="line"/>
    </contour>
    <contour>
      <point x="134.0" y="754.0" type="line"/>
      <point x="1059.0" y="754.0" type="line"/>
      <point x="1059.0" y="918.0" type="line"/>
      <point x="134.0" y="918.0" type="line"/>
    </contour>
  </outline>
</glyph>
<glyph name="greater" format="2">
  <advance width="1195.5"/>
  <unicode hex="003E"/>
  <outline>
    <contour>
      <point x="923.5" y="621.5" type="line"/>
      <point x="923.5" y="602.0" type="line"/>
      <point x="145.0" y="409.0" type="line"/>
      <point x="145.0" y="228.0" type="line"/>
      <point x="1075.5" y="474.0" type="line"/>
      <point x="1075.5" y="748.5" type="line"/>
      <point x="145.0" y="993.5" type="line"/>
      <point x="145.0" y="813.0" type="line"/>
    </contour>
  </outline>
</glyph>
<glyph name="question" format="2">
  <advance width="1092.0"/>
  <unicode hex="003F"/>
  <outline>
    <contour>
      <point x="339.0" y="405.0" type="line"/>
      <point x="454.5" y="421.0" type="line" smooth="yes"/>
      <point x="811.5" y="465.0"/>
      <point x="1001.0" y="592.0"/>
      <point x="1001.0" y="870.5" type="curve" smooth="yes"/>
      <point x="1001.0" y="916.5" type="line" smooth="yes"/>
      <point x="1001.0" y="1166.5"/>
      <point x="846.0" y="1302.5"/>
      <point x="519.5" y="1302.5" type="curve" smooth="yes"/>
      <point x="323.0" y="1302.5"/>
      <point x="166.0" y="1245.5"/>
      <point x="80.0" y="1198.0" type="curve"/>
      <point x="56.0" y="1014.0" type="line"/>
      <point x="177.0" y="1075.0"/>
      <point x="331.5" y="1127.0"/>
      <point x="496.5" y="1127.0" type="curve" smooth="yes"/>
      <point x="712.0" y="1127.0"/>
      <point x="789.0" y="1045.0"/>
      <point x="789.0" y="906.0" type="curve" smooth="yes"/>
      <point x="789.0" y="868.5" type="line" smooth="yes"/>
      <point x="789.0" y="707.5"/>
      <point x="683.5" y="625.5"/>
      <point x="433.5" y="592.0" type="curve" smooth="yes"/>
      <point x="339.0" y="578.5" type="line"/>
    </contour>
    <contour>
      <point x="436.0" y="-22.5" type="curve" smooth="yes"/>
      <point x="523.0" y="-22.5"/>
      <point x="564.5" y="23.5"/>
      <point x="564.5" y="101.0" type="curve" smooth="yes"/>
      <point x="564.5" y="108.0" type="line" smooth="yes"/>
      <point x="564.5" y="185.0"/>
      <point x="523.0" y="231.0"/>
      <point x="436.0" y="231.0" type="curve" smooth="yes"/>
      <point x="349.5" y="231.0"/>
      <point x="308.0" y="185.0"/>
      <point x="308.0" y="108.0" type="curve" smooth="yes"/>
      <point x="308.0" y="101.0" type="line" smooth="yes"/>
      <point x="308.0" y="23.5"/>
      <point x="349.5" y="-22.5"/>
    </contour>
  </outline>
</glyph>
<glyph name="at" format="2">
  <advance width="1882.0"/>
  <unicode hex="0040"/>
  <outline>
    <contour>
      <point x="829.0" y="69.5" type="curve" smooth="yes"/>
      <point x="995.0" y="69.5"/>
      <point x="1076.5" y="151.5"/>
      <point x="1119.5" y="262.0" type="curve"/>
      <point x="1170.0" y="262.0" type="line"/>
      <point x="1142.5" y="404.0" type="line"/>
      <point x="1111.0" y="301.0"/>
      <point x="1024.0" y="231.5"/>
      <point x="918.0" y="231.5" type="curve" smooth="yes"/>
      <point x="810.5" y="231.5"/>
      <point x="750.0" y="287.5"/>
      <point x="750.0" y="402.5" type="curve" smooth="yes"/>
      <point x="750.0" y="413.0"/>
      <point x="750.0" y="425.5"/>
      <point x="757.5" y="495.0" type="curve" smooth="yes"/>
      <point x="766.0" y="646.0"/>
      <point x="832.5" y="746.5"/>
      <point x="973.5" y="746.5" type="curve" smooth="yes"/>
      <point x="1087.5" y="746.5"/>
      <point x="1159.0" y="678.5"/>
      <point x="1158.5" y="548.0" type="curve" smooth="yes"/>
      <point x="1158.5" y="540.5"/>
      <point x="1158.5" y="532.0"/>
      <point x="1158.0" y="523.5" type="curve"/>
      <point x="1217.5" y="711.0" type="line"/>
      <point x="1163.5" y="711.0" type="line"/>
      <point x="1141.0" y="827.0"/>
      <point x="1069.5" y="902.5"/>
      <point x="913.0" y="902.5" type="curve" smooth="yes"/>
      <point x="683.0" y="902.5"/>
      <point x="571.5" y="728.5"/>
      <point x="557.5" y="470.5" type="curve" smooth="yes"/>
      <point x="550.0" y="400.5"/>
      <point x="550.0" y="387.5"/>
      <point x="550.0" y="374.0" type="curve" smooth="yes"/>
      <point x="550.0" y="175.0"/>
      <point x="657.0" y="69.5"/>
    </contour>
    <contour>
      <point x="1106.5" y="83.5" type="line"/>
      <point x="1293.0" y="116.5" type="line"/>
      <point x="1373.5" y="882.5" type="line"/>
      <point x="1187.5" y="882.5" type="line"/>
      <point x="1186.5" y="871.0" type="line"/>
      <point x="1168.5" y="663.5" type="line"/>
      <point x="1166.5" y="634.5" type="line"/>
      <point x="1134.0" y="349.0" type="line"/>
      <point x="1135.0" y="314.5" type="line"/>
    </contour>
    <contour>
      <point x="1251.0" y="230.0" type="curve"/>
      <point x="1106.5" y="83.5" type="line"/>
      <point x="1153.0" y="76.5"/>
      <point x="1194.0" y="76.0"/>
      <point x="1243.0" y="76.5" type="curve" smooth="yes"/>
      <point x="1583.5" y="78.0"/>
      <point x="1756.0" y="216.5"/>
      <point x="1774.0" y="540.5" type="curve" smooth="yes"/>
      <point x="1783.0" y="609.0"/>
      <point x="1786.0" y="643.0"/>
      <point x="1787.0" y="669.0" type="curve" smooth="yes"/>
      <point x="1795.5" y="1097.0"/>
      <point x="1512.0" y="1332.5"/>
      <point x="1009.5" y="1332.5" type="curve" smooth="yes"/>
      <point x="454.5" y="1332.5"/>
      <point x="140.5" y="1027.5"/>
      <point x="113.0" y="487.5" type="curve" smooth="yes"/>
      <point x="104.5" y="407.5"/>
      <point x="102.0" y="370.0"/>
      <point x="102.0" y="327.5" type="curve" smooth="yes"/>
      <point x="102.0" y="-124.5"/>
      <point x="386.0" y="-359.5"/>
      <point x="907.0" y="-359.5" type="curve" smooth="yes"/>
      <point x="1194.0" y="-359.5"/>
      <point x="1395.0" y="-305.5"/>
      <point x="1558.5" y="-222.5" type="curve"/>
      <point x="1589.0" y="-56.0" type="line"/>
      <point x="1424.0" y="-152.0"/>
      <point x="1200.0" y="-213.5"/>
      <point x="927.5" y="-213.5" type="curve" smooth="yes"/>
      <point x="497.0" y="-213.5"/>
      <point x="275.5" y="-28.0"/>
      <point x="275.5" y="333.5" type="curve" smooth="yes"/>
      <point x="275.5" y="371.0"/>
      <point x="278.0" y="403.0"/>
      <point x="287.5" y="491.0" type="curve" smooth="yes"/>
      <point x="309.0" y="927.5"/>
      <point x="544.5" y="1190.0"/>
      <point x="1001.5" y="1190.0" type="curve" smooth="yes"/>
      <point x="1414.0" y="1190.0"/>
      <point x="1621.0" y="1001.5"/>
      <point x="1613.5" y="667.5" type="curve" smooth="yes"/>
      <point x="1612.5" y="645.0"/>
      <point x="1608.5" y="602.5"/>
      <point x="1600.0" y="544.0" type="curve" smooth="yes"/>
      <point x="1587.5" y="325.0"/>
      <point x="1493.5" y="226.0"/>
      <point x="1325.5" y="226.0" type="curve" smooth="yes"/>
      <point x="1289.0" y="226.0"/>
      <point x="1274.0" y="227.0"/>
    </contour>
  </outline>
</glyph>
<glyph name="A" format="2">
  <advance width="1393.5"/>
  <unicode hex="0041"/>
  <anchor x="697.0" y="0.0" name="bottom"/>
  <anchor x="1387.0" y="2.5" name="ogonek"/>
  <anchor x="697.0" y="1278.0" name="top"/>
  <outline>
    <contour>
      <point x="44.5" y="0.0" type="line"/>
      <point x="261.5" y="0.0" type="line"/>
      <point x="683.5" y="1141.0" type="line"/>
      <point x="712.0" y="1141.0" type="line"/>
      <point x="1132.0" y="0.0" type="line"/>
      <point x="1349.0" y="0.0" type="line"/>
      <point x="859.5" y="1278.0" type="line"/>
      <point x="536.0" y="1278.0" type="line"/>
    </contour>
    <contour>
      <point x="345.5" y="355.5" type="line"/>
      <point x="1047.0" y="355.5" type="line"/>
      <point x="1047.0" y="528.5" type="line"/>
      <point x="345.5" y="528.5" type="line"/>
    </contour>
  </outline>
</glyph>
<glyph name="B" format="2">
  <advance width="1390.5"/>
  <unicode hex="0042"/>
  <anchor x="697.0" y="0.0" name="bottom"/>
  <anchor x="697.0" y="1278.0" name="top"/>
  <outline>
    <contour>
      <point x="313.0" y="0.0" type="line"/>
      <point x="864.5" y="0.0" type="line" smooth="yes"/>
      <point x="1166.0" y="0.0"/>
      <point x="1296.0" y="130.0"/>
      <point x="1296.0" y="348.5" type="curve" smooth="yes"/>
      <point x="1296.0" y="375.5" type="line" smooth="yes"/>
      <point x="1296.0" y="558.0"/>
      <point x="1207.0" y="656.5"/>
      <point x="1027.0" y="686.0" type="curve"/>
      <point x="1027.0" y="695.5" type="line"/>
      <point x="1184.5" y="712.5"/>
      <point x="1263.5" y="802.5"/>
      <point x="1263.5" y="951.5" type="curve" smooth="yes"/>
      <point x="1263.5" y="968.0" type="line" smooth="yes"/>
      <point x="1263.5" y="1166.5"/>
      <point x="1141.5" y="1278.0"/>
      <point x="844.0" y="1278.0" type="curve" smooth="yes"/>
      <point x="311.0" y="1278.0" type="line"/>
      <point x="311.0" y="1107.0" type="line"/>
      <point x="829.0" y="1107.0" type="line" smooth="yes"/>
      <point x="988.5" y="1107.0"/>
      <point x="1051.0" y="1041.5"/>
      <point x="1051.0" y="931.0" type="curve" smooth="yes"/>
      <point x="1051.0" y="917.0" type="line" smooth="yes"/>
      <point x="1051.0" y="808.0"/>
      <point x="986.5" y="740.0"/>
      <point x="829.5" y="740.0" type="curve" smooth="yes"/>
      <point x="312.5" y="740.0" type="line"/>
      <point x="312.5" y="574.0" type="line"/>
      <point x="841.0" y="574.0" type="line" smooth="yes"/>
      <point x="1012.0" y="574.0"/>
      <point x="1079.0" y="504.5"/>
      <point x="1079.0" y="384.5" type="curve" smooth="yes"/>
      <point x="1079.0" y="362.5" type="line" smooth="yes"/>
      <point x="1079.0" y="244.5"/>
      <point x="1011.0" y="173.0"/>
      <point x="846.5" y="173.0" type="curve" smooth="yes"/>
      <point x="313.0" y="173.0" type="line"/>
    </contour>
    <contour>
      <point x="163.5" y="0.0" type="line"/>
      <point x="372.0" y="0.0" type="line"/>
      <point x="372.0" y="1278.0" type="line"/>
      <point x="163.5" y="1278.0" type="line"/>
    </contour>
  </outline>
</glyph>
<glyph name="C" format="2">
  <advance width="1257.0"/>
  <unicode hex="0043"/>
  <anchor x="687.0" y="0.0" name="bottom"/>
  <anchor x="687.0" y="1278.0" name="top"/>
  <outline>
    <contour>
      <point x="719.5" y="-29.0" type="curve" smooth="yes"/>
      <point x="911.0" y="-29.0"/>
      <point x="1055.5" y="25.5"/>
      <point x="1144.5" y="80.0" type="curve"/>
      <point x="1162.0" y="274.5" type="line"/>
      <point x="1059.0" y="208.5"/>
      <point x="920.5" y="154.0"/>
      <point x="745.5" y="154.0" type="curve" smooth="yes"/>
      <point x="463.5" y="154.0"/>
      <point x="323.0" y="306.5"/>
      <point x="323.0" y="569.0" type="curve" smooth="yes"/>
      <point x="323.0" y="715.5" type="line" smooth="yes"/>
      <point x="323.0" y="976.5"/>
      <point x="464.0" y="1127.5"/>
      <point x="733.5" y="1127.5" type="curve" smooth="yes"/>
      <point x="916.5" y="1127.5"/>
      <point x="1049.0" y="1071.0"/>
      <point x="1150.5" y="1007.5" type="curve"/>
      <point x="1132.5" y="1199.5" type="line"/>
      <point x="1043.5" y="1253.5"/>
      <point x="902.5" y="1307.0"/>
      <point x="713.5" y="1307.0" type="curve" smooth="yes"/>
      <point x="311.5" y="1307.0"/>
      <point x="105.0" y="1091.0"/>
      <point x="105.0" y="716.5" type="curve" smooth="yes"/>
      <point x="105.0" y="565.0" type="line" smooth="yes"/>
      <point x="105.0" y="187.0"/>
      <point x="312.5" y="-29.0"/>
    </contour>
  </outline>
</glyph>
<glyph name="D" format="2">
  <advance width="1415.0"/>
  <unicode hex="0044"/>
  <anchor x="693.5" y="0.0" name="bottom"/>
  <anchor x="712.0" y="639.0" name="center"/>
  <anchor x="693.5" y="1278.0" name="top"/>
  <outline>
    <contour>
      <point x="314.5" y="0.0" type="line"/>
      <point x="707.0" y="0.0" type="line" smooth="yes"/>
      <point x="1104.5" y="0.0"/>
      <point x="1313.0" y="202.0"/>
      <point x="1313.0" y="565.5" type="curve" smooth="yes"/>
      <point x="1313.0" y="715.5" type="line" smooth="yes"/>
      <point x="1313.0" y="1077.5"/>
      <point x="1104.0" y="1278.0"/>
      <point x="707.0" y="1278.0" type="curve" smooth="yes"/>
      <point x="311.0" y="1278.0" type="line"/>
      <point x="311.0" y="1104.0" type="line"/>
      <point x="700.0" y="1104.0" type="line" smooth="yes"/>
      <point x="960.5" y="1104.0"/>
      <point x="1096.5" y="964.5"/>
      <point x="1096.5" y="714.5" type="curve" smooth="yes"/>
      <point x="1096.5" y="566.0" type="line" smooth="yes"/>
      <point x="1096.5" y="316.5"/>
      <point x="960.5" y="175.0"/>
      <point x="700.0" y="175.0" type="curve" smooth="yes"/>
      <point x="314.5" y="175.0" type="line"/>
    </contour>
    <contour>
      <point x="163.5" y="0.0" type="line"/>
      <point x="374.0" y="0.0" type="line"/>
      <point x="374.0" y="1278.0" type="line"/>
      <point x="163.5" y="1278.0" type="line"/>
    </contour>
  </outline>
</glyph>
<glyph name="E" format="2">
  <advance width="1264.0"/>
  <unicode hex="0045"/>
  <anchor x="664.5" y="0.0" name="bottom"/>
  <anchor x="1175.0" y="2.5" name="ogonek"/>
  <anchor x="664.5" y="1278.0" name="top"/>
  <anchor x="20.0" y="1278.0" name="topleft"/>
  <outline>
    <contour>
      <point x="163.5" y="0.0" type="line"/>
      <point x="372.0" y="0.0" type="line"/>
      <point x="372.0" y="1278.0" type="line"/>
      <point x="163.5" y="1278.0" type="line"/>
    </contour>
    <contour>
      <point x="198.5" y="0.0" type="line"/>
      <point x="1154.0" y="0.0" type="line"/>
      <point x="1154.0" y="174.5" type="line"/>
      <point x="198.5" y="174.5" type="line"/>
    </contour>
    <contour>
      <point x="277.5" y="564.0" type="line"/>
      <point x="1124.5" y="564.0" type="line"/>
      <point x="1124.5" y="736.0" type="line"/>
      <point x="277.5" y="736.0" type="line"/>
    </contour>
    <contour>
      <point x="198.0" y="1104.0" type="line"/>
      <point x="1143.5" y="1104.0" type="line"/>
      <point x="1143.5" y="1278.0" type="line"/>
      <point x="198.0" y="1278.0" type="line"/>
    </contour>
  </outline>
</glyph>
<glyph name="F" format="2">
  <advance width="1210.5"/>
  <unicode hex="0046"/>
  <anchor x="606.0" y="0.0" name="bottom"/>
  <anchor x="606.0" y="1278.0" name="top"/>
  <outline>
    <contour>
      <point x="163.5" y="0.0" type="line"/>
      <point x="373.5" y="0.0" type="line"/>
      <point x="373.5" y="1278.0" type="line"/>
      <point x="163.5" y="1278.0" type="line"/>
    </contour>
    <contour>
      <point x="277.5" y="506.0" type="line"/>
      <point x="1099.0" y="506.0" type="line"/>
      <point x="1099.0" y="680.5" type="line"/>
      <point x="277.5" y="680.5" type="line"/>
    </contour>
    <contour>
      <point x="198.0" y="1103.5" type="line"/>
      <point x="1116.5" y="1103.5" type="line"/>
      <point x="1116.5" y="1278.0" type="line"/>
      <point x="198.0" y="1278.0" type="line"/>
    </contour>
  </outline>
</glyph>
<glyph name="G" format="2">
  <advance width="1438.0"/>
  <unicode hex="0047"/>
  <anchor x="718.0" y="0.0" name="bottom"/>
  <anchor x="718.0" y="1278.0" name="top"/>
  <outline>
    <contour>
      <point x="667.5" y="-29.5" type="curve" smooth="yes"/>
      <point x="931.5" y="-29.5"/>
      <point x="1044.5" y="88.5"/>
      <point x="1083.5" y="223.5" type="curve"/>
      <point x="1292.0" y="223.0" type="line"/>
      <point x="1292.0" y="719.5" type="line"/>
      <point x="744.5" y="719.5" type="line"/>
      <point x="744.5" y="547.5" type="line"/>
      <point x="1116.5" y="548.5" type="line"/>
      <point x="1087.5" y="620.0" type="line"/>
      <point x="1087.5" y="356.0" type="line"/>
      <point x="1044.0" y="243.5"/>
      <point x="926.5" y="148.5"/>
      <point x="734.0" y="148.5" type="curve" smooth="yes"/>
      <point x="462.0" y="148.5"/>
      <point x="323.0" y="297.0"/>
      <point x="323.0" y="555.0" type="curve" smooth="yes"/>
      <point x="323.0" y="706.5" type="line" smooth="yes"/>
      <point x="323.0" y="978.5"/>
      <point x="474.5" y="1128.5"/>
      <point x="782.0" y="1128.5" type="curve" smooth="yes"/>
      <point x="985.5" y="1128.5"/>
      <point x="1139.5" y="1071.0"/>
      <point x="1259.0" y="1006.5" type="curve"/>
      <point x="1239.0" y="1193.0" type="line"/>
      <point x="1133.0" y="1251.0"/>
      <point x="972.0" y="1307.0"/>
      <point x="753.5" y="1307.0" type="curve" smooth="yes"/>
      <point x="327.5" y="1307.0"/>
      <point x="105.0" y="1088.5"/>
      <point x="105.0" y="707.0" type="curve" smooth="yes"/>
      <point x="105.0" y="553.5" type="line" smooth="yes"/>
      <point x="105.0" y="182.5"/>
      <point x="308.0" y="-29.5"/>
    </contour>
    <contour>
      <point x="1094.5" y="274.5" type="line"/>
      <point x="1085.5" y="0.0" type="line"/>
      <point x="1292.0" y="0.0" type="line"/>
      <point x="1292.0" y="274.5" type="line"/>
    </contour>
  </outline>
</glyph>
<glyph name="H" format="2">
  <advance width="1471.0"/>
  <unicode hex="0048"/>
  <anchor x="735.5" y="0.0" name="bottom"/>
  <anchor x="735.5" y="639.0" name="center"/>
  <anchor x="735.5" y="1278.0" name="top"/>
  <anchor x="20.0" y="1278.0" name="topleft"/>
  <outline>
    <contour>
      <point x="375.5" y="0.0" type="line"/>
      <point x="375.5" y="1278.0" type="line"/>
      <point x="163.5" y="1278.0" type="line"/>
      <point x="163.5" y="0.0" type="line"/>
    </contour>
    <contour>
      <point x="1307.5" y="0.0" type="line"/>
      <point x="1307.5" y="1278.0" type="line"/>
      <point x="1095.5" y="1278.0" type="line"/>
      <point x="1095.5" y="0.0" type="line"/>
    </contour>
    <contour>
      <point x="278.5" y="745.5" type="line"/>
      <point x="278.5" y="571.0" type="line"/>
      <point x="1183.5" y="571.0" type="line"/>
      <point x="1183.5" y="745.5" type="line"/>
    </contour>
  </outline>
</glyph>
<glyph name="I" format="2">
  <advance width="542.0"/>
  <unicode hex="0049"/>
  <anchor x="271.0" y="0.0" name="bottom"/>
  <anchor x="416.0" y="2.5" name="ogonek"/>
  <anchor x="271.0" y="1278.0" name="top"/>
  <anchor x="20.0" y="1278.0" name="topleft"/>
  <outline>
    <contour>
      <point x="377.0" y="0.0" type="line"/>
      <point x="377.0" y="1278.0" type="line"/>
      <point x="165.0" y="1278.0" type="line"/>
      <point x="165.0" y="0.0" type="line"/>
    </contour>
  </outline>
</glyph>
<glyph name="J" format="2">
  <advance width="980.0"/>
  <unicode hex="004A"/>
  <anchor x="491.5" y="0.0" name="bottom"/>
  <anchor x="718.5" y="1278.0" name="top"/>
  <outline>
    <contour>
      <point x="374.5" y="-16.5" type="curve" smooth="yes"/>
      <point x="700.0" y="-16.5"/>
      <point x="826.5" y="137.5"/>
      <point x="826.5" y="438.0" type="curve" smooth="yes"/>
      <point x="826.5" y="1278.0" type="line"/>
      <point x="614.5" y="1278.0" type="line"/>
      <point x="614.5" y="449.0" type="line" smooth="yes"/>
      <point x="614.5" y="257.5"/>
      <point x="542.5" y="165.5"/>
      <point x="341.0" y="165.5" type="curve" smooth="yes"/>
      <point x="244.0" y="165.5"/>
      <point x="150.0" y="186.0"/>
      <point x="65.5" y="221.0" type="curve"/>
      <point x="85.0" y="34.0" type="line"/>
      <point x="167.0" y="1.0"/>
      <point x="271.5" y="-16.5"/>
    </contour>
  </outline>
</glyph>
<glyph name="K" format="2">
  <advance width="1344.0"/>
  <unicode hex="004B"/>
  <anchor x="678.0" y="0.0" name="bottom"/>
  <anchor x="678.0" y="1278.0" name="top"/>
  <outline>
    <contour>
      <point x="1041.0" y="0.0" type="line"/>
      <point x="1306.5" y="0.0" type="line"/>
      <point x="682.5" y="688.0" type="line"/>
      <point x="683.0" y="635.5" type="line"/>
      <point x="1292.0" y="1278.0" type="line"/>
      <point x="1035.0" y="1278.0" type="line"/>
      <point x="524.0" y="739.0" type="line"/>
      <point x="357.0" y="739.0" type="line"/>
      <point x="357.0" y="567.0" type="line"/>
      <point x="522.5" y="567.0" type="line"/>
    </contour>
    <contour>
      <point x="163.5" y="0.0" type="line"/>
      <point x="374.0" y="0.0" type="line"/>
      <point x="374.0" y="1278.0" type="line"/>
      <point x="163.5" y="1278.0" type="line"/>
    </contour>
  </outline>
</glyph>
<glyph name="L" format="2">
  <advance width="1169.5"/>
  <unicode hex="004C"/>
  <anchor x="627.5" y="0.0" name="bottom"/>
  <anchor x="571.5" y="642.5" name="center"/>
  <anchor x="270.0" y="1278.0" name="top"/>
  <anchor x="783.5" y="1278.0" name="topright"/>
  <outline>
    <contour>
      <point x="375.5" y="0.0" type="line"/>
      <point x="375.5" y="1278.0" type="line"/>
      <point x="163.5" y="1278.0" type="line"/>
      <point x="163.5" y="0.0" type="line"/>
    </contour>
    <contour>
      <point x="275.5" y="176.5" type="line"/>
      <point x="275.5" y="0.0" type="line"/>
      <point x="1100.0" y="0.0" type="line"/>
      <point x="1100.0" y="176.5" type="line"/>
    </contour>
  </outline>
</glyph>
<glyph name="M" format="2">
  <advance width="1744.0"/>
  <unicode hex="004D"/>
  <anchor x="872.5" y="0.0" name="bottom"/>
  <anchor x="872.5" y="1278.0" name="top"/>
  <outline>
    <contour>
      <point x="136.0" y="0.0" type="line"/>
      <point x="344.0" y="0.0" type="line"/>
      <point x="367.5" y="532.5" type="line"/>
      <point x="388.5" y="1060.5" type="line"/>
      <point x="409.5" y="1060.5" type="line"/>
      <point x="764.0" y="152.5" type="line"/>
      <point x="980.5" y="152.5" type="line"/>
      <point x="1334.0" y="1060.5" type="line"/>
      <point x="1354.5" y="1060.5" type="line"/>
      <point x="1375.5" y="532.5" type="line"/>
      <point x="1400.0" y="0.0" type="line"/>
      <point x="1608.0" y="0.0" type="line"/>
      <point x="1541.0" y="1278.0" type="line"/>
      <point x="1226.0" y="1278.0" type="line"/>
      <point x="879.0" y="385.5" type="line"/>
      <point x="864.5" y="385.5" type="line"/>
      <point x="518.5" y="1278.0" type="line"/>
      <point x="203.0" y="1278.0" type="line"/>
    </contour>
  </outline>
</glyph>
<glyph name="N" format="2">
  <advance width="1471.0"/>
  <unicode hex="004E"/>
  <anchor x="737.0" y="0.0" name="bottom"/>
  <anchor x="737.0" y="1278.0" name="top"/>
  <outline>
    <contour>
      <point x="476.0" y="1278.0" type="line"/>
      <point x="163.5" y="1278.0" type="line"/>
      <point x="163.5" y="0.0" type="line"/>
      <point x="372.5" y="0.0" type="line"/>
      <point x="372.5" y="513.5" type="line"/>
      <point x="364.5" y="1075.0" type="line"/>
      <point x="379.5" y="1075.0" type="line"/>
      <point x="1005.0" y="0.0" type="line"/>
      <point x="1307.5" y="0.0" type="line"/>
      <point x="1307.5" y="1278.0" type="line"/>
      <point x="1099.0" y="1278.0" type="line"/>
      <point x="1099.0" y="747.5" type="line"/>
      <point x="1107.0" y="218.0" type="line"/>
      <point x="1092.0" y="218.0" type="line"/>
    </contour>
  </outline>
</glyph>
<glyph name="O" format="2">
  <advance width="1454.0"/>
  <unicode hex="004F"/>
  <anchor x="727.0" y="0.0" name="bottom"/>
  <anchor x="727.0" y="639.0" name="center"/>
  <anchor x="1039.0" y="5.0" name="ogonek"/>
  <anchor x="727.0" y="1278.0" name="top"/>
  <anchor x="13.0" y="1278.0" name="topleft"/>
  <anchor x="1239.5" y="1278.0" name="topright"/>
  <outline>
    <contour>
      <point x="727.0" y="-29.5" type="curve" smooth="yes"/>
      <point x="1130.5" y="-29.5"/>
      <point x="1349.0" y="185.0"/>
      <point x="1349.0" y="565.0" type="curve" smooth="yes"/>
      <point x="1349.0" y="714.0" type="line" smooth="yes"/>
      <point x="1349.0" y="1093.5"/>
      <point x="1130.5" y="1307.5"/>
      <point x="727.0" y="1307.5" type="curve" smooth="yes"/>
      <point x="323.0" y="1307.5"/>
      <point x="105.0" y="1093.5"/>
      <point x="105.0" y="714.0" type="curve" smooth="yes"/>
      <point x="105.0" y="565.0" type="line" smooth="yes"/>
      <point x="105.0" y="185.0"/>
      <point x="323.0" y="-29.5"/>
    </contour>
    <contour>
      <point x="727.0" y="145.5" type="curve" smooth="yes"/>
      <point x="459.0" y="145.5"/>
      <point x="323.0" y="299.0"/>
      <point x="323.0" y="560.5" type="curve" smooth="yes"/>
      <point x="323.0" y="718.5" type="line" smooth="yes"/>
      <point x="323.0" y="980.0"/>
      <point x="459.0" y="1132.5"/>
      <point x="727.0" y="1132.5" type="curve" smooth="yes"/>
      <point x="994.0" y="1132.5"/>
      <point x="1131.0" y="980.0"/>
      <point x="1131.0" y="718.5" type="curve" smooth="yes"/>
      <point x="1131.0" y="560.5" type="line" smooth="yes"/>
      <point x="1131.0" y="299.0"/>
      <point x="994.0" y="145.5"/>
    </contour>
  </outline>
</glyph>
<glyph name="P" format="2">
  <advance width="1330.0"/>
  <unicode hex="0050"/>
  <anchor x="664.0" y="0.0" name="bottom"/>
  <anchor x="664.0" y="1278.0" name="top"/>
  <outline>
    <contour>
      <point x="310.5" y="412.5" type="line"/>
      <point x="771.5" y="412.5" type="line" smooth="yes"/>
      <point x="1097.5" y="412.5"/>
      <point x="1245.0" y="565.0"/>
      <point x="1245.0" y="816.5" type="curve" smooth="yes"/>
      <point x="1245.0" y="874.0" type="line" smooth="yes"/>
      <point x="1245.0" y="1126.5"/>
      <point x="1098.0" y="1278.0"/>
      <point x="772.0" y="1278.0" type="curve" smooth="yes"/>
      <point x="307.0" y="1278.0" type="line"/>
      <point x="307.0" y="1105.5" type="line"/>
      <point x="770.0" y="1105.5" type="line" smooth="yes"/>
      <point x="951.5" y="1105.5"/>
      <point x="1030.0" y="1020.5"/>
      <point x="1030.0" y="871.5" type="curve" smooth="yes"/>
      <point x="1030.0" y="819.5" type="line" smooth="yes"/>
      <point x="1030.0" y="672.0"/>
      <point x="951.5" y="586.0"/>
      <point x="769.0" y="586.0" type="curve" smooth="yes"/>
      <point x="310.5" y="586.0" type="line"/>
    </contour>
    <contour>
      <point x="163.5" y="0.0" type="line"/>
      <point x="372.5" y="0.0" type="line"/>
      <point x="372.5" y="441.0" type="line"/>
      <point x="372.0" y="532.5" type="line"/>
      <point x="372.0" y="1278.0" type="line"/>
      <point x="163.5" y="1278.0" type="line"/>
    </contour>
  </outline>
</glyph>
<glyph name="Q" format="2">
  <advance width="1455.5"/>
  <unicode hex="0051"/>
  <anchor x="728.0" y="0.0" name="bottom"/>
  <anchor x="728.0" y="1278.0" name="top"/>
  <outline>
    <contour>
      <point x="1455.0" y="-48.0" type="line"/>
      <point x="1455.0" y="136.5" type="line"/>
      <point x="1001.5" y="127.0" type="line"/>
      <point x="1001.5" y="138.0" type="line"/>
      <point x="1199.5" y="172.5"/>
      <point x="1349.0" y="306.0"/>
      <point x="1349.0" y="587.0" type="curve" smooth="yes"/>
      <point x="1349.0" y="719.0" type="line" smooth="yes"/>
      <point x="1349.0" y="1091.0"/>
      <point x="1131.5" y="1307.5"/>
      <point x="727.0" y="1307.5" type="curve" smooth="yes"/>
      <point x="323.0" y="1307.5"/>
      <point x="105.0" y="1093.5"/>
      <point x="105.0" y="714.5" type="curve" smooth="yes"/>
      <point x="105.0" y="566.0" type="line" smooth="yes"/>
      <point x="105.0" y="188.5"/>
      <point x="322.5" y="-17.0"/>
      <point x="795.0" y="-30.0" type="curve" smooth="yes"/>
    </contour>
    <contour>
      <point x="761.0" y="146.5" type="line" smooth="yes"/>
      <point x="485.5" y="155.0"/>
      <point x="323.0" y="298.5"/>
      <point x="323.0" y="561.5" type="curve" smooth="yes"/>
      <point x="323.0" y="718.5" type="line" smooth="yes"/>
      <point x="323.0" y="980.0"/>
      <point x="459.5" y="1132.5"/>
      <point x="726.5" y="1132.5" type="curve" smooth="yes"/>
      <point x="993.5" y="1132.5"/>
      <point x="1131.0" y="980.0"/>
      <point x="1131.0" y="718.5" type="curve" smooth="yes"/>
      <point x="1131.0" y="562.0" type="line" smooth="yes"/>
      <point x="1131.0" y="301.5"/>
      <point x="971.5" y="179.5"/>
      <point x="793.5" y="145.5" type="curve"/>
    </contour>
  </outline>
</glyph>
<glyph name="R" format="2">
  <advance width="1369.5"/>
  <unicode hex="0052"/>
  <anchor x="695.5" y="0.0" name="bottom"/>
  <anchor x="685.5" y="1278.0" name="top"/>
  <outline>
    <contour>
      <point x="1058.0" y="0.0" type="line"/>
      <point x="1280.5" y="0.0" type="line"/>
      <point x="1232.0" y="265.5" type="line" smooth="yes"/>
      <point x="1193.5" y="474.5"/>
      <point x="1136.0" y="592.0"/>
      <point x="895.5" y="606.5" type="curve"/>
      <point x="994.0" y="575.5" type="line"/>
      <point x="994.0" y="602.0" type="line"/>
      <point x="1178.0" y="628.5"/>
      <point x="1256.0" y="733.5"/>
      <point x="1256.0" y="902.5" type="curve" smooth="yes"/>
      <point x="1256.0" y="925.5" type="line" smooth="yes"/>
      <point x="1256.0" y="1147.0"/>
      <point x="1120.0" y="1278.0"/>
      <point x="813.5" y="1278.0" type="curve" smooth="yes"/>
      <point x="305.5" y="1278.0" type="line"/>
      <point x="305.5" y="1106.5" type="line"/>
      <point x="786.5" y="1106.5" type="line" smooth="yes"/>
      <point x="967.0" y="1106.5"/>
      <point x="1041.5" y="1026.5"/>
      <point x="1041.5" y="890.5" type="curve" smooth="yes"/>
      <point x="1041.5" y="871.0" type="line" smooth="yes"/>
      <point x="1041.5" y="733.0"/>
      <point x="965.5" y="646.0"/>
      <point x="786.0" y="646.0" type="curve" smooth="yes"/>
      <point x="307.5" y="645.0" type="line"/>
      <point x="307.5" y="480.0" type="line"/>
      <point x="753.0" y="479.0" type="line" smooth="yes"/>
      <point x="944.5" y="478.5"/>
      <point x="992.5" y="389.5"/>
      <point x="1019.5" y="233.5" type="curve" smooth="yes"/>
    </contour>
    <contour>
      <point x="163.5" y="0.0" type="line"/>
      <point x="372.0" y="0.0" type="line"/>
      <point x="372.0" y="505.0" type="line"/>
      <point x="371.5" y="583.5" type="line"/>
      <point x="371.5" y="1278.0" type="line"/>
      <point x="163.5" y="1278.0" type="line"/>
    </contour>
  </outline>
</glyph>
<glyph name="S" format="2">
  <advance width="1254.5"/>
  <unicode hex="0053"/>
  <anchor x="621.0" y="0.0" name="bottom"/>
  <anchor x="621.0" y="1278.0" name="top"/>
  <outline>
    <contour>
      <point x="617.5" y="-26.5" type="curve" smooth="yes"/>
      <point x="979.0" y="-26.5"/>
      <point x="1158.5" y="97.0"/>
      <point x="1158.5" y="347.5" type="curve" smooth="yes"/>
      <point x="1158.5" y="360.0" type="line" smooth="yes"/>
      <point x="1158.5" y="608.0"/>
      <point x="1016.5" y="684.0"/>
      <point x="668.0" y="737.5" type="curve" smooth="yes"/>
      <point x="376.0" y="782.5"/>
      <point x="311.5" y="837.0"/>
      <point x="311.5" y="950.5" type="curve" smooth="yes"/>
      <point x="311.5" y="953.0" type="line" smooth="yes"/>
      <point x="311.5" y="1062.5"/>
      <point x="391.0" y="1128.0"/>
      <point x="620.5" y="1128.0" type="curve" smooth="yes"/>
      <point x="817.5" y="1128.0"/>
      <point x="980.5" y="1078.5"/>
      <point x="1102.0" y="1014.5" type="curve"/>
      <point x="1080.5" y="1204.0" type="line"/>
      <point x="978.5" y="1254.0"/>
      <point x="820.5" y="1304.0"/>
      <point x="595.5" y="1304.0" type="curve" smooth="yes"/>
      <point x="258.0" y="1304.0"/>
      <point x="94.0" y="1181.0"/>
      <point x="94.0" y="956.5" type="curve" smooth="yes"/>
      <point x="94.0" y="949.5" type="line" smooth="yes"/>
      <point x="94.0" y="721.5"/>
      <point x="226.5" y="624.0"/>
      <point x="584.0" y="572.5" type="curve" smooth="yes"/>
      <point x="857.0" y="533.0"/>
      <point x="940.5" y="487.5"/>
      <point x="940.5" y="357.5" type="curve" smooth="yes"/>
      <point x="940.5" y="349.0" type="line" smooth="yes"/>
      <point x="940.5" y="219.0"/>
      <point x="837.5" y="156.5"/>
      <point x="609.5" y="156.5" type="curve" smooth="yes"/>
      <point x="403.0" y="156.5"/>
      <point x="219.0" y="221.5"/>
      <point x="94.0" y="289.5" type="curve"/>
      <point x="115.5" y="83.5" type="line"/>
      <point x="218.0" y="34.0"/>
      <point x="392.5" y="-26.5"/>
    </contour>
  </outline>
</glyph>
<glyph name="T" format="2">
  <advance width="1282.5"/>
  <unicode hex="0054"/>
  <anchor x="641.5" y="0.0" name="bottom"/>
  <anchor x="641.5" y="639.0" name="center"/>
  <anchor x="641.5" y="1278.0" name="top"/>
  <outline>
    <contour>
      <point x="535.5" y="0.0" type="line"/>
      <point x="747.5" y="0.0" type="line"/>
      <point x="747.5" y="1225.0" type="line"/>
      <point x="535.5" y="1225.0" type="line"/>
    </contour>
    <contour>
      <point x="73.0" y="1103.5" type="line"/>
      <point x="1209.5" y="1103.5" type="line"/>
      <point x="1209.5" y="1278.0" type="line"/>
      <point x="73.0" y="1278.0" type="line"/>
    </contour>
  </outline>
</glyph>
<glyph name="U" format="2">
  <advance width="1447.5"/>
  <unicode hex="0055"/>
  <anchor x="724.0" y="0.0" name="bottom"/>
  <anchor x="1022.0" y="5.0" name="ogonek"/>
  <anchor x="724.0" y="1278.0" name="top"/>
  <anchor x="1419.5" y="1278.0" name="topright"/>
  <outline>
    <contour>
      <point x="724.0" y="-29.5" type="curve" smooth="yes"/>
      <point x="1117.0" y="-29.5"/>
      <point x="1295.5" y="163.0"/>
      <point x="1295.5" y="529.5" type="curve" smooth="yes"/>
      <point x="1295.5" y="1278.0" type="line"/>
      <point x="1083.5" y="1278.0" type="line"/>
      <point x="1083.5" y="527.5" type="line" smooth="yes"/>
      <point x="1083.5" y="281.0"/>
      <point x="977.0" y="149.0"/>
      <point x="724.0" y="149.0" type="curve" smooth="yes"/>
      <point x="471.0" y="149.0"/>
      <point x="364.0" y="281.0"/>
      <point x="364.0" y="527.5" type="curve" smooth="yes"/>
      <point x="364.0" y="1278.0" type="line"/>
      <point x="152.0" y="1278.0" type="line"/>
      <point x="152.0" y="529.5" type="line" smooth="yes"/>
      <point x="152.0" y="163.0"/>
      <point x="332.0" y="-29.5"/>
    </contour>
  </outline>
</glyph>
<glyph name="V" format="2">
  <advance width="1361.0"/>
  <unicode hex="0056"/>
  <anchor x="681.0" y="0.0" name="bottom"/>
  <anchor x="681.0" y="1278.0" name="top"/>
  <outline>
    <contour>
      <point x="518.5" y="0.0" type="line"/>
      <point x="844.0" y="0.0" type="line"/>
      <point x="1316.5" y="1278.0" type="line"/>
      <point x="1091.0" y="1278.0" type="line"/>
      <point x="693.0" y="161.0" type="line"/>
      <point x="668.0" y="161.0" type="line"/>
      <point x="270.0" y="1278.0" type="line"/>
      <point x="44.5" y="1278.0" type="line"/>
    </contour>
  </outline>
</glyph>
<glyph name="W" format="2">
  <advance width="1925.5"/>
  <unicode hex="0057"/>
  <anchor x="963.0" y="0.0" name="bottom"/>
  <anchor x="963.0" y="1278.0" name="top"/>
  <outline>
    <contour>
      <point x="384.0" y="0.0" type="line"/>
      <point x="706.5" y="0.0" type="line"/>
      <point x="881.5" y="737.0" type="line"/>
      <point x="954.5" y="1069.5" type="line"/>
      <point x="971.5" y="1069.5" type="line"/>
      <point x="1044.5" y="737.0" type="line"/>
      <point x="1220.0" y="0.0" type="line"/>
      <point x="1542.0" y="0.0" type="line"/>
      <point x="1862.0" y="1278.0" type="line"/>
      <point x="1641.0" y="1278.0" type="line"/>
      <point x="1417.5" y="332.0" type="line"/>
      <point x="1384.5" y="177.5" type="line"/>
      <point x="1366.0" y="177.5" type="line"/>
      <point x="1333.5" y="332.0" type="line"/>
      <point x="1115.0" y="1243.5" type="line"/>
      <point x="811.0" y="1243.5" type="line"/>
      <point x="592.0" y="332.5" type="line"/>
      <point x="559.5" y="177.5" type="line"/>
      <point x="541.5" y="177.5" type="line"/>
      <point x="508.0" y="332.5" type="line"/>
      <point x="285.5" y="1278.0" type="line"/>
      <point x="63.5" y="1278.0" type="line"/>
    </contour>
  </outline>
</glyph>
<glyph name="X" format="2">
  <advance width="1361.0"/>
  <unicode hex="0058"/>
  <anchor x="681.0" y="0.0" name="bottom"/>
  <anchor x="681.0" y="1278.0" name="top"/>
  <outline>
    <contour>
      <point x="49.5" y="0.0" type="line"/>
      <point x="293.0" y="0.0" type="line"/>
      <point x="673.0" y="539.5" type="line"/>
      <point x="688.5" y="539.5" type="line"/>
      <point x="1068.0" y="0.0" type="line"/>
      <point x="1311.5" y="0.0" type="line"/>
      <point x="830.5" y="681.5" type="line"/>
      <point x="831.0" y="640.5" type="line"/>
      <point x="1301.0" y="1278.0" type="line"/>
      <point x="1061.0" y="1278.0" type="line"/>
      <point x="688.5" y="769.5" type="line"/>
      <point x="673.5" y="769.5" type="line"/>
      <point x="300.5" y="1278.0" type="line"/>
      <point x="60.5" y="1278.0" type="line"/>
      <point x="530.5" y="640.5" type="line"/>
      <point x="531.0" y="681.5" type="line"/>
    </contour>
  </outline>
</glyph>
<glyph name="Y" format="2">
  <advance width="1316.5"/>
  <unicode hex="0059"/>
  <anchor x="658.5" y="0.0" name="bottom"/>
  <anchor x="658.5" y="1278.0" name="top"/>
  <anchor x="20.0" y="1278.0" name="topleft"/>
  <outline>
    <contour>
      <point x="567.0" y="368.0" type="line"/>
      <point x="750.5" y="368.0" type="line"/>
      <point x="1282.0" y="1278.0" type="line"/>
      <point x="1050.0" y="1278.0" type="line"/>
      <point x="776.0" y="799.0" type="line"/>
      <point x="665.5" y="596.5" type="line"/>
      <point x="651.5" y="596.5" type="line"/>
      <point x="540.5" y="800.0" type="line"/>
      <point x="266.5" y="1278.0" type="line"/>
      <point x="34.5" y="1278.0" type="line"/>
    </contour>
    <contour>
      <point x="554.0" y="0.0" type="line"/>
      <point x="763.5" y="0.0" type="line"/>
      <point x="763.5" y="555.5" type="line"/>
      <point x="554.0" y="555.5" type="line"/>
    </contour>
  </outline>
</glyph>
<glyph name="Z" format="2">
  <advance width="1242.5"/>
  <unicode hex="005A"/>
  <anchor x="622.0" y="0.0" name="bottom"/>
  <anchor x="622.0" y="639.0" name="center"/>
  <anchor x="622.0" y="1278.0" name="top"/>
  <outline>
    <contour>
      <point x="1151.0" y="175.5" type="line"/>
      <point x="355.0" y="175.5" type="line"/>
      <point x="1142.0" y="1113.5" type="line"/>
      <point x="1142.0" y="1278.0" type="line"/>
      <point x="99.0" y="1278.0" type="line"/>
      <point x="99.0" y="1104.0" type="line"/>
      <point x="877.5" y="1104.0" type="line"/>
      <point x="92.0" y="165.0" type="line"/>
      <point x="92.0" y="0.0" type="line"/>
      <point x="1151.0" y="0.0" type="line"/>
    </contour>
  </outline>
</glyph>
<glyph name="bracketleft" format="2">
  <advance width="699.0"/>
  <unicode hex="005B"/>
  <outline>
    <contour>
      <point x="164.0" y="-246.0" type="line"/>
      <point x="632.5" y="-246.0" type="line"/>
      <point x="632.5" y="-88.0" type="line"/>
      <point x="358.0" y="-88.0" type="line"/>
      <point x="358.0" y="1192.0" type="line"/>
      <point x="632.5" y="1192.0" type="line"/>
      <point x="632.5" y="1349.5" type="line"/>
      <point x="164.0" y="1349.5" type="line"/>
    </contour>
  </outline>
</glyph>
<glyph name="backslash" format="2">
  <advance width="1008.0"/>
  <unicode hex="005C"/>
  <outline>
    <contour>
      <point x="989.0" y="-242.5" type="line"/>
      <point x="218.5" y="1338.0" type="line"/>
      <point x="19.0" y="1338.0" type="line"/>
      <point x="788.5" y="-242.5" type="line"/>
    </contour>
  </outline>
</glyph>
<glyph name="bracketright" format="2">
  <advance width="699.0"/>
  <unicode hex="005D"/>
  <outline>
    <contour>
      <point x="535.0" y="-246.0" type="line"/>
      <point x="535.0" y="1349.5" type="line"/>
      <point x="66.5" y="1349.5" type="line"/>
      <point x="66.5" y="1192.0" type="line"/>
      <point x="341.0" y="1192.0" type="line"/>
      <point x="341.0" y="-88.0" type="line"/>
      <point x="66.5" y="-88.0" type="line"/>
      <point x="66.5" y="-246.0" type="line"/>
    </contour>
  </outline>
</glyph>
<glyph name="asciicircum" format="2">
  <advance width="994.5"/>
  <unicode hex="005E"/>
  <outline>
    <contour>
      <point x="361.5" y="1278.0" type="line"/>
      <point x="53.5" y="606.5" type="line"/>
      <point x="238.5" y="606.5" type="line"/>
      <point x="489.0" y="1156.5" type="line"/>
      <point x="505.5" y="1156.5" type="line"/>
      <point x="756.5" y="606.5" type="line"/>
      <point x="941.0" y="606.5" type="line"/>
      <point x="633.0" y="1278.0" type="line"/>
    </contour>
  </outline>
</glyph>
<glyph name="underscore" format="2">
  <advance width="1051.0"/>
  <unicode hex="005F"/>
  <outline>
    <contour>
      <point x="58.0" y="-236.0" type="line"/>
      <point x="993.5" y="-236.0" type="line"/>
      <point x="993.5" y="-76.5" type="line"/>
      <point x="58.0" y="-76.5" type="line"/>
    </contour>
  </outline>
</glyph>
<glyph name="grave" format="2">
  <advance width="648.0"/>
  <unicode hex="0060"/>
  <anchor x="462.5" y="968.0" name="_top"/>
  <anchor x="461.0" y="1340.5" name="top"/>
  <outline>
    <contour>
      <point x="330.5" y="1377.5" type="line"/>
      <point x="96.0" y="1377.5" type="line"/>
      <point x="96.0" y="1373.0" type="line"/>
      <point x="367.0" y="1093.5" type="line"/>
      <point x="555.0" y="1093.5" type="line"/>
      <point x="555.0" y="1097.5" type="line"/>
    </contour>
  </outline>
</glyph>
<glyph name="a" format="2">
  <advance width="1162.5"/>
  <unicode hex="0061"/>
  <anchor x="572.0" y="0.0" name="bottom"/>
  <anchor x="1079.5" y="2.5" name="ogonek"/>
  <anchor x="572.0" y="968.0" name="top"/>
  <outline>
    <contour>
      <point x="832.5" y="0.0" type="line"/>
      <point x="1039.0" y="0.0" type="line"/>
      <point x="1039.0" y="589.5" type="line" smooth="yes"/>
      <point x="1039.0" y="826.5"/>
      <point x="920.5" y="995.0"/>
      <point x="576.0" y="995.0" type="curve" smooth="yes"/>
      <point x="383.0" y="995.0"/>
      <point x="239.5" y="939.0"/>
      <point x="147.5" y="889.0" type="curve"/>
      <point x="126.5" y="717.0" type="line"/>
      <point x="236.5" y="772.0"/>
      <point x="375.0" y="824.5"/>
      <point x="543.5" y="824.5" type="curve" smooth="yes"/>
      <point x="745.5" y="824.5"/>
      <point x="835.5" y="748.0"/>
      <point x="835.5" y="596.0" type="curve"/>
      <point x="834.5" y="555.0" type="line"/>
      <point x="834.5" y="292.0" type="line"/>
      <point x="841.0" y="255.0" type="line"/>
    </contour>
    <contour>
      <point x="428.0" y="-25.5" type="curve" smooth="yes"/>
      <point x="684.5" y="-25.5"/>
      <point x="791.5" y="90.5"/>
      <point x="830.0" y="223.0" type="curve"/>
      <point x="869.0" y="223.0" type="line"/>
      <point x="840.0" y="366.5" type="line"/>
      <point x="808.0" y="246.0"/>
      <point x="688.0" y="145.0"/>
      <point x="489.0" y="145.0" type="curve" smooth="yes"/>
      <point x="354.0" y="145.0"/>
      <point x="285.0" y="193.5"/>
      <point x="285.0" y="280.0" type="curve" smooth="yes"/>
      <point x="285.0" y="290.5" type="line" smooth="yes"/>
      <point x="285.0" y="381.5"/>
      <point x="345.5" y="418.5"/>
      <point x="519.5" y="436.5" type="curve" smooth="yes"/>
      <point x="864.0" y="472.5" type="line"/>
      <point x="856.5" y="617.0" type="line"/>
      <point x="500.0" y="580.5" type="line" smooth="yes"/>
      <point x="212.5" y="551.0"/>
      <point x="78.5" y="470.0"/>
      <point x="78.5" y="275.0" type="curve" smooth="yes"/>
      <point x="78.5" y="255.5" type="line" smooth="yes"/>
      <point x="78.5" y="75.5"/>
      <point x="205.5" y="-25.5"/>
    </contour>
  </outline>
</glyph>
<glyph name="b" format="2">
  <advance width="1275.0"/>
  <unicode hex="0062"/>
  <anchor x="641.5" y="0.0" name="bottom"/>
  <anchor x="641.5" y="1321.5" name="top"/>
  <outline>
    <contour>
      <point x="735.0" y="-25.5" type="curve" smooth="yes"/>
      <point x="1017.0" y="-25.5"/>
      <point x="1180.0" y="137.0"/>
      <point x="1180.0" y="441.5" type="curve" smooth="yes"/>
      <point x="1180.0" y="529.0" type="line" smooth="yes"/>
      <point x="1180.0" y="832.0"/>
      <point x="1018.5" y="993.5"/>
      <point x="742.5" y="993.5" type="curve" smooth="yes"/>
      <point x="505.5" y="993.5"/>
      <point x="391.5" y="880.0"/>
      <point x="353.5" y="745.5" type="curve"/>
      <point x="290.5" y="745.5" type="line"/>
      <point x="338.0" y="593.5" type="line"/>
      <point x="372.0" y="726.5"/>
      <point x="496.0" y="827.5"/>
      <point x="672.0" y="827.5" type="curve" smooth="yes"/>
      <point x="863.0" y="827.5"/>
      <point x="971.5" y="727.5"/>
      <point x="971.5" y="539.0" type="curve" smooth="yes"/>
      <point x="971.5" y="438.0" type="line" smooth="yes"/>
      <point x="971.5" y="245.5"/>
      <point x="862.5" y="145.0"/>
      <point x="674.5" y="145.0" type="curve" smooth="yes"/>
      <point x="493.5" y="145.0"/>
      <point x="353.0" y="236.5"/>
      <point x="343.5" y="432.0" type="curve"/>
      <point x="282.5" y="222.5" type="line"/>
      <point x="351.5" y="222.5" type="line"/>
      <point x="394.0" y="70.0"/>
      <point x="522.0" y="-25.5"/>
    </contour>
    <contour>
      <point x="142.0" y="0.0" type="line"/>
      <point x="349.0" y="0.0" type="line"/>
      <point x="340.5" y="254.0" type="line"/>
      <point x="343.5" y="318.5" type="line"/>
      <point x="343.5" y="661.0" type="line"/>
      <point x="342.5" y="702.0" type="line"/>
      <point x="347.5" y="984.5" type="line"/>
      <point x="347.5" y="1321.5" type="line"/>
      <point x="142.0" y="1321.5" type="line"/>
    </contour>
  </outline>
</glyph>
<glyph name="c" format="2">
  <advance width="1051.0"/>
  <unicode hex="0063"/>
  <anchor x="573.5" y="0.0" name="bottom"/>
  <anchor x="573.5" y="968.0" name="top"/>
  <outline>
    <contour>
      <point x="602.5" y="-27.5" type="curve" smooth="yes"/>
      <point x="763.0" y="-27.5"/>
      <point x="883.0" y="16.5"/>
      <point x="958.0" y="61.5" type="curve"/>
      <point x="977.0" y="242.5" type="line"/>
      <point x="890.0" y="189.5"/>
      <point x="783.0" y="146.0"/>
      <point x="636.5" y="146.0" type="curve" smooth="yes"/>
      <point x="414.0" y="146.0"/>
      <point x="302.0" y="255.5"/>
      <point x="302.0" y="450.0" type="curve" smooth="yes"/>
      <point x="302.0" y="524.5" type="line" smooth="yes"/>
      <point x="302.0" y="720.0"/>
      <point x="412.0" y="826.5"/>
      <point x="632.5" y="826.5" type="curve" smooth="yes"/>
      <point x="779.0" y="826.5"/>
      <point x="885.5" y="783.0"/>
      <point x="966.5" y="730.5" type="curve"/>
      <point x="947.5" y="909.5" type="line"/>
      <point x="876.0" y="952.5"/>
      <point x="758.5" y="997.0"/>
      <point x="601.5" y="997.0" type="curve" smooth="yes"/>
      <point x="265.5" y="997.0"/>
      <point x="93.5" y="827.5"/>
      <point x="93.5" y="527.0" type="curve" smooth="yes"/>
      <point x="93.5" y="447.0" type="line" smooth="yes"/>
      <point x="93.5" y="143.5"/>
      <point x="265.0" y="-27.5"/>
    </contour>
  </outline>
</glyph>
<glyph name="d" format="2">
  <advance width="1275.0"/>
  <unicode hex="0064"/>
  <anchor x="633.5" y="0.0" name="bottom"/>
  <anchor x="633.5" y="484.5" name="center"/>
  <anchor x="633.5" y="1321.5" name="top"/>
  <anchor x="1289.5" y="1321.5" name="topright"/>
  <outline>
    <contour>
      <point x="534.5" y="-25.5" type="curve" smooth="yes"/>
      <point x="773.0" y="-25.5"/>
      <point x="885.0" y="88.0"/>
      <point x="923.5" y="222.5" type="curve"/>
      <point x="987.0" y="222.5" type="line"/>
      <point x="937.0" y="377.0" type="line"/>
      <point x="903.0" y="245.0"/>
      <point x="779.0" y="145.0"/>
      <point x="603.5" y="145.0" type="curve" smooth="yes"/>
      <point x="412.0" y="145.0"/>
      <point x="303.5" y="245.5"/>
      <point x="303.5" y="434.0" type="curve" smooth="yes"/>
      <point x="303.5" y="537.0" type="line" smooth="yes"/>
      <point x="303.5" y="727.5"/>
      <point x="413.0" y="827.5"/>
      <point x="603.5" y="827.5" type="curve" smooth="yes"/>
      <point x="791.0" y="827.5"/>
      <point x="922.5" y="731.5"/>
      <point x="931.5" y="540.5" type="curve"/>
      <point x="990.5" y="745.5" type="line"/>
      <point x="921.5" y="745.5" type="line"/>
      <point x="879.5" y="898.0"/>
      <point x="753.0" y="993.5"/>
      <point x="540.5" y="993.5" type="curve" smooth="yes"/>
      <point x="257.5" y="993.5"/>
      <point x="95.0" y="831.0"/>
      <point x="95.0" y="526.5" type="curve" smooth="yes"/>
      <point x="95.0" y="439.0" type="line" smooth="yes"/>
      <point x="95.0" y="136.0"/>
      <point x="254.0" y="-25.5"/>
    </contour>
    <contour>
      <point x="926.0" y="0.0" type="line"/>
      <point x="1133.0" y="0.0" type="line"/>
      <point x="1133.0" y="1321.5" type="line"/>
      <point x="927.5" y="1321.5" type="line"/>
      <point x="927.5" y="984.5" type="line"/>
      <point x="932.5" y="704.0" type="line"/>
      <point x="931.5" y="661.0" type="line"/>
      <point x="931.5" y="318.5" type="line"/>
      <point x="934.5" y="254.0" type="line"/>
    </contour>
  </outline>
</glyph>
<glyph name="e" format="2">
  <advance width="1175.5"/>
  <unicode hex="0065"/>
  <anchor x="600.0" y="0.0" name="bottom"/>
  <anchor x="959.0" y="6.5" name="ogonek"/>
  <anchor x="598.0" y="968.0" name="top"/>
  <outline>
    <contour>
      <point x="633.0" y="-27.5" type="curve" smooth="yes"/>
      <point x="804.5" y="-27.5"/>
      <point x="943.5" y="11.5"/>
      <point x="1049.5" y="73.5" type="curve"/>
      <point x="1070.5" y="248.0" type="line"/>
      <point x="950.5" y="183.5"/>
      <point x="817.5" y="144.0"/>
      <point x="666.5" y="144.0" type="curve" smooth="yes"/>
      <point x="394.5" y="144.0"/>
      <point x="299.5" y="256.5"/>
      <point x="299.5" y="415.5" type="curve" smooth="yes"/>
      <point x="299.5" y="477.5" type="line"/>
      <point x="299.0" y="500.5" type="line"/>
      <point x="299.0" y="554.5" type="line" smooth="yes"/>
      <point x="299.0" y="729.0"/>
      <point x="395.5" y="832.0"/>
      <point x="591.5" y="832.0" type="curve" smooth="yes"/>
      <point x="790.0" y="832.0"/>
      <point x="890.5" y="732.5"/>
      <point x="890.5" y="560.0" type="curve" smooth="yes"/>
      <point x="890.5" y="514.5"/>
      <point x="889.0" y="460.0"/>
      <point x="885.5" y="407.5" type="curve"/>
      <point x="1077.5" y="407.5" type="line"/>
      <point x="1084.0" y="444.0"/>
      <point x="1088.5" y="488.0"/>
      <point x="1088.5" y="530.0" type="curve" smooth="yes"/>
      <point x="1088.5" y="551.5" type="line" smooth="yes"/>
      <point x="1088.5" y="822.0"/>
      <point x="921.5" y="997.0"/>
      <point x="591.5" y="997.0" type="curve" smooth="yes"/>
      <point x="268.5" y="997.0"/>
      <point x="93.5" y="826.0"/>
      <point x="93.5" y="530.5" type="curve" smooth="yes"/>
      <point x="93.5" y="439.0" type="line" smooth="yes"/>
      <point x="93.5" y="139.0"/>
      <point x="273.0" y="-27.5"/>
    </contour>
    <contour>
      <point x="195.0" y="407.5" type="line"/>
      <point x="1037.0" y="407.5" type="line"/>
      <point x="1037.0" y="562.0" type="line"/>
      <point x="195.0" y="562.0" type="line"/>
    </contour>
  </outline>
</glyph>
<glyph name="f" format="2">
  <advance width="874.5"/>
  <unicode hex="0066"/>
  <anchor x="440.0" y="0.0" name="bottom"/>
  <anchor x="440.0" y="1302.0" name="top"/>
  <outline>
    <contour>
      <point x="532.5" y="1351.0" type="curve" smooth="yes"/>
      <point x="272.5" y="1351.0"/>
      <point x="159.5" y="1250.0"/>
      <point x="159.5" y="1101.0" type="curve" smooth="yes"/>
      <point x="159.5" y="1097.0" type="line" smooth="yes"/>
      <point x="159.5" y="1012.5"/>
      <point x="201.5" y="956.0"/>
      <point x="254.5" y="924.5" type="curve"/>
      <point x="254.5" y="901.5" type="line"/>
      <point x="390.0" y="906.5" type="line"/>
      <point x="375.0" y="936.5"/>
      <point x="361.0" y="974.5"/>
      <point x="361.0" y="1019.0" type="curve" smooth="yes"/>
      <point x="361.0" y="1023.0" type="line" smooth="yes"/>
      <point x="361.0" y="1120.0"/>
      <point x="415.5" y="1181.5"/>
      <point x="589.0" y="1181.5" type="curve" smooth="yes"/>
      <point x="690.0" y="1181.5"/>
      <point x="767.5" y="1164.5"/>
      <point x="846.5" y="1139.0" type="curve"/>
      <point x="825.0" y="1299.5" type="line"/>
      <point x="743.5" y="1330.0"/>
      <point x="649.0" y="1351.0"/>
    </contour>
    <contour>
      <point x="195.5" y="0.0" type="line"/>
      <point x="401.0" y="0.0" type="line"/>
      <point x="401.0" y="855.5" type="line"/>
      <point x="195.5" y="855.5" type="line"/>
    </contour>
    <contour>
      <point x="16.5" y="754.5" type="line"/>
      <point x="821.5" y="754.5" type="line"/>
      <point x="841.0" y="917.0" type="line"/>
      <point x="358.0" y="917.0" type="line"/>
      <point x="279.0" y="915.5" type="line"/>
      <point x="16.5" y="917.0" type="line"/>
    </contour>
  </outline>
</glyph>
<glyph name="g" format="2">
  <advance width="1205.0"/>
  <unicode hex="0067"/>
  <anchor x="601.5" y="-343.5" name="bottom"/>
  <anchor x="601.0" y="970.0" name="top"/>
  <outline>
    <contour>
      <point x="602.0" y="313.5" type="curve"/>
      <point x="924.5" y="313.5"/>
      <point x="1086.0" y="417.5"/>
      <point x="1086.0" y="617.0" type="curve" smooth="yes"/>
      <point x="1086.0" y="626.0" type="line" smooth="yes"/>
      <point x="1086.0" y="744.0"/>
      <point x="1022.0" y="819.0"/>
      <point x="892.0" y="847.5" type="curve"/>
      <point x="892.0" y="858.0" type="line"/>
      <point x="1191.0" y="849.0" type="line"/>
      <point x="1191.0" y="1008.5" type="line"/>
      <point x="572.0" y="987.0" type="line" smooth="yes"/>
      <point x="248.0" y="976.0"/>
      <point x="103.5" y="864.5"/>
      <point x="103.5" y="656.0" type="curve" smooth="yes"/>
      <point x="103.5" y="644.0" type="line" smooth="yes"/>
      <point x="103.5" y="432.5"/>
      <point x="274.5" y="313.5"/>
    </contour>
    <contour>
      <point x="593.5" y="-218.5" type="line" smooth="yes"/>
      <point x="389.5" y="-218.5"/>
      <point x="269.0" y="-185.0"/>
      <point x="269.0" y="-85.5" type="curve" smooth="yes"/>
      <point x="269.0" y="-83.5" type="line" smooth="yes"/>
      <point x="269.0" y="1.5"/>
      <point x="351.0" y="38.0"/>
      <point x="462.0" y="52.0" type="curve"/>
      <point x="400.5" y="47.5" type="line"/>
      <point x="752.5" y="21.5" type="line" smooth="yes"/>
      <point x="886.5" y="11.5"/>
      <point x="940.0" y="-19.0"/>
      <point x="940.0" y="-89.5" type="curve" smooth="yes"/>
      <point x="940.0" y="-93.0" type="line" smooth="yes"/>
      <point x="940.0" y="-186.0"/>
      <point x="819.5" y="-218.5"/>
      <point x="615.0" y="-218.5" type="curve" smooth="yes"/>
    </contour>
    <contour>
      <point x="579.5" y="-381.5" type="curve" smooth="yes"/>
      <point x="612.0" y="-381.5" type="line" smooth="yes"/>
      <point x="937.0" y="-381.5"/>
      <point x="1138.5" y="-303.5"/>
      <point x="1138.5" y="-98.5" type="curve" smooth="yes"/>
      <point x="1138.5" y="-94.5" type="line" smooth="yes"/>
      <point x="1138.5" y="79.0"/>
      <point x="1028.5" y="153.5"/>
      <point x="788.0" y="174.0" type="curve" smooth="yes"/>
      <point x="501.5" y="198.0" type="line" smooth="yes"/>
      <point x="370.5" y="209.0"/>
      <point x="324.5" y="226.5"/>
      <point x="324.5" y="268.5" type="curve" smooth="yes"/>
      <point x="324.5" y="269.5" type="line" smooth="yes"/>
      <point x="324.5" y="306.0"/>
      <point x="356.0" y="325.5"/>
      <point x="447.0" y="327.5" type="curve"/>
      <point x="531.0" y="324.5" type="line"/>
      <point x="295.0" y="380.5" type="line"/>
      <point x="295.0" y="354.5" type="line"/>
      <point x="183.5" y="344.0"/>
      <point x="132.0" y="297.5"/>
      <point x="132.0" y="216.5" type="curve" smooth="yes"/>
      <point x="132.0" y="215.5" type="line" smooth="yes"/>
      <point x="132.0" y="139.5"/>
      <point x="184.0" y="92.5"/>
      <point x="279.0" y="74.5" type="curve"/>
      <point x="279.0" y="64.5" type="line"/>
      <point x="162.5" y="49.0"/>
      <point x="73.0" y="-14.0"/>
      <point x="73.0" y="-130.0" type="curve" smooth="yes"/>
      <point x="73.0" y="-133.5" type="line" smooth="yes"/>
      <point x="73.0" y="-316.5"/>
      <point x="265.0" y="-381.5"/>
    </contour>
    <contour>
      <point x="598.5" y="463.5" type="curve" smooth="yes"/>
      <point x="393.0" y="463.5"/>
      <point x="303.5" y="530.5"/>
      <point x="303.5" y="648.5" type="curve" smooth="yes"/>
      <point x="303.5" y="660.0" type="line" smooth="yes"/>
      <point x="303.5" y="772.0"/>
      <point x="388.0" y="841.0"/>
      <point x="597.0" y="841.0" type="curve" smooth="yes"/>
      <point x="604.0" y="841.0" type="line" smooth="yes"/>
      <point x="802.5" y="841.0"/>
      <point x="891.5" y="773.5"/>
      <point x="891.5" y="659.5" type="curve" smooth="yes"/>
      <point x="891.5" y="647.5" type="line" smooth="yes"/>
      <point x="891.5" y="528.5"/>
      <point x="802.0" y="463.5"/>
    </contour>
  </outline>
</glyph>
<glyph name="h" format="2">
  <advance width="1246.5"/>
  <unicode hex="0068"/>
  <anchor x="624.0" y="0.0" name="bottom"/>
  <anchor x="624.0" y="651.5" name="center"/>
  <anchor x="245.0" y="1321.5" name="top"/>
  <outline>
    <contour>
      <point x="911.5" y="0.0" type="line"/>
      <point x="1118.5" y="0.0" type="line"/>
      <point x="1118.5" y="575.5" type="line" smooth="yes"/>
      <point x="1118.5" y="842.0"/>
      <point x="1007.5" y="993.5"/>
      <point x="734.5" y="993.5" type="curve" smooth="yes"/>
      <point x="512.0" y="993.5"/>
      <point x="392.5" y="880.0"/>
      <point x="353.5" y="745.5" type="curve"/>
      <point x="306.5" y="745.5" type="line"/>
      <point x="342.5" y="595.0" type="line"/>
      <point x="375.5" y="722.5"/>
      <point x="480.5" y="822.0"/>
      <point x="658.0" y="822.0" type="curve" smooth="yes"/>
      <point x="847.5" y="822.0"/>
      <point x="911.5" y="712.0"/>
      <point x="911.5" y="553.5" type="curve" smooth="yes"/>
    </contour>
    <contour>
      <point x="142.0" y="0.0" type="line"/>
      <point x="349.0" y="0.0" type="line"/>
      <point x="349.0" y="684.0" type="line"/>
      <point x="342.5" y="696.0" type="line"/>
      <point x="347.5" y="985.0" type="line"/>
      <point x="347.5" y="1321.5" type="line"/>
      <point x="142.0" y="1321.5" type="line"/>
    </contour>
  </outline>
</glyph>
<glyph name="i" format="2">
  <advance width="495.5"/>
  <unicode hex="0069"/>
  <anchor x="248.0" y="0.0" name="bottom"/>
  <anchor x="392.0" y="2.5" name="ogonek"/>
  <outline>
    <contour>
      <point x="144.5" y="0.0" type="line"/>
      <point x="351.0" y="0.0" type="line"/>
      <point x="351.0" y="968.0" type="line"/>
      <point x="144.5" y="968.0" type="line"/>
    </contour>
    <contour>
      <point x="247.5" y="1123.0" type="curve" smooth="yes"/>
      <point x="331.5" y="1123.0"/>
      <point x="372.0" y="1163.5"/>
      <point x="372.0" y="1234.0" type="curve" smooth="yes"/>
      <point x="372.0" y="1238.0" type="line" smooth="yes"/>
      <point x="372.0" y="1306.5"/>
      <point x="331.5" y="1348.5"/>
      <point x="247.5" y="1348.5" type="curve" smooth="yes"/>
      <point x="163.5" y="1348.5"/>
      <point x="124.0" y="1306.5"/>
      <point x="124.0" y="1238.0" type="curve" smooth="yes"/>
      <point x="124.0" y="1234.0" type="line" smooth="yes"/>
      <point x="124.0" y="1164.5"/>
      <point x="163.5" y="1123.0"/>
    </contour>
  </outline>
</glyph>
<glyph name="j" format="2">
  <advance width="531.0"/>
  <unicode hex="006A"/>
  <outline>
    <contour>
      <point x="180.0" y="171.0" type="line"/>
      <point x="386.5" y="171.0" type="line"/>
      <point x="386.5" y="968.0" type="line"/>
      <point x="180.0" y="968.0" type="line"/>
    </contour>
    <contour>
      <point x="283.0" y="1113.0" type="curve" smooth="yes"/>
      <point x="367.0" y="1113.0"/>
      <point x="407.5" y="1153.5"/>
      <point x="407.5" y="1224.0" type="curve" smooth="yes"/>
      <point x="407.5" y="1228.0" type="line" smooth="yes"/>
      <point x="407.5" y="1296.5"/>
      <point x="367.0" y="1338.5"/>
      <point x="283.0" y="1338.5" type="curve" smooth="yes"/>
      <point x="199.0" y="1338.5"/>
      <point x="159.5" y="1296.5"/>
      <point x="159.5" y="1228.0" type="curve" smooth="yes"/>
      <point x="159.5" y="1224.0" type="line" smooth="yes"/>
      <point x="159.5" y="1154.5"/>
      <point x="199.0" y="1113.0"/>
    </contour>
    <component base="jbottom"/>
  </outline>
</glyph>
<glyph name="k" format="2">
  <advance width="1170.0"/>
  <unicode hex="006B"/>
  <anchor x="595.0" y="0.0" name="bottom"/>
  <anchor x="592.5" y="1321.5" name="top"/>
  <outline>
    <contour>
      <point x="880.5" y="0.0" type="line"/>
      <point x="1145.5" y="0.0" type="line"/>
      <point x="603.5" y="543.0" type="line"/>
      <point x="603.5" y="499.0" type="line"/>
      <point x="1125.5" y="968.0" type="line"/>
      <point x="865.5" y="968.0" type="line"/>
      <point x="449.5" y="596.0" type="line"/>
      <point x="319.5" y="596.0" type="line"/>
      <point x="319.5" y="430.5" type="line"/>
      <point x="448.0" y="430.5" type="line"/>
    </contour>
    <contour>
      <point x="142.0" y="0.0" type="line"/>
      <point x="348.5" y="0.0" type="line"/>
      <point x="348.5" y="1321.5" type="line"/>
      <point x="142.0" y="1321.5" type="line"/>
    </contour>
  </outline>
</glyph>
<glyph name="l" format="2">
  <advance width="497.0"/>
  <unicode hex="006C"/>
  <anchor x="249.0" y="0.0" name="bottom"/>
  <anchor x="249.0" y="651.5" name="center"/>
  <anchor x="249.0" y="1321.5" name="top"/>
  <anchor x="509.0" y="1321.5" name="topright"/>
  <outline>
    <contour>
      <point x="145.0" y="0.0" type="line"/>
      <point x="352.0" y="0.0" type="line"/>
      <point x="352.0" y="1321.5" type="line"/>
      <point x="145.0" y="1321.5" type="line"/>
    </contour>
  </outline>
</glyph>
<glyph name="m" format="2">
  <advance width="1913.5"/>
  <unicode hex="006D"/>
  <anchor x="956.5" y="0.0" name="bottom"/>
  <anchor x="956.5" y="968.0" name="top"/>
  <outline>
    <contour>
      <point x="1578.5" y="0.0" type="line"/>
      <point x="1785.5" y="0.0" type="line"/>
      <point x="1785.5" y="578.0" type="line" smooth="yes"/>
      <point x="1785.5" y="843.0"/>
      <point x="1682.0" y="993.5"/>
      <point x="1427.0" y="993.5" type="curve" smooth="yes"/>
      <point x="1204.0" y="993.5"/>
      <point x="1099.5" y="877.5"/>
      <point x="1056.0" y="745.5" type="curve"/>
      <point x="1031.5" y="745.5" type="line"/>
      <point x="1059.0" y="597.0" type="line"/>
      <point x="1089.5" y="723.5"/>
      <point x="1186.0" y="822.0"/>
      <point x="1349.5" y="822.0" type="curve" smooth="yes"/>
      <point x="1521.0" y="822.0"/>
      <point x="1578.5" y="713.0"/>
      <point x="1578.5" y="556.0" type="curve" smooth="yes"/>
    </contour>
    <contour>
      <point x="142.0" y="0.0" type="line"/>
      <point x="349.0" y="0.0" type="line"/>
      <point x="349.0" y="692.5" type="line"/>
      <point x="340.5" y="714.0" type="line"/>
      <point x="349.0" y="968.0" type="line"/>
      <point x="142.0" y="968.0" type="line"/>
    </contour>
    <contour>
      <point x="860.5" y="0.0" type="line"/>
      <point x="1067.0" y="0.0" type="line"/>
      <point x="1067.0" y="591.5" type="line" smooth="yes"/>
      <point x="1067.0" y="622.0"/>
      <point x="1063.0" y="661.0"/>
      <point x="1057.0" y="688.0" type="curve"/>
      <point x="1029.0" y="886.0"/>
      <point x="922.5" y="993.5"/>
      <point x="708.5" y="993.5" type="curve" smooth="yes"/>
      <point x="498.0" y="993.5"/>
      <point x="389.0" y="880.0"/>
      <point x="352.0" y="745.5" type="curve"/>
      <point x="314.0" y="745.5" type="line"/>
      <point x="341.0" y="595.0" type="line"/>
      <point x="371.5" y="722.5"/>
      <point x="468.0" y="822.0"/>
      <point x="631.5" y="822.0" type="curve" smooth="yes"/>
      <point x="803.0" y="822.0"/>
      <point x="860.5" y="713.0"/>
      <point x="860.5" y="556.0" type="curve" smooth="yes"/>
    </contour>
  </outline>
</glyph>
<glyph name="n" format="2">
  <advance width="1246.5"/>
  <unicode hex="006E"/>
  <anchor x="624.0" y="0.0" name="bottom"/>
  <anchor x="624.0" y="968.0" name="top"/>
  <outline>
    <contour>
      <point x="911.5" y="0.0" type="line"/>
      <point x="1118.5" y="0.0" type="line"/>
      <point x="1118.5" y="575.5" type="line" smooth="yes"/>
      <point x="1118.5" y="842.0"/>
      <point x="1007.5" y="993.5"/>
      <point x="734.5" y="993.5" type="curve" smooth="yes"/>
      <point x="508.5" y="993.5"/>
      <point x="391.0" y="880.0"/>
      <point x="351.5" y="745.5" type="curve"/>
      <point x="309.5" y="745.5" type="line"/>
      <point x="341.0" y="595.0" type="line"/>
      <point x="374.0" y="722.5"/>
      <point x="479.5" y="822.0"/>
      <point x="657.0" y="822.0" type="curve" smooth="yes"/>
      <point x="847.5" y="822.0"/>
      <point x="911.5" y="712.0"/>
      <point x="911.5" y="553.5" type="curve" smooth="yes"/>
    </contour>
    <contour>
      <point x="142.0" y="0.0" type="line"/>
      <point x="349.0" y="0.0" type="line"/>
      <point x="349.0" y="694.5" type="line"/>
      <point x="340.5" y="714.0" type="line"/>
      <point x="349.0" y="968.0" type="line"/>
      <point x="142.0" y="968.0" type="line"/>
    </contour>
  </outline>
</glyph>
<glyph name="o" format="2">
  <advance width="1230.0"/>
  <unicode hex="006F"/>
  <anchor x="615.5" y="0.0" name="bottom"/>
  <anchor x="618.0" y="439.5" name="center"/>
  <anchor x="894.5" y="5.0" name="ogonek"/>
  <anchor x="615.5" y="968.0" name="top"/>
  <anchor x="1102.0" y="968.0" name="topright"/>
  <outline>
    <contour>
      <point x="615.0" y="-27.5" type="curve" smooth="yes"/>
      <point x="955.0" y="-27.5"/>
      <point x="1136.5" y="139.5"/>
      <point x="1136.5" y="444.5" type="curve"/>
      <point x="1136.5" y="526.5" type="line"/>
      <point x="1136.5" y="830.0"/>
      <point x="955.0" y="997.0"/>
      <point x="615.0" y="997.0" type="curve" smooth="yes"/>
      <point x="275.5" y="997.0"/>
      <point x="93.5" y="830.0"/>
      <point x="93.5" y="526.5" type="curve"/>
      <point x="93.5" y="444.5" type="line"/>
      <point x="93.5" y="140.0"/>
      <point x="275.0" y="-27.5"/>
    </contour>
    <contour>
      <point x="615.0" y="138.5" type="curve" smooth="yes"/>
      <point x="412.5" y="138.5"/>
      <point x="301.5" y="245.0"/>
      <point x="301.5" y="438.5" type="curve" smooth="yes"/>
      <point x="301.5" y="532.5" type="line" smooth="yes"/>
      <point x="301.5" y="725.0"/>
      <point x="412.5" y="831.0"/>
      <point x="615.0" y="831.0" type="curve" smooth="yes"/>
      <point x="818.5" y="831.0"/>
      <point x="929.0" y="725.0"/>
      <point x="929.0" y="532.5" type="curve" smooth="yes"/>
      <point x="929.0" y="438.5" type="line" smooth="yes"/>
      <point x="929.0" y="245.0"/>
      <point x="818.0" y="138.5"/>
    </contour>
  </outline>
</glyph>
<glyph name="p" format="2">
  <advance width="1275.0"/>
  <unicode hex="0070"/>
  <anchor x="642.0" y="0.0" name="bottom"/>
  <anchor x="642.0" y="968.0" name="top"/>
  <outline>
    <contour>
      <point x="734.5" y="-25.5" type="curve" smooth="yes"/>
      <point x="1017.5" y="-25.5"/>
      <point x="1180.0" y="137.0"/>
      <point x="1180.0" y="442.0" type="curve" smooth="yes"/>
      <point x="1180.0" y="529.5" type="line" smooth="yes"/>
      <point x="1180.0" y="832.0"/>
      <point x="1021.0" y="993.5"/>
      <point x="739.5" y="993.5" type="curve" smooth="yes"/>
      <point x="502.5" y="993.5"/>
      <point x="390.0" y="880.0"/>
      <point x="351.5" y="745.5" type="curve"/>
      <point x="288.0" y="745.5" type="line"/>
      <point x="338.0" y="593.5" type="line"/>
      <point x="372.0" y="726.5"/>
      <point x="496.0" y="827.5"/>
      <point x="671.5" y="827.5" type="curve" smooth="yes"/>
      <point x="863.0" y="827.5"/>
      <point x="971.5" y="727.5"/>
      <point x="971.5" y="539.5" type="curve" smooth="yes"/>
      <point x="971.5" y="436.5" type="line" smooth="yes"/>
      <point x="971.5" y="246.0"/>
      <point x="862.0" y="146.0"/>
      <point x="672.5" y="146.0" type="curve" smooth="yes"/>
      <point x="491.0" y="146.0"/>
      <point x="352.5" y="235.0"/>
      <point x="343.5" y="428.0" type="curve"/>
      <point x="284.5" y="222.5" type="line"/>
      <point x="353.5" y="222.5" type="line"/>
      <point x="395.5" y="70.0"/>
      <point x="522.5" y="-25.5"/>
    </contour>
    <contour>
      <point x="142.0" y="-341.0" type="line"/>
      <point x="347.5" y="-341.0" type="line"/>
      <point x="347.5" y="-16.0" type="line"/>
      <point x="342.5" y="264.0" type="line"/>
      <point x="343.5" y="314.0" type="line"/>
      <point x="343.5" y="641.5" type="line"/>
      <point x="340.5" y="714.0" type="line"/>
      <point x="349.0" y="968.0" type="line"/>
      <point x="142.0" y="968.0" type="line"/>
    </contour>
  </outline>
</glyph>
<glyph name="q" format="2">
  <advance width="1275.0"/>
  <unicode hex="0071"/>
  <anchor x="633.5" y="0.0" name="bottom"/>
  <anchor x="633.5" y="968.0" name="top"/>
  <outline>
    <contour>
      <point x="534.5" y="-25.5" type="curve" smooth="yes"/>
      <point x="772.0" y="-25.5"/>
      <point x="883.0" y="88.0"/>
      <point x="921.5" y="222.5" type="curve"/>
      <point x="985.5" y="222.5" type="line"/>
      <point x="937.0" y="378.0" type="line"/>
      <point x="903.0" y="246.0"/>
      <point x="779.0" y="146.0"/>
      <point x="603.0" y="146.0" type="curve" smooth="yes"/>
      <point x="412.0" y="146.0"/>
      <point x="303.5" y="246.0"/>
      <point x="303.5" y="434.5" type="curve" smooth="yes"/>
      <point x="303.5" y="535.5" type="line" smooth="yes"/>
      <point x="303.5" y="727.5"/>
      <point x="412.5" y="827.5"/>
      <point x="602.0" y="827.5" type="curve" smooth="yes"/>
      <point x="788.5" y="827.5"/>
      <point x="922.0" y="735.0"/>
      <point x="931.5" y="545.5" type="curve"/>
      <point x="991.5" y="745.0" type="line"/>
      <point x="923.5" y="745.0" type="line"/>
      <point x="881.5" y="898.0"/>
      <point x="754.0" y="993.5"/>
      <point x="540.5" y="993.5" type="curve" smooth="yes"/>
      <point x="258.5" y="993.5"/>
      <point x="95.0" y="831.0"/>
      <point x="95.0" y="526.5" type="curve" smooth="yes"/>
      <point x="95.0" y="439.0" type="line" smooth="yes"/>
      <point x="95.0" y="136.0"/>
      <point x="254.0" y="-25.5"/>
    </contour>
    <contour>
      <point x="927.5" y="-341.0" type="line"/>
      <point x="1133.0" y="-341.0" type="line"/>
      <point x="1133.0" y="968.0" type="line"/>
      <point x="926.0" y="968.0" type="line"/>
      <point x="934.5" y="713.5" type="line"/>
      <point x="931.5" y="641.5" type="line"/>
      <point x="931.5" y="316.0" type="line"/>
      <point x="932.5" y="266.0" type="line"/>
      <point x="927.5" y="-16.0" type="line"/>
    </contour>
  </outline>
</glyph>
<glyph name="r" format="2">
  <advance width="883.0"/>
  <unicode hex="0072"/>
  <anchor x="246.0" y="0.0" name="bottom"/>
  <anchor x="469.5" y="968.0" name="top"/>
  <outline>
    <contour>
      <point x="340.5" y="556.5" type="line"/>
      <point x="399.5" y="709.0"/>
      <point x="528.0" y="792.5"/>
      <point x="697.5" y="792.5" type="curve" smooth="yes"/>
      <point x="757.0" y="792.5"/>
      <point x="809.5" y="782.5"/>
      <point x="851.0" y="769.0" type="curve"/>
      <point x="836.0" y="964.5" type="line"/>
      <point x="803.0" y="976.0"/>
      <point x="762.0" y="986.0"/>
      <point x="707.0" y="986.0" type="curve" smooth="yes"/>
      <point x="515.5" y="986.0"/>
      <point x="397.0" y="881.5"/>
      <point x="349.0" y="711.0" type="curve"/>
      <point x="300.5" y="711.0" type="line"/>
    </contour>
    <contour>
      <point x="142.0" y="0.0" type="line"/>
      <point x="349.0" y="0.0" type="line"/>
      <point x="349.0" y="650.0" type="line"/>
      <point x="337.5" y="662.0" type="line"/>
      <point x="346.5" y="968.0" type="line"/>
      <point x="142.0" y="968.0" type="line"/>
    </contour>
  </outline>
</glyph>
<glyph name="s" format="2">
  <advance width="1055.5"/>
  <unicode hex="0073"/>
  <anchor x="527.5" y="0.0" name="bottom"/>
  <anchor x="527.0" y="968.0" name="top"/>
  <outline>
    <contour>
      <point x="534.5" y="-27.5" type="curve" smooth="yes"/>
      <point x="834.0" y="-27.5"/>
      <point x="985.5" y="67.0"/>
      <point x="985.5" y="269.0" type="curve" smooth="yes"/>
      <point x="985.5" y="276.5" type="line" smooth="yes"/>
      <point x="985.5" y="467.5"/>
      <point x="872.5" y="529.5"/>
      <point x="564.5" y="571.0" type="curve" smooth="yes"/>
      <point x="334.5" y="602.0"/>
      <point x="280.5" y="635.5"/>
      <point x="280.5" y="714.5" type="curve" smooth="yes"/>
      <point x="280.5" y="718.0" type="line" smooth="yes"/>
      <point x="280.5" y="787.5"/>
      <point x="341.0" y="829.5"/>
      <point x="517.5" y="829.5" type="curve" smooth="yes"/>
      <point x="690.0" y="829.5"/>
      <point x="831.5" y="788.5"/>
      <point x="940.5" y="735.0" type="curve"/>
      <point x="919.5" y="907.0" type="line"/>
      <point x="828.0" y="954.0"/>
      <point x="687.0" y="996.5"/>
      <point x="498.5" y="996.5" type="curve" smooth="yes"/>
      <point x="216.5" y="996.5"/>
      <point x="77.0" y="904.0"/>
      <point x="77.0" y="721.0" type="curve" smooth="yes"/>
      <point x="77.0" y="715.5" type="line" smooth="yes"/>
      <point x="77.0" y="544.5"/>
      <point x="174.0" y="461.5"/>
      <point x="481.5" y="420.0" type="curve" smooth="yes"/>
      <point x="712.5" y="388.0"/>
      <point x="781.0" y="359.5"/>
      <point x="781.0" y="274.5" type="curve" smooth="yes"/>
      <point x="781.0" y="270.5" type="line" smooth="yes"/>
      <point x="781.0" y="183.5"/>
      <point x="696.0" y="144.0"/>
      <point x="523.5" y="144.0" type="curve" smooth="yes"/>
      <point x="339.0" y="144.0"/>
      <point x="194.0" y="192.5"/>
      <point x="76.5" y="249.5" type="curve"/>
      <point x="97.5" y="61.0" type="line"/>
      <point x="195.5" y="16.5"/>
      <point x="339.0" y="-27.5"/>
    </contour>
  </outline>
</glyph>
<glyph name="t" format="2">
  <advance width="938.5"/>
  <unicode hex="0074"/>
  <anchor x="521.5" y="0.0" name="bottom"/>
  <anchor x="472.0" y="484.5" name="center"/>
  <anchor x="295.0" y="1206.0" name="top"/>
  <anchor x="685.5" y="1417.0" name="topright"/>
  <outline>
    <contour>
      <point x="564.0" y="-23.5" type="curve" smooth="yes"/>
      <point x="679.0" y="-23.5"/>
      <point x="784.0" y="-2.0"/>
      <point x="862.0" y="35.0" type="curve"/>
      <point x="881.5" y="210.5" type="line"/>
      <point x="805.0" y="173.5"/>
      <point x="712.0" y="152.0"/>
      <point x="615.0" y="152.0" type="curve" smooth="yes"/>
      <point x="452.5" y="152.0"/>
      <point x="393.5" y="217.5"/>
      <point x="393.5" y="359.5" type="curve" smooth="yes"/>
      <point x="393.5" y="868.5" type="line"/>
      <point x="188.5" y="868.5" type="line"/>
      <point x="188.5" y="336.5" type="line" smooth="yes"/>
      <point x="188.5" y="96.0"/>
      <point x="288.0" y="-23.5"/>
    </contour>
    <contour>
      <point x="10.0" y="792.0" type="line"/>
      <point x="856.0" y="792.0" type="line"/>
      <point x="876.0" y="954.0" type="line"/>
      <point x="10.0" y="954.0" type="line"/>
    </contour>
    <contour>
      <point x="191.0" y="935.5" type="line"/>
      <point x="388.0" y="935.5" type="line"/>
      <point x="396.0" y="1236.0" type="line"/>
      <point x="190.0" y="1214.0" type="line"/>
    </contour>
  </outline>
</glyph>
<glyph name="u" format="2">
  <advance width="1246.5"/>
  <unicode hex="0075"/>
  <anchor x="624.0" y="0.0" name="bottom"/>
  <anchor x="1145.5" y="2.5" name="ogonek"/>
  <anchor x="624.0" y="968.0" name="top"/>
  <anchor x="1228.0" y="968.0" name="topright"/>
  <outline>
    <contour>
      <point x="335.0" y="968.0" type="line"/>
      <point x="128.0" y="968.0" type="line"/>
      <point x="128.0" y="392.5" type="line" smooth="yes"/>
      <point x="128.0" y="126.0"/>
      <point x="239.0" y="-25.5"/>
      <point x="512.0" y="-25.5" type="curve" smooth="yes"/>
      <point x="738.0" y="-25.5"/>
      <point x="855.5" y="88.0"/>
      <point x="895.0" y="222.5" type="curve"/>
      <point x="937.0" y="222.5" type="line"/>
      <point x="905.5" y="373.0" type="line"/>
      <point x="872.5" y="245.5"/>
      <point x="767.0" y="146.0"/>
      <point x="589.5" y="146.0" type="curve" smooth="yes"/>
      <point x="399.0" y="146.0"/>
      <point x="335.0" y="256.0"/>
      <point x="335.0" y="414.5" type="curve" smooth="yes"/>
    </contour>
    <contour>
      <point x="1104.5" y="968.0" type="line"/>
      <point x="897.5" y="968.0" type="line"/>
      <point x="897.5" y="273.5" type="line"/>
      <point x="906.0" y="254.0" type="line"/>
      <point x="897.5" y="0.0" type="line"/>
      <point x="1104.5" y="0.0" type="line"/>
    </contour>
  </outline>
</glyph>
<glyph name="v" format="2">
  <advance width="1157.0"/>
  <unicode hex="0076"/>
  <anchor x="579.0" y="0.0" name="bottom"/>
  <anchor x="579.0" y="968.0" name="top"/>
  <outline>
    <contour>
      <point x="593.5" y="141.5" type="line"/>
      <point x="566.0" y="141.5" type="line"/>
      <point x="256.0" y="968.0" type="line"/>
      <point x="37.5" y="968.0" type="line"/>
      <point x="414.5" y="0.0" type="line"/>
      <point x="744.5" y="0.0" type="line"/>
      <point x="1119.5" y="968.0" type="line"/>
      <point x="902.0" y="968.0" type="line"/>
    </contour>
  </outline>
</glyph>
<glyph name="w" format="2">
  <advance width="1735.0"/>
  <unicode hex="0077"/>
  <anchor x="868.0" y="0.0" name="bottom"/>
  <anchor x="868.0" y="968.0" name="top"/>
  <outline>
    <contour>
      <point x="336.0" y="0.0" type="line"/>
      <point x="644.5" y="0.0" type="line"/>
      <point x="811.5" y="618.0" type="line"/>
      <point x="859.5" y="792.5" type="line"/>
      <point x="875.5" y="792.5" type="line"/>
      <point x="924.5" y="618.0" type="line"/>
      <point x="1091.5" y="0.0" type="line"/>
      <point x="1399.0" y="0.0" type="line"/>
      <point x="1684.0" y="968.0" type="line"/>
      <point x="1468.0" y="968.0" type="line"/>
      <point x="1248.0" y="148.5" type="line"/>
      <point x="1230.0" y="148.5" type="line"/>
      <point x="1010.5" y="941.0" type="line"/>
      <point x="724.0" y="941.0" type="line"/>
      <point x="506.5" y="148.5" type="line"/>
      <point x="487.5" y="148.5" type="line"/>
      <point x="268.0" y="968.0" type="line"/>
      <point x="51.0" y="968.0" type="line"/>
    </contour>
  </outline>
</glyph>
<glyph name="x" format="2">
  <advance width="1155.5"/>
  <unicode hex="0078"/>
  <anchor x="578.0" y="0.0" name="bottom"/>
  <anchor x="578.0" y="968.0" name="top"/>
  <outline>
    <contour>
      <point x="46.5" y="0.0" type="line"/>
      <point x="283.5" y="0.0" type="line"/>
      <point x="569.5" y="399.0" type="line"/>
      <point x="587.0" y="399.0" type="line"/>
      <point x="872.5" y="0.0" type="line"/>
      <point x="1109.0" y="0.0" type="line"/>
      <point x="727.5" y="529.0" type="line"/>
      <point x="727.5" y="477.0" type="line"/>
      <point x="1100.5" y="968.0" type="line"/>
      <point x="864.5" y="968.0" type="line"/>
      <point x="587.0" y="592.5" type="line"/>
      <point x="569.5" y="592.5" type="line"/>
      <point x="291.5" y="968.0" type="line"/>
      <point x="55.5" y="968.0" type="line"/>
      <point x="428.0" y="476.5" type="line"/>
      <point x="428.0" y="529.0" type="line"/>
    </contour>
  </outline>
</glyph>
<glyph name="y" format="2">
  <advance width="1158.5"/>
  <unicode hex="0079"/>
  <anchor x="860.5" y="-28.0" name="bottom"/>
  <anchor x="580.0" y="968.0" name="top"/>
  <outline>
    <contour>
      <point x="676.5" y="179.0" type="line"/>
      <point x="561.0" y="179.0" type="line"/>
      <point x="257.0" y="968.0" type="line"/>
      <point x="37.5" y="968.0" type="line"/>
      <point x="416.0" y="40.0" type="line"/>
      <point x="641.5" y="40.0" type="line"/>
      <point x="555.0" y="124.0" type="line"/>
      <point x="360.0" y="-341.0" type="line"/>
      <point x="575.5" y="-341.0" type="line"/>
      <point x="1121.0" y="968.0" type="line"/>
      <point x="902.5" y="968.0" type="line"/>
      <point x="560.5" y="118.0" type="line"/>
    </contour>
  </outline>
</glyph>
<glyph name="z" format="2">
  <advance width="1074.5"/>
  <unicode hex="007A"/>
  <anchor x="537.5" y="0.0" name="bottom"/>
  <anchor x="538.0" y="484.5" name="center"/>
  <anchor x="537.5" y="968.0" name="top"/>
  <outline>
    <contour>
      <point x="986.0" y="166.5" type="line"/>
      <point x="352.0" y="166.5" type="line"/>
      <point x="980.0" y="815.5" type="line"/>
      <point x="980.0" y="967.5" type="line"/>
      <point x="92.0" y="967.5" type="line"/>
      <point x="92.0" y="801.5" type="line"/>
      <point x="716.0" y="801.5" type="line"/>
      <point x="88.5" y="153.0" type="line"/>
      <point x="88.5" y="0.0" type="line"/>
      <point x="986.0" y="0.0" type="line"/>
    </contour>
  </outline>
</glyph>
<glyph name="braceleft" format="2">
  <advance width="761.0"/>
  <unicode hex="007B"/>
  <outline>
    <contour>
      <point x="696.5" y="1327.0" type="line"/>
      <point x="649.5" y="1341.5"/>
      <point x="584.5" y="1353.0"/>
      <point x="516.5" y="1353.0" type="curve" smooth="yes"/>
      <point x="316.5" y="1353.0"/>
      <point x="226.0" y="1269.0"/>
      <point x="226.0" y="1069.5" type="curve" smooth="yes"/>
      <point x="226.0" y="995.0"/>
      <point x="240.5" y="867.0"/>
      <point x="240.5" y="792.5" type="curve" smooth="yes"/>
      <point x="240.5" y="696.0"/>
      <point x="204.0" y="643.0"/>
      <point x="71.0" y="637.0" type="curve"/>
      <point x="71.0" y="471.0" type="line"/>
      <point x="204.0" y="463.5"/>
      <point x="240.5" y="410.0"/>
      <point x="240.5" y="312.5" type="curve" smooth="yes"/>
      <point x="240.5" y="238.5"/>
      <point x="226.0" y="110.0"/>
      <point x="226.0" y="33.5" type="curve" smooth="yes"/>
      <point x="226.0" y="-166.5"/>
      <point x="316.5" y="-251.5"/>
      <point x="516.5" y="-251.5" type="curve" smooth="yes"/>
      <point x="584.5" y="-251.5"/>
      <point x="649.5" y="-240.0"/>
      <point x="696.5" y="-225.0" type="curve"/>
      <point x="696.5" y="-71.5" type="line"/>
      <point x="663.5" y="-82.5"/>
      <point x="621.5" y="-92.0"/>
      <point x="572.0" y="-92.0" type="curve" smooth="yes"/>
      <point x="464.0" y="-92.0"/>
      <point x="421.0" y="-50.0"/>
      <point x="421.0" y="57.5" type="curve" smooth="yes"/>
      <point x="421.0" y="124.5"/>
      <point x="435.0" y="247.0"/>
      <point x="435.0" y="328.0" type="curve" smooth="yes"/>
      <point x="435.0" y="449.0"/>
      <point x="397.0" y="536.5"/>
      <point x="240.0" y="551.0" type="curve"/>
      <point x="254.5" y="529.0" type="line"/>
      <point x="254.5" y="559.5" type="line"/>
      <point x="396.5" y="578.5"/>
      <point x="435.0" y="658.0"/>
      <point x="435.0" y="777.5" type="curve" smooth="yes"/>
      <point x="435.0" y="857.5"/>
      <point x="421.0" y="979.0"/>
      <point x="421.0" y="1046.5" type="curve" smooth="yes"/>
      <point x="421.0" y="1153.0"/>
      <point x="463.5" y="1195.0"/>
      <point x="569.0" y="1195.0" type="curve" smooth="yes"/>
      <point x="620.0" y="1195.0"/>
      <point x="663.0" y="1186.0"/>
      <point x="696.5" y="1175.5" type="curve"/>
    </contour>
  </outline>
</glyph>
<glyph name="bar" format="2">
  <advance width="551.0"/>
  <unicode hex="007C"/>
  <outline>
    <contour>
      <point x="364.5" y="-438.5" type="line"/>
      <point x="364.5" y="1418.0" type="line"/>
      <point x="186.5" y="1418.0" type="line"/>
      <point x="186.5" y="-438.5" type="line"/>
    </contour>
  </outline>
</glyph>
<glyph name="braceright" format="2">
  <advance width="761.0"/>
  <unicode hex="007D"/>
  <outline>
    <contour>
      <point x="64.5" y="1327.0" type="curve"/>
      <point x="64.5" y="1175.5" type="line"/>
      <point x="98.0" y="1186.0"/>
      <point x="141.0" y="1195.0"/>
      <point x="192.0" y="1195.0" type="curve" smooth="yes"/>
      <point x="297.5" y="1195.0"/>
      <point x="340.0" y="1153.0"/>
      <point x="340.0" y="1046.5" type="curve" smooth="yes"/>
      <point x="340.0" y="979.0"/>
      <point x="326.0" y="857.5"/>
      <point x="326.0" y="777.5" type="curve" smooth="yes"/>
      <point x="326.0" y="658.0"/>
      <point x="364.5" y="578.5"/>
      <point x="506.5" y="559.5" type="curve"/>
      <point x="506.5" y="529.0" type="line"/>
      <point x="521.0" y="551.0" type="line"/>
      <point x="364.0" y="536.5"/>
      <point x="326.0" y="449.0"/>
      <point x="326.0" y="328.0" type="curve" smooth="yes"/>
      <point x="326.0" y="247.0"/>
      <point x="340.0" y="124.5"/>
      <point x="340.0" y="57.5" type="curve" smooth="yes"/>
      <point x="340.0" y="-50.0"/>
      <point x="297.0" y="-92.0"/>
      <point x="189.0" y="-92.0" type="curve" smooth="yes"/>
      <point x="139.5" y="-92.0"/>
      <point x="97.5" y="-82.5"/>
      <point x="64.5" y="-71.5" type="curve"/>
      <point x="64.5" y="-225.0" type="line"/>
      <point x="111.5" y="-240.0"/>
      <point x="176.5" y="-251.5"/>
      <point x="244.5" y="-251.5" type="curve" smooth="yes"/>
      <point x="444.5" y="-251.5"/>
      <point x="535.0" y="-166.5"/>
      <point x="535.0" y="33.5" type="curve" smooth="yes"/>
      <point x="535.0" y="110.0"/>
      <point x="520.5" y="238.5"/>
      <point x="520.5" y="312.5" type="curve" smooth="yes"/>
      <point x="520.5" y="410.0"/>
      <point x="557.0" y="463.5"/>
      <point x="690.0" y="471.0" type="curve"/>
      <point x="690.0" y="637.0" type="line"/>
      <point x="557.0" y="643.0"/>
      <point x="520.5" y="696.0"/>
      <point x="520.5" y="792.5" type="curve" smooth="yes"/>
      <point x="520.5" y="867.0"/>
      <point x="535.0" y="995.0"/>
      <point x="535.0" y="1069.5" type="curve" smooth="yes"/>
      <point x="535.0" y="1269.0"/>
      <point x="444.5" y="1353.0"/>
      <point x="244.5" y="1353.0" type="curve" smooth="yes"/>
      <point x="176.5" y="1353.0"/>
      <point x="111.5" y="1341.5"/>
    </contour>
  </outline>
</glyph>
<glyph name="asciitilde" format="2">
  <advance width="1227.5"/>
  <unicode hex="007E"/>
  <outline>
    <contour>
      <point x="849.0" y="451.0" type="curve" smooth="yes"/>
      <point x="1028.0" y="451.0"/>
      <point x="1094.0" y="554.0"/>
      <point x="1094.0" y="726.5" type="curve" smooth="yes"/>
      <point x="1094.0" y="767.0" type="line"/>
      <point x="941.5" y="767.0" type="line"/>
      <point x="941.5" y="750.0" type="line" smooth="yes"/>
      <point x="941.5" y="665.0"/>
      <point x="914.5" y="619.0"/>
      <point x="837.0" y="619.0" type="curve" smooth="yes"/>
      <point x="704.0" y="619.0"/>
      <point x="555.5" y="744.0"/>
      <point x="378.5" y="744.0" type="curve" smooth="yes"/>
      <point x="198.5" y="744.0"/>
      <point x="133.5" y="638.0"/>
      <point x="133.5" y="468.0" type="curve" smooth="yes"/>
      <point x="133.5" y="428.0" type="line"/>
      <point x="285.0" y="428.0" type="line"/>
      <point x="285.0" y="444.5" type="line" smooth="yes"/>
      <point x="285.0" y="527.5"/>
      <point x="315.0" y="574.0"/>
      <point x="390.0" y="574.0" type="curve" smooth="yes"/>
      <point x="523.5" y="574.0"/>
      <point x="674.5" y="451.0"/>
    </contour>
  </outline>
</glyph>
<glyph name="exclamdown" format="2">
  <advance width="524.0"/>
  <unicode hex="00A1"/>
  <outline>
    <contour>
      <point x="350.5" y="566.5" type="line"/>
      <point x="174.0" y="566.5" type="line"/>
      <point x="150.5" y="-310.0" type="line"/>
      <point x="373.5" y="-310.0" type="line"/>
    </contour>
    <contour>
      <point x="262.0" y="990.5" type="curve" smooth="yes"/>
      <point x="175.5" y="990.5"/>
      <point x="134.0" y="944.5"/>
      <point x="134.0" y="867.0" type="curve" smooth="yes"/>
      <point x="134.0" y="860.0" type="line" smooth="yes"/>
      <point x="134.0" y="783.0"/>
      <point x="175.5" y="737.0"/>
      <point x="262.0" y="737.0" type="curve" smooth="yes"/>
      <point x="349.0" y="737.0"/>
      <point x="390.5" y="783.0"/>
      <point x="390.5" y="860.0" type="curve" smooth="yes"/>
      <point x="390.5" y="867.0" type="line" smooth="yes"/>
      <point x="390.5" y="944.5"/>
      <point x="349.0" y="990.5"/>
    </contour>
  </outline>
</glyph>
<glyph name="cent" format="2">
  <advance width="1051.0"/>
  <unicode hex="00A2"/>
  <anchor x="573.5" y="0.0" name="bottom"/>
  <anchor x="573.5" y="968.0" name="top"/>
  <outline>
    <contour>
      <point x="693.5" y="900.5" type="line"/>
      <point x="693.5" y="1202.0" type="line"/>
      <point x="508.5" y="1202.0" type="line"/>
      <point x="508.5" y="900.5" type="line"/>
    </contour>
    <contour>
      <point x="693.5" y="-233.5" type="line"/>
      <point x="693.5" y="89.0" type="line"/>
      <point x="508.5" y="89.0" type="line"/>
      <point x="508.5" y="-233.5" type="line"/>
    </contour>
    <component base="c"/>
  </outline>
</glyph>
<glyph name="sterling" format="2">
  <advance width="1287.5"/>
  <unicode hex="00A3"/>
  <outline>
    <contour>
      <point x="91.0" y="570.5" type="line"/>
      <point x="1084.5" y="570.5" type="line"/>
      <point x="1097.5" y="728.5" type="line"/>
      <point x="104.0" y="728.5" type="line"/>
    </contour>
    <contour>
      <point x="368.5" y="176.5" type="line"/>
      <point x="368.5" y="185.5" type="line"/>
      <point x="480.5" y="230.0"/>
      <point x="538.0" y="308.5"/>
      <point x="538.0" y="456.5" type="curve" smooth="yes"/>
      <point x="538.0" y="608.5"/>
      <point x="458.0" y="755.5"/>
      <point x="458.0" y="903.5" type="curve" smooth="yes"/>
      <point x="458.0" y="1052.5"/>
      <point x="551.5" y="1127.5"/>
      <point x="783.5" y="1127.5" type="curve" smooth="yes"/>
      <point x="906.0" y="1127.5"/>
      <point x="1024.0" y="1107.0"/>
      <point x="1139.0" y="1068.5" type="curve"/>
      <point x="1121.5" y="1244.5" type="line"/>
      <point x="1014.0" y="1280.5"/>
      <point x="874.0" y="1304.0"/>
      <point x="738.0" y="1304.0" type="curve" smooth="yes"/>
      <point x="396.0" y="1304.0"/>
      <point x="236.0" y="1179.5"/>
      <point x="236.0" y="929.0" type="curve" smooth="yes"/>
      <point x="236.0" y="751.5"/>
      <point x="321.5" y="592.0"/>
      <point x="320.5" y="433.0" type="curve" smooth="yes"/>
      <point x="320.5" y="295.5"/>
      <point x="269.0" y="208.5"/>
      <point x="148.0" y="181.5" type="curve" smooth="yes"/>
      <point x="98.5" y="171.0" type="line"/>
      <point x="98.5" y="0.0" type="line"/>
      <point x="1218.5" y="0.0" type="line"/>
      <point x="1218.5" y="176.5" type="line"/>
    </contour>
  </outline>
</glyph>
<glyph name="currency" format="2">
  <advance width="1164.5"/>
  <unicode hex="00A4"/>
  <outline>
    <contour>
      <point x="581.5" y="221.0" type="curve" smooth="yes"/>
      <point x="850.5" y="221.0"/>
      <point x="999.5" y="358.5"/>
      <point x="999.5" y="603.5" type="curve" smooth="yes"/>
      <point x="999.5" y="629.0" type="line" smooth="yes"/>
      <point x="999.5" y="873.5"/>
      <point x="851.0" y="1010.5"/>
      <point x="582.0" y="1010.5" type="curve" smooth="yes"/>
      <point x="313.5" y="1010.5"/>
      <point x="164.5" y="873.5"/>
      <point x="164.5" y="629.0" type="curve" smooth="yes"/>
      <point x="164.5" y="603.5" type="line" smooth="yes"/>
      <point x="164.5" y="358.5"/>
      <point x="313.0" y="221.0"/>
    </contour>
    <contour>
      <point x="582.0" y="378.0" type="curve" smooth="yes"/>
      <point x="433.5" y="378.0"/>
      <point x="350.5" y="456.5"/>
      <point x="350.5" y="602.0" type="curve" smooth="yes"/>
      <point x="350.5" y="630.5" type="line" smooth="yes"/>
      <point x="350.5" y="775.5"/>
      <point x="433.5" y="853.5"/>
      <point x="582.0" y="853.5" type="curve" smooth="yes"/>
      <point x="730.0" y="853.5"/>
      <point x="813.0" y="775.5"/>
      <point x="813.0" y="630.5" type="curve" smooth="yes"/>
      <point x="813.5" y="602.0" type="line" smooth="yes"/>
      <point x="813.5" y="456.5"/>
      <point x="730.0" y="378.0"/>
    </contour>
    <contour>
      <point x="871.5" y="422.5" type="line"/>
      <point x="757.0" y="322.0" type="line"/>
      <point x="966.0" y="108.5" type="line"/>
      <point x="1078.0" y="210.5" type="line"/>
    </contour>
    <contour>
      <point x="404.0" y="318.5" type="line"/>
      <point x="297.5" y="426.0" type="line"/>
      <point x="87.0" y="210.5" type="line"/>
      <point x="199.0" y="108.5" type="line"/>
    </contour>
    <contour>
      <point x="283.5" y="816.0" type="line"/>
      <point x="402.0" y="912.0" type="line"/>
      <point x="198.5" y="1120.5" type="line"/>
      <point x="87.0" y="1018.0" type="line"/>
    </contour>
    <contour>
      <point x="761.0" y="909.5" type="line"/>
      <point x="873.5" y="807.0" type="line"/>
      <point x="1077.5" y="1018.0" type="line"/>
      <point x="966.0" y="1120.5" type="line"/>
    </contour>
  </outline>
</glyph>
<glyph name="yen" format="2">
  <advance width="1329.0"/>
  <unicode hex="00A5"/>
  <anchor x="663.0" y="0.0" name="bottom"/>
  <anchor x="663.0" y="1278.0" name="top"/>
  <anchor x="24.5" y="1278.0" name="topleft"/>
  <outline>
    <contour>
      <point x="761.5" y="539.5" type="line"/>
      <point x="1190.5" y="539.5" type="line"/>
      <point x="1204.5" y="688.5" type="line"/>
      <point x="800.5" y="688.5" type="line"/>
    </contour>
    <contour>
      <point x="142.0" y="387.5" type="line"/>
      <point x="127.5" y="239.0" type="line"/>
      <point x="1190.5" y="239.0" type="line"/>
      <point x="1204.5" y="387.5" type="line"/>
    </contour>
    <contour>
      <point x="530.0" y="688.5" type="line"/>
      <point x="142.0" y="688.5" type="line"/>
      <point x="127.5" y="539.5" type="line"/>
      <point x="569.5" y="539.5" type="line"/>
    </contour>
    <component base="Y" xOffset="4.5"/>
  </outline>
</glyph>
<glyph name="brokenbar" format="2">
  <advance width="553.0"/>
  <unicode hex="00A6"/>
  <outline>
    <contour>
      <point x="366.5" y="586.0" type="line"/>
      <point x="366.5" y="1418.0" type="line"/>
      <point x="186.5" y="1418.0" type="line"/>
      <point x="186.5" y="586.0" type="line"/>
    </contour>
    <contour>
      <point x="366.5" y="-438.5" type="line"/>
      <point x="366.5" y="396.5" type="line"/>
      <point x="186.5" y="396.5" type="line"/>
      <point x="186.5" y="-438.5" type="line"/>
    </contour>
  </outline>
</glyph>
<glyph name="section" format="2">
  <advance width="1124.5"/>
  <unicode hex="00A7"/>
  <outline>
    <contour>
      <point x="663.5" y="427.0" type="curve"/>
      <point x="816.0" y="375.0" type="line"/>
      <point x="815.5" y="414.0" type="line"/>
      <point x="939.0" y="428.0"/>
      <point x="1011.5" y="504.0"/>
      <point x="1011.5" y="618.0" type="curve" smooth="yes"/>
      <point x="1011.5" y="621.0" type="line" smooth="yes"/>
      <point x="1011.0" y="788.5"/>
      <point x="896.5" y="844.5"/>
      <point x="595.5" y="890.0" type="curve" smooth="yes"/>
      <point x="370.0" y="924.0"/>
      <point x="315.5" y="952.0"/>
      <point x="315.5" y="1026.0" type="curve" smooth="yes"/>
      <point x="315.5" y="1031.0" type="line" smooth="yes"/>
      <point x="315.5" y="1099.0"/>
      <point x="374.0" y="1139.5"/>
      <point x="548.5" y="1139.5" type="curve" smooth="yes"/>
      <point x="719.0" y="1139.5"/>
      <point x="861.0" y="1097.0"/>
      <point x="969.0" y="1041.0" type="curve"/>
      <point x="948.0" y="1214.0" type="line"/>
      <point x="856.5" y="1261.0"/>
      <point x="714.5" y="1303.5"/>
      <point x="529.5" y="1303.5" type="curve" smooth="yes"/>
      <point x="249.0" y="1303.5"/>
      <point x="112.0" y="1213.0"/>
      <point x="112.0" y="1034.5" type="curve" smooth="yes"/>
      <point x="112.0" y="1028.0" type="line" smooth="yes"/>
      <point x="112.0" y="858.5"/>
      <point x="221.0" y="783.0"/>
      <point x="512.5" y="743.5" type="curve" smooth="yes"/>
      <point x="743.0" y="712.0"/>
      <point x="814.0" y="683.0"/>
      <point x="814.0" y="577.5" type="curve" smooth="yes"/>
      <point x="814.0" y="574.0" type="line" smooth="yes"/>
      <point x="814.0" y="505.0"/>
      <point x="760.0" y="451.5"/>
    </contour>
    <contour>
      <point x="458.0" y="771.5" type="curve"/>
      <point x="299.5" y="811.0" type="line"/>
      <point x="300.0" y="778.0" type="line"/>
      <point x="182.5" y="754.5"/>
      <point x="113.0" y="689.5"/>
      <point x="113.0" y="578.5" type="curve" smooth="yes"/>
      <point x="113.0" y="574.0" type="line" smooth="yes"/>
      <point x="113.0" y="421.0"/>
      <point x="224.0" y="353.5"/>
      <point x="523.0" y="304.5" type="curve" smooth="yes"/>
      <point x="740.0" y="267.5"/>
      <point x="808.0" y="242.0"/>
      <point x="808.0" y="163.5" type="curve" smooth="yes"/>
      <point x="808.0" y="158.5" type="line" smooth="yes"/>
      <point x="808.0" y="79.5"/>
      <point x="726.0" y="42.5"/>
      <point x="554.5" y="42.5" type="curve" smooth="yes"/>
      <point x="374.5" y="42.5"/>
      <point x="223.0" y="90.5"/>
      <point x="109.5" y="147.0" type="curve"/>
      <point x="130.5" y="-39.5" type="line"/>
      <point x="225.5" y="-83.0"/>
      <point x="376.5" y="-126.0"/>
      <point x="569.0" y="-126.0" type="curve" smooth="yes"/>
      <point x="867.0" y="-126.0"/>
      <point x="1012.5" y="-32.0"/>
      <point x="1012.5" y="154.5" type="curve" smooth="yes"/>
      <point x="1012.5" y="162.5" type="line" smooth="yes"/>
      <point x="1012.5" y="341.5"/>
      <point x="899.5" y="405.0"/>
      <point x="606.0" y="451.0" type="curve" smooth="yes"/>
      <point x="377.5" y="486.5"/>
      <point x="309.0" y="524.5"/>
      <point x="309.0" y="620.5" type="curve" smooth="yes"/>
      <point x="309.0" y="625.0" type="line"/>
      <point x="309.0" y="695.5"/>
      <point x="357.0" y="744.0"/>
    </contour>
  </outline>
</glyph>
<glyph name="copyright" format="2">
  <advance width="1543.5"/>
  <unicode hex="00A9"/>
  <outline>
    <contour>
      <point x="771.5" y="-29.5" type="curve" smooth="yes"/>
      <point x="1195.5" y="-29.5"/>
      <point x="1438.5" y="200.0"/>
      <point x="1438.5" y="599.0" type="curve" smooth="yes"/>
      <point x="1438.5" y="686.0" type="line" smooth="yes"/>
      <point x="1438.5" y="1081.5"/>
      <point x="1195.5" y="1307.5"/>
      <point x="771.5" y="1307.5" type="curve" smooth="yes"/>
      <point x="347.5" y="1307.5"/>
      <point x="105.0" y="1081.5"/>
      <point x="105.0" y="686.0" type="curve" smooth="yes"/>
      <point x="105.0" y="599.0" type="line" smooth="yes"/>
      <point x="105.0" y="200.0"/>
      <point x="347.5" y="-29.5"/>
    </contour>
    <contour>
      <point x="808.0" y="311.5" type="curve" smooth="yes"/>
      <point x="914.0" y="311.5"/>
      <point x="991.5" y="340.0"/>
      <point x="1040.0" y="370.5" type="curve"/>
      <point x="1051.5" y="496.5" type="line"/>
      <point x="996.0" y="461.5"/>
      <point x="928.0" y="433.5"/>
      <point x="833.0" y="433.5" type="curve" smooth="yes"/>
      <point x="695.5" y="433.5"/>
      <point x="626.0" y="498.5"/>
      <point x="626.0" y="617.5" type="curve" smooth="yes"/>
      <point x="626.0" y="666.5" type="line" smooth="yes"/>
      <point x="626.0" y="784.5"/>
      <point x="693.0" y="848.0"/>
      <point x="828.0" y="848.0" type="curve" smooth="yes"/>
      <point x="924.0" y="848.0"/>
      <point x="992.0" y="819.5"/>
      <point x="1045.5" y="785.0" type="curve"/>
      <point x="1033.0" y="910.0" type="line"/>
      <point x="987.0" y="939.0"/>
      <point x="911.0" y="967.5"/>
      <point x="807.5" y="967.5" type="curve" smooth="yes"/>
      <point x="592.0" y="967.5"/>
      <point x="482.0" y="859.0"/>
      <point x="482.0" y="665.5" type="curve" smooth="yes"/>
      <point x="482.0" y="617.5" type="line" smooth="yes"/>
      <point x="482.0" y="421.0"/>
      <point x="591.5" y="311.5"/>
    </contour>
    <contour>
      <point x="771.5" y="87.5" type="curve" smooth="yes"/>
      <point x="439.5" y="87.5"/>
      <point x="244.5" y="271.0"/>
      <point x="244.5" y="594.5" type="curve" smooth="yes"/>
      <point x="244.5" y="690.5" type="line" smooth="yes"/>
      <point x="244.5" y="1011.0"/>
      <point x="439.5" y="1190.5"/>
      <point x="771.5" y="1190.5" type="curve" smooth="yes"/>
      <point x="1103.5" y="1190.5"/>
      <point x="1299.0" y="1011.0"/>
      <point x="1299.0" y="690.5" type="curve" smooth="yes"/>
      <point x="1299.0" y="594.5" type="line" smooth="yes"/>
      <point x="1299.0" y="271.0"/>
      <point x="1103.5" y="87.5"/>
    </contour>
  </outline>
</glyph>
<glyph name="ordfeminine" format="2">
  <advance width="773.5"/>
  <unicode hex="00AA"/>
  <outline>
    <contour>
      <point x="523.5" y="643.0" type="line"/>
      <point x="670.0" y="643.0" type="line"/>
      <point x="670.0" y="1037.5" type="line" smooth="yes"/>
      <point x="670.0" y="1178.5"/>
      <point x="601.0" y="1293.0"/>
      <point x="382.5" y="1293.0" type="curve" smooth="yes"/>
      <point x="265.5" y="1293.0"/>
      <point x="177.0" y="1258.5"/>
      <point x="116.5" y="1225.0" type="curve"/>
      <point x="103.0" y="1100.5" type="line"/>
      <point x="172.0" y="1136.0"/>
      <point x="256.5" y="1171.5"/>
      <point x="357.5" y="1171.5" type="curve" smooth="yes"/>
      <point x="479.5" y="1171.5"/>
      <point x="528.0" y="1125.0"/>
      <point x="528.0" y="1041.0" type="curve"/>
      <point x="528.0" y="989.5" type="line"/>
      <point x="528.0" y="818.5" type="line"/>
      <point x="529.5" y="803.5" type="line"/>
    </contour>
    <contour>
      <point x="288.0" y="628.0" type="curve" smooth="yes"/>
      <point x="433.5" y="628.0"/>
      <point x="492.0" y="690.0"/>
      <point x="522.5" y="773.5" type="curve"/>
      <point x="549.0" y="773.5" type="line"/>
      <point x="532.5" y="879.5" type="line"/>
      <point x="509.5" y="806.0"/>
      <point x="433.5" y="751.5"/>
      <point x="336.0" y="751.5" type="curve" smooth="yes"/>
      <point x="258.5" y="751.5"/>
      <point x="221.0" y="779.5"/>
      <point x="221.0" y="830.0" type="curve" smooth="yes"/>
      <point x="221.0" y="837.5" type="line" smooth="yes"/>
      <point x="221.0" y="893.0"/>
      <point x="260.0" y="913.5"/>
      <point x="350.5" y="924.0" type="curve" smooth="yes"/>
      <point x="549.0" y="946.5" type="line"/>
      <point x="542.5" y="1050.0" type="line"/>
      <point x="323.0" y="1026.0" type="line" smooth="yes"/>
      <point x="156.0" y="1007.0"/>
      <point x="71.0" y="954.0"/>
      <point x="71.0" y="826.5" type="curve" smooth="yes"/>
      <point x="71.0" y="815.5" type="line" smooth="yes"/>
      <point x="71.0" y="696.0"/>
      <point x="149.5" y="628.0"/>
    </contour>
  </outline>
</glyph>
<glyph name="logicalnot" format="2">
  <advance width="1182.5"/>
  <unicode hex="00AC"/>
  <outline>
    <contour>
      <point x="1050.5" y="142.5" type="line"/>
      <point x="1050.5" y="635.5" type="line"/>
      <point x="876.5" y="635.5" type="line"/>
      <point x="876.5" y="142.5" type="line"/>
    </contour>
    <contour>
      <point x="120.0" y="532.5" type="line"/>
      <point x="1050.5" y="532.5" type="line"/>
      <point x="1050.5" y="695.0" type="line"/>
      <point x="120.0" y="695.0" type="line"/>
    </contour>
  </outline>
</glyph>
<glyph name="registered" format="2">
  <advance width="922.5"/>
  <unicode hex="00AE"/>
  <outline>
    <contour>
      <point x="462.0" y="527.5" type="curve" smooth="yes"/>
      <point x="714.5" y="527.5"/>
      <point x="861.5" y="662.0"/>
      <point x="861.5" y="892.0" type="curve" smooth="yes"/>
      <point x="861.5" y="934.5" type="line" smooth="yes"/>
      <point x="861.5" y="1164.5"/>
      <point x="714.5" y="1298.5"/>
      <point x="462.0" y="1298.5" type="curve" smooth="yes"/>
      <point x="208.5" y="1298.5"/>
      <point x="61.0" y="1164.5"/>
      <point x="61.0" y="934.5" type="curve" smooth="yes"/>
      <point x="61.0" y="892.0" type="line" smooth="yes"/>
      <point x="61.0" y="662.0"/>
      <point x="208.5" y="527.5"/>
    </contour>
    <contour>
      <point x="462.0" y="607.0" type="curve" smooth="yes"/>
      <point x="261.5" y="607.0"/>
      <point x="154.0" y="706.5"/>
      <point x="154.0" y="891.0" type="curve" smooth="yes"/>
      <point x="154.0" y="937.0" type="line" smooth="yes"/>
      <point x="154.0" y="1120.0"/>
      <point x="261.5" y="1219.0"/>
      <point x="462.0" y="1219.0" type="curve" smooth="yes"/>
      <point x="661.5" y="1219.0"/>
      <point x="768.0" y="1120.0"/>
      <point x="768.0" y="937.0" type="curve" smooth="yes"/>
      <point x="768.0" y="891.0" type="line" smooth="yes"/>
      <point x="768.0" y="706.5"/>
      <point x="661.5" y="607.0"/>
    </contour>
    <contour>
      <point x="557.5" y="731.5" type="line"/>
      <point x="647.5" y="731.5" type="line"/>
      <point x="633.5" y="801.5" type="line" smooth="yes"/>
      <point x="621.0" y="863.5"/>
      <point x="602.0" y="897.0"/>
      <point x="533.5" y="902.5" type="curve"/>
      <point x="549.0" y="893.5" type="line"/>
      <point x="549.0" y="904.5" type="line"/>
      <point x="610.0" y="909.0"/>
      <point x="639.5" y="941.0"/>
      <point x="639.5" y="994.5" type="curve" smooth="yes"/>
      <point x="639.5" y="1000.0" type="line" smooth="yes"/>
      <point x="639.5" y="1070.0"/>
      <point x="596.5" y="1108.0"/>
      <point x="501.0" y="1108.0" type="curve" smooth="yes"/>
      <point x="362.5" y="1108.0" type="line"/>
      <point x="362.5" y="1041.0" type="line"/>
      <point x="486.0" y="1041.0" type="line" smooth="yes"/>
      <point x="532.5" y="1041.0"/>
      <point x="551.5" y="1020.5"/>
      <point x="551.5" y="986.5" type="curve" smooth="yes"/>
      <point x="551.5" y="980.5" type="line" smooth="yes"/>
      <point x="551.5" y="945.0"/>
      <point x="532.0" y="924.5"/>
      <point x="486.0" y="924.5" type="curve" smooth="yes"/>
      <point x="363.0" y="924.0" type="line"/>
      <point x="363.0" y="858.5" type="line"/>
      <point x="469.5" y="858.5" type="line" smooth="yes"/>
      <point x="520.0" y="858.5"/>
      <point x="537.0" y="840.5"/>
      <point x="547.0" y="789.0" type="curve" smooth="yes"/>
    </contour>
    <contour>
      <point x="307.5" y="731.5" type="line"/>
      <point x="393.5" y="731.5" type="line"/>
      <point x="393.5" y="870.0" type="line"/>
      <point x="393.5" y="898.0" type="line"/>
      <point x="393.5" y="1108.0" type="line"/>
      <point x="307.5" y="1108.0" type="line"/>
    </contour>
  </outline>
</glyph>
<glyph name="degree" format="2">
  <advance width="732.5"/>
  <unicode hex="00B0"/>
  <outline>
    <contour>
      <point x="366.0" y="758.0" type="curve" smooth="yes"/>
      <point x="546.5" y="758.0"/>
      <point x="648.0" y="863.0"/>
      <point x="648.0" y="1028.5" type="curve" smooth="yes"/>
      <point x="648.0" y="1038.0" type="line" smooth="yes"/>
      <point x="648.0" y="1203.0"/>
      <point x="546.5" y="1307.5"/>
      <point x="366.0" y="1307.5" type="curve" smooth="yes"/>
      <point x="186.0" y="1307.5"/>
      <point x="84.5" y="1203.0"/>
      <point x="84.5" y="1038.0" type="curve" smooth="yes"/>
      <point x="84.5" y="1028.5" type="line" smooth="yes"/>
      <point x="84.5" y="863.0"/>
      <point x="186.0" y="758.0"/>
    </contour>
    <contour>
      <point x="366.0" y="893.0" type="curve" smooth="yes"/>
      <point x="284.0" y="893.0"/>
      <point x="239.0" y="945.0"/>
      <point x="239.0" y="1028.0" type="curve" smooth="yes"/>
      <point x="239.0" y="1037.5" type="line" smooth="yes"/>
      <point x="239.0" y="1121.0"/>
      <point x="284.0" y="1172.5"/>
      <point x="366.0" y="1172.5" type="curve" smooth="yes"/>
      <point x="449.0" y="1172.5"/>
      <point x="493.5" y="1121.0"/>
      <point x="493.5" y="1037.5" type="curve" smooth="yes"/>
      <point x="493.5" y="1028.0" type="line" smooth="yes"/>
      <point x="493.5" y="945.0"/>
      <point x="449.0" y="893.0"/>
    </contour>
  </outline>
</glyph>
<glyph name="plusminus" format="2">
  <advance width="1198.0"/>
  <unicode hex="00B1"/>
  <outline>
    <contour>
      <point x="134.0" y="98.5" type="line"/>
      <point x="1064.0" y="98.5" type="line"/>
      <point x="1064.0" y="260.0" type="line"/>
      <point x="134.0" y="260.0" type="line"/>
    </contour>
    <contour>
      <point x="687.0" y="388.5" type="line"/>
      <point x="687.0" y="1144.5" type="line"/>
      <point x="511.0" y="1144.5" type="line"/>
      <point x="511.0" y="388.5" type="line"/>
    </contour>
    <contour>
      <point x="134.0" y="686.0" type="line"/>
      <point x="1064.0" y="686.0" type="line"/>
      <point x="1064.0" y="847.0" type="line"/>
      <point x="134.0" y="847.0" type="line"/>
    </contour>
  </outline>
</glyph>
<glyph name="twosuperior" format="2">
  <advance width="706.0"/>
  <unicode hex="00B2"/>
  <outline>
    <contour>
      <point x="43.0" y="738.5" type="line"/>
      <point x="656.5" y="738.5" type="line"/>
      <point x="656.5" y="869.0" type="line"/>
      <point x="204.5" y="868.5" type="line"/>
      <point x="294.0" y="842.5" type="line"/>
      <point x="294.0" y="874.5" type="line"/>
      <point x="422.5" y="949.5" type="line" smooth="yes"/>
      <point x="570.0" y="1033.0"/>
      <point x="644.5" y="1102.5"/>
      <point x="644.5" y="1217.0" type="curve" smooth="yes"/>
      <point x="644.5" y="1226.0" type="line" smooth="yes"/>
      <point x="644.5" y="1356.0"/>
      <point x="538.0" y="1431.0"/>
      <point x="342.5" y="1431.0" type="curve" smooth="yes"/>
      <point x="239.0" y="1431.0"/>
      <point x="128.0" y="1403.5"/>
      <point x="63.5" y="1370.5" type="curve"/>
      <point x="49.5" y="1239.5" type="line"/>
      <point x="128.5" y="1273.0"/>
      <point x="216.5" y="1302.0"/>
      <point x="322.5" y="1302.0" type="curve" smooth="yes"/>
      <point x="435.5" y="1302.0"/>
      <point x="482.0" y="1270.0"/>
      <point x="482.0" y="1208.0" type="curve" smooth="yes"/>
      <point x="482.0" y="1203.5" type="line" smooth="yes"/>
      <point x="482.0" y="1133.0"/>
      <point x="400.0" y="1078.5"/>
      <point x="293.5" y="1016.0" type="curve" smooth="yes"/>
      <point x="43.0" y="871.5" type="line"/>
    </contour>
  </outline>
</glyph>
<glyph name="threesuperior" format="2">
  <advance width="738.5"/>
  <unicode hex="00B3"/>
  <outline>
    <contour>
      <point x="346.5" y="720.5" type="curve" smooth="yes"/>
      <point x="574.5" y="720.5"/>
      <point x="680.5" y="801.0"/>
      <point x="680.5" y="925.0" type="curve" smooth="yes"/>
      <point x="680.5" y="933.5" type="line" smooth="yes"/>
      <point x="680.5" y="1024.5"/>
      <point x="630.0" y="1074.0"/>
      <point x="524.0" y="1091.5" type="curve"/>
      <point x="528.5" y="1080.0" type="line"/>
      <point x="528.5" y="1096.5" type="line"/>
      <point x="626.5" y="1110.5"/>
      <point x="674.5" y="1161.5"/>
      <point x="674.5" y="1242.0" type="curve" smooth="yes"/>
      <point x="674.5" y="1248.5" type="line" smooth="yes"/>
      <point x="674.5" y="1366.5"/>
      <point x="570.0" y="1430.0"/>
      <point x="356.5" y="1430.0" type="curve" smooth="yes"/>
      <point x="230.5" y="1430.0"/>
      <point x="131.0" y="1404.5"/>
      <point x="67.0" y="1376.0" type="curve"/>
      <point x="52.5" y="1253.0" type="line"/>
      <point x="119.5" y="1278.0"/>
      <point x="219.5" y="1305.0"/>
      <point x="338.5" y="1305.0" type="curve" smooth="yes"/>
      <point x="472.5" y="1305.0"/>
      <point x="511.0" y="1277.0"/>
      <point x="511.0" y="1227.0" type="curve" smooth="yes"/>
      <point x="511.0" y="1223.0" type="line" smooth="yes"/>
      <point x="511.0" y="1173.0"/>
      <point x="469.5" y="1145.5"/>
      <point x="362.5" y="1143.5" type="curve" smooth="yes"/>
      <point x="172.0" y="1139.5" type="line"/>
      <point x="172.0" y="1027.5" type="line"/>
      <point x="362.5" y="1024.0" type="line" smooth="yes"/>
      <point x="488.0" y="1022.0"/>
      <point x="515.0" y="990.0"/>
      <point x="515.0" y="942.5" type="curve" smooth="yes"/>
      <point x="515.0" y="938.5" type="line" smooth="yes"/>
      <point x="515.0" y="885.0"/>
      <point x="474.5" y="847.5"/>
      <point x="326.0" y="847.5" type="curve" smooth="yes"/>
      <point x="219.5" y="847.5"/>
      <point x="117.5" y="873.0"/>
      <point x="48.5" y="898.0" type="curve"/>
      <point x="63.0" y="766.0" type="line"/>
      <point x="119.5" y="746.5"/>
      <point x="222.5" y="720.5"/>
    </contour>
  </outline>
</glyph>
<glyph name="micro" format="2">
  <advance width="1261.0"/>
  <unicode hex="00B5"/>
  <outline>
    <contour>
      <point x="1119.0" y="968.0" type="line"/>
      <point x="912.0" y="968.0" type="line"/>
      <point x="912.0" y="273.5" type="line"/>
      <point x="920.5" y="254.0" type="line"/>
      <point x="912.0" y="0.0" type="line"/>
      <point x="1119.0" y="0.0" type="line"/>
    </contour>
    <contour>
      <point x="349.0" y="429.5" type="curve" smooth="yes"/>
      <point x="349.0" y="968.0" type="line"/>
      <point x="142.0" y="968.0" type="line"/>
      <point x="142.0" y="-341.0" type="line"/>
      <point x="346.0" y="-341.0" type="line"/>
      <point x="346.0" y="-217.5" type="line"/>
      <point x="335.0" y="140.5" type="line"/>
      <point x="343.5" y="140.5" type="line"/>
      <point x="388.0" y="28.5"/>
      <point x="473.0" y="-25.0"/>
      <point x="613.5" y="-25.0" type="curve" smooth="yes"/>
      <point x="784.5" y="-25.0"/>
      <point x="876.5" y="80.5"/>
      <point x="909.5" y="220.0" type="curve"/>
      <point x="951.0" y="220.0" type="line"/>
      <point x="919.5" y="374.0" type="line"/>
      <point x="889.0" y="247.0"/>
      <point x="784.0" y="147.0"/>
      <point x="620.5" y="147.0" type="curve" smooth="yes"/>
      <point x="443.5" y="147.0"/>
      <point x="349.0" y="243.0"/>
    </contour>
  </outline>
</glyph>
<glyph name="paragraph" format="2">
  <advance width="841.0"/>
  <unicode hex="00B6"/>
  <outline>
    <contour>
      <point x="417.0" y="654.5" type="curve"/>
      <point x="517.5" y="654.5" type="line"/>
      <point x="516.5" y="1278.0" type="line"/>
      <point x="417.0" y="1278.0" type="line" smooth="yes"/>
      <point x="191.0" y="1278.0"/>
      <point x="86.5" y="1167.0"/>
      <point x="86.5" y="982.0" type="curve" smooth="yes"/>
      <point x="86.5" y="951.0" type="line" smooth="yes"/>
      <point x="86.5" y="766.5"/>
      <point x="191.0" y="654.5"/>
    </contour>
    <contour>
      <point x="677.5" y="0.0" type="line"/>
      <point x="677.5" y="1278.0" type="line"/>
      <point x="471.0" y="1278.0" type="line"/>
      <point x="471.0" y="0.0" type="line"/>
    </contour>
  </outline>
</glyph>
<glyph name="onesuperior" format="2">
  <advance width="485.5"/>
  <unicode hex="00B9"/>
  <outline>
    <contour>
      <point x="241.0" y="738.5" type="line"/>
      <point x="395.5" y="738.5" type="line"/>
      <point x="395.5" y="1414.0" type="line"/>
      <point x="249.5" y="1414.0" type="line"/>
      <point x="38.0" y="1310.0" type="line"/>
      <point x="32.0" y="1168.0" type="line"/>
      <point x="233.0" y="1264.0" type="line"/>
      <point x="241.0" y="1264.0" type="line"/>
    </contour>
  </outline>
</glyph>
<glyph name="ordmasculine" format="2">
  <advance width="796.0"/>
  <unicode hex="00BA"/>
  <outline>
    <contour>
      <point x="398.0" y="628.5" type="curve" smooth="yes"/>
      <point x="611.5" y="628.5"/>
      <point x="729.0" y="737.0"/>
      <point x="729.0" y="937.5" type="curve" smooth="yes"/>
      <point x="729.0" y="985.5" type="line" smooth="yes"/>
      <point x="729.0" y="1185.0"/>
      <point x="612.5" y="1294.0"/>
      <point x="398.0" y="1294.0" type="curve" smooth="yes"/>
      <point x="184.5" y="1294.0"/>
      <point x="67.0" y="1185.0"/>
      <point x="67.0" y="985.5" type="curve" smooth="yes"/>
      <point x="67.0" y="937.5" type="line" smooth="yes"/>
      <point x="67.0" y="737.5"/>
      <point x="184.0" y="628.5"/>
    </contour>
    <contour>
      <point x="398.0" y="753.0" type="curve" smooth="yes"/>
      <point x="284.0" y="753.0"/>
      <point x="222.5" y="816.0"/>
      <point x="222.5" y="935.0" type="curve" smooth="yes"/>
      <point x="222.5" y="989.0" type="line" smooth="yes"/>
      <point x="222.5" y="1107.0"/>
      <point x="284.0" y="1169.5"/>
      <point x="398.0" y="1169.5" type="curve" smooth="yes"/>
      <point x="512.0" y="1169.5"/>
      <point x="573.5" y="1107.0"/>
      <point x="573.5" y="989.0" type="curve" smooth="yes"/>
      <point x="573.5" y="935.0" type="line" smooth="yes"/>
      <point x="573.5" y="815.5"/>
      <point x="511.0" y="753.0"/>
    </contour>
  </outline>
</glyph>
<glyph name="guillemetright" format="2">
  <advance width="1142.0"/>
  <unicode hex="00BB"/>
  <outline>
    <contour>
      <point x="377.5" y="482.5" type="line"/>
      <point x="39.5" y="81.5" type="line"/>
      <point x="254.5" y="81.5" type="line"/>
      <point x="581.5" y="463.0" type="line"/>
      <point x="581.5" y="508.0" type="line"/>
      <point x="254.5" y="880.5" type="line"/>
      <point x="39.5" y="880.5" type="line"/>
    </contour>
    <contour>
      <point x="867.5" y="482.5" type="line"/>
      <point x="529.5" y="81.5" type="line"/>
      <point x="744.5" y="81.5" type="line"/>
      <point x="1071.5" y="463.0" type="line"/>
      <point x="1071.5" y="508.0" type="line"/>
      <point x="744.5" y="880.5" type="line"/>
      <point x="529.5" y="880.5" type="line"/>
    </contour>
  </outline>
</glyph>
<glyph name="questiondown" format="2">
  <advance width="1092.0"/>
  <unicode hex="00BF"/>
  <outline>
    <contour>
      <point x="753.0" y="562.5" type="line"/>
      <point x="637.5" y="546.5" type="line" smooth="yes"/>
      <point x="280.5" y="502.5"/>
      <point x="91.0" y="375.5"/>
      <point x="91.0" y="97.0" type="curve" smooth="yes"/>
      <point x="91.0" y="51.0" type="line" smooth="yes"/>
      <point x="91.0" y="-199.0"/>
      <point x="246.0" y="-335.0"/>
      <point x="572.5" y="-335.0" type="curve" smooth="yes"/>
      <point x="769.0" y="-335.0"/>
      <point x="926.0" y="-278.0"/>
      <point x="1012.0" y="-230.5" type="curve"/>
      <point x="1036.0" y="-46.5" type="line"/>
      <point x="915.0" y="-107.5"/>
      <point x="760.5" y="-159.5"/>
      <point x="595.5" y="-159.5" type="curve" smooth="yes"/>
      <point x="380.0" y="-159.5"/>
      <point x="303.0" y="-77.5"/>
      <point x="303.0" y="61.5" type="curve" smooth="yes"/>
      <point x="303.0" y="99.0" type="line" smooth="yes"/>
      <point x="303.0" y="260.0"/>
      <point x="408.5" y="342.0"/>
      <point x="658.5" y="375.5" type="curve" smooth="yes"/>
      <point x="753.0" y="389.0" type="line"/>
    </contour>
    <contour>
      <point x="656.0" y="990.0" type="curve" smooth="yes"/>
      <point x="569.0" y="990.0"/>
      <point x="527.5" y="944.0"/>
      <point x="527.5" y="866.5" type="curve" smooth="yes"/>
      <point x="527.5" y="859.5" type="line" smooth="yes"/>
      <point x="527.5" y="782.5"/>
      <point x="569.0" y="736.5"/>
      <point x="656.0" y="736.5" type="curve" smooth="yes"/>
      <point x="742.5" y="736.5"/>
      <point x="784.0" y="782.5"/>
      <point x="784.0" y="859.5" type="curve" smooth="yes"/>
      <point x="784.0" y="866.5" type="line" smooth="yes"/>
      <point x="784.0" y="944.0"/>
      <point x="742.5" y="990.0"/>
    </contour>
  </outline>
</glyph>
<glyph name="AE" format="2">
  <advance width="2136.5"/>
  <unicode hex="00C6"/>
  <anchor x="1068.5" y="0.0" name="bottom"/>
  <anchor x="1068.5" y="1278.0" name="top"/>
  <outline>
    <contour>
      <point x="45.0" y="0.0" type="line"/>
      <point x="277.5" y="0.0" type="line"/>
      <point x="981.5" y="1141.0" type="line"/>
      <point x="1081.5" y="1141.0" type="line"/>
      <point x="1082.5" y="1278.0" type="line"/>
      <point x="841.0" y="1278.0" type="line"/>
    </contour>
    <contour>
      <point x="413.5" y="358.0" type="line"/>
      <point x="1077.5" y="358.0" type="line"/>
      <point x="1077.5" y="531.0" type="line"/>
      <point x="413.5" y="531.0" type="line"/>
    </contour>
    <contour>
      <point x="1071.0" y="0.0" type="line"/>
      <point x="2026.5" y="0.0" type="line"/>
      <point x="2026.5" y="174.5" type="line"/>
      <point x="1071.0" y="174.5" type="line"/>
    </contour>
    <contour>
      <point x="1036.0" y="0.0" type="line"/>
      <point x="1244.5" y="0.0" type="line"/>
      <point x="1244.5" y="1278.0" type="line"/>
      <point x="1036.0" y="1278.0" type="line"/>
    </contour>
    <contour>
      <point x="1150.0" y="564.0" type="line"/>
      <point x="1997.0" y="564.0" type="line"/>
      <point x="1997.0" y="736.0" type="line"/>
      <point x="1150.0" y="736.0" type="line"/>
    </contour>
    <contour>
      <point x="1070.5" y="1104.0" type="line"/>
      <point x="2016.0" y="1104.0" type="line"/>
      <point x="2016.0" y="1278.0" type="line"/>
      <point x="1070.5" y="1278.0" type="line"/>
    </contour>
  </outline>
</glyph>
<glyph name="Eth" format="2">
  <advance width="1415.0"/>
  <unicode hex="00D0"/>
  <anchor x="693.5" y="0.0" name="bottom"/>
  <anchor x="712.0" y="639.0" name="center"/>
  <anchor x="693.5" y="1278.0" name="top"/>
  <outline>
    <contour>
      <point x="1.0" y="575.0" type="line"/>
      <point x="745.5" y="574.5" type="line"/>
      <point x="745.5" y="731.5" type="line"/>
      <point x="1.0" y="732.0" type="line"/>
    </contour>
    <component base="D"/>
  </outline>
</glyph>
<glyph name="multiply" format="2">
  <advance width="1148.5"/>
  <unicode hex="00D7"/>
  <outline>
    <contour>
      <point x="1019.5" y="285.0" type="line"/>
      <point x="252.5" y="1046.0" type="line"/>
      <point x="134.0" y="935.0" type="line"/>
      <point x="901.0" y="173.5" type="line"/>
    </contour>
    <contour>
      <point x="129.0" y="285.0" type="line"/>
      <point x="247.5" y="173.5" type="line"/>
      <point x="1014.5" y="935.0" type="line"/>
      <point x="896.0" y="1046.0" type="line"/>
    </contour>
  </outline>
</glyph>
<glyph name="Oslash" format="2">
  <advance width="1454.0"/>
  <unicode hex="00D8"/>
  <anchor x="727.0" y="0.0" name="bottom"/>
  <anchor x="727.0" y="640.0" name="center"/>
  <anchor x="1314.0" y="11.0" name="ogonek"/>
  <anchor x="727.0" y="1278.0" name="top"/>
  <anchor x="13.0" y="1279.0" name="topleft"/>
  <anchor x="1440.5" y="1279.0" name="topright"/>
  <outline>
    <contour>
      <point x="727.0" y="-29.5" type="curve" smooth="yes"/>
      <point x="1132.5" y="-29.5"/>
      <point x="1349.0" y="185.5"/>
      <point x="1349.0" y="565.5" type="curve" smooth="yes"/>
      <point x="1349.0" y="714.5" type="line" smooth="yes"/>
      <point x="1349.0" y="1082.5"/>
      <point x="1121.5" y="1307.5"/>
      <point x="727.0" y="1307.5" type="curve" smooth="yes"/>
      <point x="321.0" y="1307.5"/>
      <point x="105.0" y="1093.5"/>
      <point x="105.0" y="714.5" type="curve" smooth="yes"/>
      <point x="105.0" y="565.5" type="line" smooth="yes"/>
      <point x="105.0" y="196.5"/>
      <point x="332.0" y="-29.5"/>
    </contour>
    <contour>
      <point x="110.0" y="-64.5" type="line"/>
      <point x="317.5" y="-64.5" type="line"/>
      <point x="438.5" y="99.5" type="line"/>
      <point x="458.5" y="127.5" type="line"/>
      <point x="1107.0" y="1037.0" type="line"/>
      <point x="1154.0" y="1097.5" type="line"/>
      <point x="1344.0" y="1342.5" type="line"/>
      <point x="1138.5" y="1342.5" type="line"/>
      <point x="1027.0" y="1196.5" type="line"/>
      <point x="1005.0" y="1161.0" type="line"/>
      <point x="350.5" y="244.5" type="line"/>
      <point x="299.0" y="182.0" type="line"/>
    </contour>
    <contour>
      <point x="727.0" y="146.0" type="curve" smooth="yes"/>
      <point x="459.0" y="146.0"/>
      <point x="323.0" y="299.5"/>
      <point x="323.0" y="561.0" type="curve" smooth="yes"/>
      <point x="323.0" y="719.0" type="line" smooth="yes"/>
      <point x="323.0" y="983.5"/>
      <point x="461.5" y="1133.5"/>
      <point x="727.0" y="1133.5" type="curve" smooth="yes"/>
      <point x="994.0" y="1133.5"/>
      <point x="1131.0" y="981.0"/>
      <point x="1131.0" y="719.0" type="curve" smooth="yes"/>
      <point x="1131.0" y="561.0" type="line" smooth="yes"/>
      <point x="1131.0" y="297.0"/>
      <point x="991.5" y="146.0"/>
    </contour>
  </outline>
</glyph>
<glyph name="Thorn" format="2">
  <advance width="1330.0"/>
  <unicode hex="00DE"/>
  <anchor x="664.0" y="0.0" name="bottom"/>
  <anchor x="664.0" y="1278.0" name="top"/>
  <outline>
    <contour>
      <point x="310.5" y="209.5" type="line"/>
      <point x="771.5" y="209.5" type="line" smooth="yes"/>
      <point x="1097.5" y="209.5"/>
      <point x="1245.0" y="362.0"/>
      <point x="1245.0" y="613.5" type="curve" smooth="yes"/>
      <point x="1245.0" y="671.0" type="line" smooth="yes"/>
      <point x="1245.0" y="923.5"/>
      <point x="1098.0" y="1075.0"/>
      <point x="772.0" y="1075.0" type="curve" smooth="yes"/>
      <point x="307.0" y="1075.0" type="line"/>
      <point x="307.0" y="902.5" type="line"/>
      <point x="770.0" y="902.5" type="line" smooth="yes"/>
      <point x="951.5" y="902.5"/>
      <point x="1030.0" y="817.5"/>
      <point x="1030.0" y="668.5" type="curve" smooth="yes"/>
      <point x="1030.0" y="616.5" type="line" smooth="yes"/>
      <point x="1030.0" y="469.0"/>
      <point x="951.5" y="383.0"/>
      <point x="769.0" y="383.0" type="curve" smooth="yes"/>
      <point x="310.5" y="383.0" type="line"/>
    </contour>
    <contour>
      <point x="163.5" y="0.0" type="line"/>
      <point x="372.0" y="0.0" type="line"/>
      <point x="372.0" y="260.5" type="line"/>
      <point x="372.0" y="322.5" type="line"/>
      <point x="372.0" y="952.5" type="line"/>
      <point x="372.0" y="1029.0" type="line"/>
      <point x="372.0" y="1278.0" type="line"/>
      <point x="163.5" y="1278.0" type="line"/>
    </contour>
  </outline>
</glyph>
<glyph name="germandbls" format="2">
  <advance width="1310.0"/>
  <unicode hex="00DF"/>
  <anchor x="628.0" y="0.0" name="bottom"/>
  <anchor x="628.0" y="968.0" name="top"/>
  <outline>
    <contour>
      <point x="142.0" y="947.5" type="curve" smooth="yes"/>
      <point x="142.0" y="0.0" type="line"/>
      <point x="347.0" y="0.0" type="line"/>
      <point x="347.0" y="941.5" type="line" smooth="yes"/>
      <point x="347.0" y="1096.0"/>
      <point x="404.0" y="1188.0"/>
      <point x="583.5" y="1188.0" type="curve" smooth="yes"/>
      <point x="723.5" y="1188.0"/>
      <point x="795.0" y="1137.5"/>
      <point x="795.0" y="1064.5" type="curve" smooth="yes"/>
      <point x="795.0" y="941.0"/>
      <point x="549.5" y="880.5"/>
      <point x="549.0" y="688.5" type="curve" smooth="yes"/>
      <point x="549.0" y="681.5" type="line" smooth="yes"/>
      <point x="549.0" y="541.5"/>
      <point x="631.5" y="483.5"/>
      <point x="827.5" y="431.0" type="curve" smooth="yes"/>
      <point x="974.0" y="391.0"/>
      <point x="1026.5" y="364.5"/>
      <point x="1026.5" y="282.5" type="curve" smooth="yes"/>
      <point x="1026.5" y="274.5" type="line" smooth="yes"/>
      <point x="1026.5" y="191.5"/>
      <point x="956.0" y="148.0"/>
      <point x="815.0" y="148.0" type="curve" smooth="yes"/>
      <point x="714.5" y="148.0"/>
      <point x="623.0" y="172.0"/>
      <point x="534.0" y="206.5" type="curve"/>
      <point x="554.0" y="24.5" type="line"/>
      <point x="628.5" y="-0.5"/>
      <point x="722.0" y="-20.5"/>
      <point x="836.5" y="-20.5" type="curve" smooth="yes"/>
      <point x="1078.5" y="-20.5"/>
      <point x="1229.5" y="76.0"/>
      <point x="1229.5" y="274.0" type="curve" smooth="yes"/>
      <point x="1229.5" y="285.0" type="line" smooth="yes"/>
      <point x="1229.5" y="460.0"/>
      <point x="1132.5" y="518.5"/>
      <point x="935.0" y="571.0" type="curve" smooth="yes"/>
      <point x="799.5" y="607.5"/>
      <point x="754.0" y="631.5"/>
      <point x="754.0" y="696.5" type="curve" smooth="yes"/>
      <point x="754.0" y="699.5" type="line" smooth="yes"/>
      <point x="754.0" y="812.5"/>
      <point x="1000.5" y="868.0"/>
      <point x="1000.5" y="1066.5" type="curve"/>
      <point x="1000.5" y="1256.0"/>
      <point x="827.5" y="1351.0"/>
      <point x="584.0" y="1351.0" type="curve" smooth="yes"/>
      <point x="261.0" y="1351.0"/>
      <point x="142.0" y="1207.5"/>
    </contour>
  </outline>
</glyph>
<glyph name="ae" format="2">
  <advance width="1916.5"/>
  <unicode hex="00E6"/>
  <anchor x="957.0" y="0.0" name="bottom"/>
  <anchor x="957.0" y="968.0" name="top"/>
  <outline>
    <contour>
      <point x="1373.0" y="-27.5" type="curve" smooth="yes"/>
      <point x="1545.0" y="-27.5"/>
      <point x="1684.0" y="11.5"/>
      <point x="1790.5" y="73.5" type="curve"/>
      <point x="1811.5" y="248.0" type="line"/>
      <point x="1691.5" y="183.5"/>
      <point x="1558.5" y="144.0"/>
      <point x="1407.5" y="144.0" type="curve" smooth="yes"/>
      <point x="1135.5" y="144.0"/>
      <point x="1040.5" y="258.0"/>
      <point x="1040.5" y="415.5" type="curve" smooth="yes"/>
      <point x="1040.5" y="477.0" type="line"/>
      <point x="1040.5" y="496.5" type="line"/>
      <point x="1040.5" y="554.5" type="line" smooth="yes"/>
      <point x="1040.5" y="723.0"/>
      <point x="1138.5" y="832.0"/>
      <point x="1333.5" y="832.0" type="curve" smooth="yes"/>
      <point x="1531.5" y="832.0"/>
      <point x="1631.5" y="732.5"/>
      <point x="1631.5" y="560.0" type="curve" smooth="yes"/>
      <point x="1631.5" y="513.5"/>
      <point x="1630.0" y="460.0"/>
      <point x="1626.5" y="407.5" type="curve"/>
      <point x="1818.5" y="407.5" type="line"/>
      <point x="1825.0" y="444.0"/>
      <point x="1829.5" y="488.0"/>
      <point x="1829.5" y="530.0" type="curve" smooth="yes"/>
      <point x="1829.5" y="551.5" type="line" smooth="yes"/>
      <point x="1829.5" y="821.5"/>
      <point x="1666.0" y="997.0"/>
      <point x="1354.5" y="997.0" type="curve" smooth="yes"/>
      <point x="1130.5" y="997.0"/>
      <point x="990.0" y="905.0"/>
      <point x="939.5" y="758.5" type="curve"/>
      <point x="931.5" y="758.5" type="line"/>
      <point x="892.0" y="900.5"/>
      <point x="781.5" y="995.0"/>
      <point x="555.0" y="995.0" type="curve" smooth="yes"/>
      <point x="371.0" y="995.0"/>
      <point x="234.5" y="939.0"/>
      <point x="147.5" y="889.0" type="curve"/>
      <point x="126.5" y="717.0" type="line"/>
      <point x="236.0" y="772.0"/>
      <point x="374.5" y="824.5"/>
      <point x="543.5" y="824.5" type="curve" smooth="yes"/>
      <point x="740.0" y="824.5"/>
      <point x="835.0" y="748.0"/>
      <point x="835.0" y="596.0" type="curve"/>
      <point x="835.5" y="510.0" type="line"/>
      <point x="834.5" y="444.5"/>
      <point x="837.0" y="368.0"/>
      <point x="847.5" y="305.0" type="curve"/>
      <point x="864.5" y="273.5" type="line"/>
      <point x="917.0" y="88.0"/>
      <point x="1081.5" y="-27.5"/>
    </contour>
    <contour>
      <point x="433.0" y="-25.5" type="curve" smooth="yes"/>
      <point x="703.0" y="-25.5"/>
      <point x="817.5" y="81.5"/>
      <point x="883.0" y="205.0" type="curve"/>
      <point x="923.0" y="205.0" type="line"/>
      <point x="853.0" y="345.5" type="line"/>
      <point x="808.5" y="235.5"/>
      <point x="690.0" y="145.0"/>
      <point x="489.0" y="145.0" type="curve" smooth="yes"/>
      <point x="354.0" y="145.0"/>
      <point x="285.0" y="193.5"/>
      <point x="285.0" y="280.0" type="curve" smooth="yes"/>
      <point x="285.0" y="290.5" type="line" smooth="yes"/>
      <point x="285.0" y="381.5"/>
      <point x="345.5" y="418.5"/>
      <point x="519.5" y="436.5" type="curve" smooth="yes"/>
      <point x="864.0" y="472.5" type="line"/>
      <point x="856.5" y="617.0" type="line"/>
      <point x="500.0" y="580.5" type="line" smooth="yes"/>
      <point x="213.5" y="551.0"/>
      <point x="78.5" y="470.0"/>
      <point x="78.5" y="275.0" type="curve" smooth="yes"/>
      <point x="78.5" y="255.5" type="line" smooth="yes"/>
      <point x="78.5" y="77.0"/>
      <point x="205.0" y="-25.5"/>
    </contour>
    <contour>
      <point x="938.0" y="407.5" type="line"/>
      <point x="1778.0" y="407.5" type="line"/>
      <point x="1778.0" y="562.5" type="line"/>
      <point x="938.0" y="562.5" type="line"/>
    </contour>
  </outline>
</glyph>
<glyph name="eth" format="2">
  <advance width="1229.5"/>
  <unicode hex="00F0"/>
  <outline>
    <contour>
      <point x="615.0" y="-27.5" type="curve" smooth="yes"/>
      <point x="952.5" y="-27.5"/>
      <point x="1136.0" y="139.5"/>
      <point x="1136.0" y="435.5" type="curve"/>
      <point x="1136.0" y="499.5" type="line"/>
      <point x="1136.0" y="869.0"/>
      <point x="893.0" y="1080.0"/>
      <point x="554.0" y="1321.5" type="curve"/>
      <point x="279.0" y="1321.5" type="line"/>
      <point x="279.0" y="1320.0" type="line"/>
      <point x="648.0" y="1071.0"/>
      <point x="891.0" y="875.5"/>
      <point x="921.0" y="657.0" type="curve"/>
      <point x="923.5" y="598.5"/>
      <point x="926.0" y="566.5"/>
      <point x="928.5" y="493.5" type="curve"/>
      <point x="928.5" y="465.0"/>
      <point x="928.5" y="447.0"/>
      <point x="928.5" y="423.5" type="curve" smooth="yes"/>
      <point x="928.5" y="238.0"/>
      <point x="814.5" y="138.5"/>
      <point x="615.0" y="138.5" type="curve" smooth="yes"/>
      <point x="415.0" y="138.5"/>
      <point x="301.5" y="237.5"/>
      <point x="301.5" y="423.5" type="curve" smooth="yes"/>
      <point x="301.5" y="473.0" type="line" smooth="yes"/>
      <point x="301.5" y="658.0"/>
      <point x="413.0" y="753.0"/>
      <point x="612.0" y="753.0" type="curve" smooth="yes"/>
      <point x="802.5" y="753.0"/>
      <point x="923.0" y="661.0"/>
      <point x="928.5" y="470.5" type="curve"/>
      <point x="931.5" y="777.5" type="line"/>
      <point x="875.5" y="758.5" type="line"/>
      <point x="814.0" y="857.5"/>
      <point x="717.5" y="916.5"/>
      <point x="543.5" y="916.5" type="curve" smooth="yes"/>
      <point x="268.0" y="916.5"/>
      <point x="93.5" y="754.0"/>
      <point x="93.5" y="471.5" type="curve" smooth="yes"/>
      <point x="93.5" y="430.0" type="line" smooth="yes"/>
      <point x="93.5" y="133.0"/>
      <point x="277.5" y="-27.5"/>
    </contour>
    <contour>
      <point x="234.0" y="980.0" type="line"/>
      <point x="1064.5" y="1157.0" type="line"/>
      <point x="1064.5" y="1287.5" type="line"/>
      <point x="234.0" y="1111.0" type="line"/>
    </contour>
  </outline>
</glyph>
<glyph name="divide" format="2">
  <advance width="1170.5"/>
  <unicode hex="00F7"/>
  <outline>
    <contour>
      <point x="120.0" y="530.5" type="line"/>
      <point x="1050.5" y="530.5" type="line"/>
      <point x="1050.5" y="696.5" type="line"/>
      <point x="120.0" y="696.5" type="line"/>
    </contour>
    <contour>
      <point x="588.5" y="113.0" type="curve" smooth="yes"/>
      <point x="670.5" y="113.0"/>
      <point x="709.5" y="157.0"/>
      <point x="709.5" y="229.5" type="curve" smooth="yes"/>
      <point x="709.5" y="236.0" type="line" smooth="yes"/>
      <point x="709.5" y="308.0"/>
      <point x="670.5" y="351.5"/>
      <point x="588.5" y="351.5" type="curve" smooth="yes"/>
      <point x="507.0" y="351.5"/>
      <point x="468.0" y="308.0"/>
      <point x="468.0" y="236.0" type="curve" smooth="yes"/>
      <point x="468.0" y="229.5" type="line" smooth="yes"/>
      <point x="468.0" y="157.0"/>
      <point x="507.0" y="113.0"/>
    </contour>
    <contour>
      <point x="588.5" y="880.5" type="curve" smooth="yes"/>
      <point x="670.5" y="880.5"/>
      <point x="709.5" y="924.5"/>
      <point x="709.5" y="997.0" type="curve" smooth="yes"/>
      <point x="709.5" y="1003.5" type="line" smooth="yes"/>
      <point x="709.5" y="1075.5"/>
      <point x="670.5" y="1119.0"/>
      <point x="588.5" y="1119.0" type="curve" smooth="yes"/>
      <point x="507.0" y="1119.0"/>
      <point x="468.0" y="1075.5"/>
      <point x="468.0" y="1003.5" type="curve" smooth="yes"/>
      <point x="468.0" y="997.0" type="line" smooth="yes"/>
      <point x="468.0" y="924.5"/>
      <point x="507.0" y="880.5"/>
    </contour>
  </outline>
</glyph>
<glyph name="oslash" format="2">
  <advance width="1230.0"/>
  <unicode hex="00F8"/>
  <anchor x="615.0" y="0.0" name="bottom"/>
  <anchor x="615.0" y="484.5" name="center"/>
  <anchor x="1109.0" y="10.0" name="ogonek"/>
  <anchor x="615.0" y="968.0" name="top"/>
  <anchor x="1212.5" y="968.0" name="topright"/>
  <outline>
    <contour>
      <point x="615.0" y="-27.0" type="curve" smooth="yes"/>
      <point x="955.0" y="-27.0"/>
      <point x="1136.5" y="139.0"/>
      <point x="1136.5" y="444.5" type="curve"/>
      <point x="1136.5" y="525.0" type="line"/>
      <point x="1136.5" y="827.0"/>
      <point x="945.5" y="996.0"/>
      <point x="615.0" y="996.0" type="curve" smooth="yes"/>
      <point x="276.0" y="996.0"/>
      <point x="93.5" y="830.0"/>
      <point x="93.5" y="526.5" type="curve"/>
      <point x="93.5" y="446.0" type="line"/>
      <point x="93.5" y="143.5"/>
      <point x="284.5" y="-27.0"/>
    </contour>
    <contour>
      <point x="103.0" y="-64.5" type="line"/>
      <point x="293.0" y="-64.5" type="line"/>
      <point x="395.0" y="67.0" type="line"/>
      <point x="427.5" y="112.0" type="line"/>
      <point x="924.5" y="781.0" type="line"/>
      <point x="969.5" y="836.0" type="line"/>
      <point x="1127.0" y="1032.5" type="line"/>
      <point x="938.0" y="1032.5" type="line"/>
      <point x="849.0" y="917.0" type="line"/>
      <point x="817.0" y="874.0" type="line"/>
      <point x="312.0" y="197.0" type="line"/>
      <point x="268.0" y="144.5" type="line"/>
    </contour>
    <contour>
      <point x="615.0" y="132.5" type="curve" smooth="yes"/>
      <point x="411.0" y="132.5"/>
      <point x="297.5" y="241.5"/>
      <point x="297.5" y="438.5" type="curve" smooth="yes"/>
      <point x="297.5" y="532.5" type="line" smooth="yes"/>
      <point x="297.5" y="730.0"/>
      <point x="410.0" y="837.0"/>
      <point x="615.0" y="837.0" type="curve" smooth="yes"/>
      <point x="820.0" y="837.0"/>
      <point x="933.0" y="728.5"/>
      <point x="933.0" y="532.5" type="curve" smooth="yes"/>
      <point x="933.0" y="438.5" type="line" smooth="yes"/>
      <point x="933.0" y="240.0"/>
      <point x="820.0" y="132.5"/>
    </contour>
  </outline>
</glyph>
<glyph name="thorn" format="2">
  <advance width="1275.0"/>
  <unicode hex="00FE"/>
  <anchor x="641.5" y="0.0" name="bottom"/>
  <anchor x="641.5" y="968.0" name="top"/>
  <outline>
    <contour>
      <point x="734.5" y="-25.5" type="curve" smooth="yes"/>
      <point x="1017.5" y="-25.5"/>
      <point x="1180.0" y="137.0"/>
      <point x="1180.0" y="442.0" type="curve" smooth="yes"/>
      <point x="1180.0" y="529.5" type="line" smooth="yes"/>
      <point x="1180.0" y="832.0"/>
      <point x="1021.0" y="993.5"/>
      <point x="739.5" y="993.5" type="curve" smooth="yes"/>
      <point x="503.5" y="993.5"/>
      <point x="392.0" y="880.0"/>
      <point x="353.5" y="745.5" type="curve"/>
      <point x="289.0" y="745.5" type="line"/>
      <point x="339.0" y="593.5" type="line"/>
      <point x="373.0" y="726.5"/>
      <point x="496.5" y="827.5"/>
      <point x="671.5" y="827.5" type="curve" smooth="yes"/>
      <point x="863.0" y="827.5"/>
      <point x="971.5" y="727.5"/>
      <point x="971.5" y="539.5" type="curve" smooth="yes"/>
      <point x="971.5" y="436.5" type="line" smooth="yes"/>
      <point x="971.5" y="246.0"/>
      <point x="862.0" y="146.0"/>
      <point x="672.5" y="146.0" type="curve" smooth="yes"/>
      <point x="491.0" y="146.0"/>
      <point x="352.5" y="235.0"/>
      <point x="343.5" y="428.0" type="curve"/>
      <point x="284.5" y="222.5" type="line"/>
      <point x="353.5" y="222.5" type="line"/>
      <point x="395.5" y="70.0"/>
      <point x="522.5" y="-25.5"/>
    </contour>
    <contour>
      <point x="142.0" y="-341.0" type="line"/>
      <point x="347.5" y="-341.0" type="line"/>
      <point x="347.5" y="-16.0" type="line"/>
      <point x="342.5" y="264.0" type="line"/>
      <point x="343.5" y="315.0" type="line"/>
      <point x="343.5" y="638.5" type="line"/>
      <point x="342.5" y="714.0" type="line"/>
      <point x="347.5" y="968.0" type="line"/>
      <point x="347.5" y="1321.5" type="line"/>
      <point x="142.0" y="1321.5" type="line"/>
    </contour>
  </outline>
</glyph>
<glyph name="idotless" format="2">
  <advance width="495.0"/>
  <unicode hex="0131"/>
  <anchor x="248.0" y="0.0" name="bottom"/>
  <anchor x="392.0" y="2.5" name="ogonek"/>
  <anchor x="248.0" y="968.0" name="top"/>
  <outline>
    <contour>
      <point x="144.5" y="0.0" type="line"/>
      <point x="351.0" y="0.0" type="line"/>
      <point x="351.0" y="968.0" type="line"/>
      <point x="144.5" y="968.0" type="line"/>
    </contour>
  </outline>
</glyph>
<glyph name="OE" format="2">
  <advance width="2104.5"/>
  <unicode hex="0152"/>
  <anchor x="1046.0" y="0.0" name="bottom"/>
  <anchor x="1046.0" y="1278.0" name="top"/>
  <outline>
    <contour>
      <point x="727.0" y="-29.5" type="curve" smooth="yes"/>
      <point x="1128.0" y="-29.5"/>
      <point x="1347.0" y="190.0"/>
      <point x="1347.0" y="565.0" type="curve" smooth="yes"/>
      <point x="1347.0" y="714.0" type="line" smooth="yes"/>
      <point x="1347.0" y="1088.5"/>
      <point x="1128.0" y="1307.5"/>
      <point x="727.0" y="1307.5" type="curve" smooth="yes"/>
      <point x="323.0" y="1307.5"/>
      <point x="105.0" y="1093.5"/>
      <point x="105.0" y="714.0" type="curve" smooth="yes"/>
      <point x="105.0" y="565.0" type="line" smooth="yes"/>
      <point x="105.0" y="185.0"/>
      <point x="323.0" y="-29.5"/>
    </contour>
    <contour>
      <point x="727.0" y="145.5" type="curve" smooth="yes"/>
      <point x="459.0" y="145.5"/>
      <point x="323.0" y="299.0"/>
      <point x="323.0" y="560.5" type="curve" smooth="yes"/>
      <point x="323.0" y="718.5" type="line" smooth="yes"/>
      <point x="323.0" y="980.0"/>
      <point x="459.0" y="1132.5"/>
      <point x="727.0" y="1132.5" type="curve" smooth="yes"/>
      <point x="994.0" y="1132.5"/>
      <point x="1131.0" y="980.0"/>
      <point x="1131.0" y="718.5" type="curve" smooth="yes"/>
      <point x="1131.0" y="560.5" type="line" smooth="yes"/>
      <point x="1131.0" y="299.0"/>
      <point x="994.0" y="145.5"/>
    </contour>
    <contour>
      <point x="926.5" y="0.0" type="line"/>
      <point x="1994.5" y="0.0" type="line"/>
      <point x="1994.5" y="174.5" type="line"/>
      <point x="926.5" y="174.5" type="line"/>
    </contour>
    <contour>
      <point x="1201.5" y="564.0" type="line"/>
      <point x="1965.0" y="564.0" type="line"/>
      <point x="1965.0" y="736.0" type="line"/>
      <point x="1201.5" y="736.0" type="line"/>
    </contour>
    <contour>
      <point x="933.0" y="1104.0" type="line"/>
      <point x="1984.0" y="1104.0" type="line"/>
      <point x="1984.0" y="1278.0" type="line"/>
      <point x="933.0" y="1278.0" type="line"/>
    </contour>
  </outline>
</glyph>
<glyph name="oe" format="2">
  <advance width="2006.5"/>
  <unicode hex="0153"/>
  <anchor x="1003.5" y="0.0" name="bottom"/>
  <anchor x="1003.5" y="968.0" name="top"/>
  <outline>
    <contour>
      <point x="586.0" y="-27.5" type="curve" smooth="yes"/>
      <point x="817.5" y="-27.5"/>
      <point x="956.5" y="59.5"/>
      <point x="1018.0" y="218.0" type="curve"/>
      <point x="1026.0" y="218.0" type="line"/>
      <point x="1086.0" y="65.0"/>
      <point x="1244.0" y="-27.5"/>
      <point x="1481.0" y="-27.5" type="curve" smooth="yes"/>
      <point x="1639.5" y="-27.5"/>
      <point x="1776.0" y="11.5"/>
      <point x="1880.5" y="73.5" type="curve"/>
      <point x="1901.5" y="248.0" type="line"/>
      <point x="1781.5" y="183.5"/>
      <point x="1648.5" y="144.0"/>
      <point x="1499.0" y="144.0" type="curve" smooth="yes"/>
      <point x="1252.0" y="144.0"/>
      <point x="1130.5" y="252.0"/>
      <point x="1130.5" y="420.5" type="curve" smooth="yes"/>
      <point x="1130.5" y="476.0" type="line"/>
      <point x="1130.5" y="494.0" type="line"/>
      <point x="1130.5" y="554.5" type="line" smooth="yes"/>
      <point x="1130.5" y="724.0"/>
      <point x="1227.0" y="832.0"/>
      <point x="1422.5" y="832.0" type="curve" smooth="yes"/>
      <point x="1621.0" y="832.0"/>
      <point x="1721.5" y="732.5"/>
      <point x="1721.5" y="560.0" type="curve" smooth="yes"/>
      <point x="1721.5" y="514.5"/>
      <point x="1720.0" y="460.0"/>
      <point x="1716.5" y="407.5" type="curve"/>
      <point x="1908.5" y="407.5" type="line"/>
      <point x="1915.0" y="444.0"/>
      <point x="1919.5" y="488.0"/>
      <point x="1919.5" y="530.0" type="curve" smooth="yes"/>
      <point x="1919.5" y="551.5" type="line" smooth="yes"/>
      <point x="1919.5" y="821.5"/>
      <point x="1755.5" y="997.0"/>
      <point x="1442.0" y="997.0" type="curve" smooth="yes"/>
      <point x="1223.5" y="997.0"/>
      <point x="1085.5" y="907.5"/>
      <point x="1026.0" y="753.5" type="curve"/>
      <point x="1018.0" y="753.5" type="line"/>
      <point x="956.5" y="907.5"/>
      <point x="818.0" y="997.0"/>
      <point x="584.5" y="997.0" type="curve" smooth="yes"/>
      <point x="274.0" y="997.0"/>
      <point x="93.5" y="830.0"/>
      <point x="93.5" y="526.5" type="curve" smooth="yes"/>
      <point x="93.5" y="444.5" type="line" smooth="yes"/>
      <point x="93.5" y="140.5"/>
      <point x="274.0" y="-27.5"/>
    </contour>
    <contour>
      <point x="1021.0" y="407.5" type="line"/>
      <point x="1868.0" y="407.5" type="line"/>
      <point x="1868.0" y="562.5" type="line"/>
      <point x="1021.0" y="562.5" type="line"/>
    </contour>
    <contour>
      <point x="614.0" y="138.5" type="curve" smooth="yes"/>
      <point x="412.0" y="138.5"/>
      <point x="301.5" y="245.0"/>
      <point x="301.5" y="438.5" type="curve" smooth="yes"/>
      <point x="301.5" y="532.5" type="line" smooth="yes"/>
      <point x="301.5" y="725.0"/>
      <point x="412.0" y="831.0"/>
      <point x="614.0" y="831.0" type="curve" smooth="yes"/>
      <point x="818.0" y="831.0"/>
      <point x="929.0" y="725.0"/>
      <point x="929.0" y="532.5" type="curve" smooth="yes"/>
      <point x="929.0" y="438.5" type="line" smooth="yes"/>
      <point x="929.0" y="245.0"/>
      <point x="817.5" y="138.5"/>
    </contour>
  </outline>
</glyph>
<glyph name="gravecomb" format="2">
  <unicode hex="0300"/>
  <anchor x="462.5" y="968.0" name="_top"/>
  <anchor x="331.0" y="1340.5" name="top"/>
  <outline>
    <contour>
      <point x="330.5" y="1377.5" type="line"/>
      <point x="96.0" y="1377.5" type="line"/>
      <point x="96.0" y="1373.0" type="line"/>
      <point x="367.0" y="1093.5" type="line"/>
      <point x="555.0" y="1093.5" type="line"/>
      <point x="555.0" y="1097.5" type="line"/>
    </contour>
  </outline>
</glyph>
<glyph name="acutecomb" format="2">
  <unicode hex="0301"/>
  <anchor x="185.5" y="968.0" name="_top"/>
  <anchor x="187.0" y="1340.5" name="top"/>
  <outline>
    <contour>
      <point x="317.5" y="1377.5" type="line"/>
      <point x="93.0" y="1097.5" type="line"/>
      <point x="93.0" y="1093.5" type="line"/>
      <point x="281.0" y="1093.5" type="line"/>
      <point x="552.0" y="1373.0" type="line"/>
      <point x="552.0" y="1377.5" type="line"/>
    </contour>
  </outline>
</glyph>
<glyph name="circumflexcomb" format="2">
  <unicode hex="0302"/>
  <anchor x="432.0" y="968.0" name="_top"/>
  <anchor x="432.0" y="1336.5" name="top"/>
  <outline>
    <contour>
      <point x="323.0" y="1377.5" type="line"/>
      <point x="100.0" y="1097.5" type="line"/>
      <point x="100.0" y="1093.5" type="line"/>
      <point x="268.5" y="1093.5" type="line"/>
      <point x="428.0" y="1265.5" type="line"/>
      <point x="436.0" y="1265.5" type="line"/>
      <point x="595.0" y="1093.5" type="line"/>
      <point x="763.5" y="1093.5" type="line"/>
      <point x="763.5" y="1097.5" type="line"/>
      <point x="540.5" y="1377.5" type="line"/>
    </contour>
  </outline>
</glyph>
<glyph name="tildecomb" format="2">
  <unicode hex="0303"/>
  <anchor x="422.0" y="968.0" name="_top"/>
  <anchor x="422.0" y="1331.5" name="top"/>
  <outline>
    <contour>
      <point x="568.5" y="1114.0" type="curve" smooth="yes"/>
      <point x="694.5" y="1114.0"/>
      <point x="742.0" y="1189.0"/>
      <point x="742.0" y="1314.5" type="curve" smooth="yes"/>
      <point x="742.0" y="1349.5" type="line"/>
      <point x="611.0" y="1349.5" type="line"/>
      <point x="611.0" y="1336.0" type="line" smooth="yes"/>
      <point x="611.0" y="1285.5"/>
      <point x="595.5" y="1259.5"/>
      <point x="553.5" y="1259.5" type="curve" smooth="yes"/>
      <point x="477.0" y="1259.5"/>
      <point x="385.5" y="1338.0"/>
      <point x="274.0" y="1338.0" type="curve" smooth="yes"/>
      <point x="147.0" y="1338.0"/>
      <point x="100.0" y="1261.0"/>
      <point x="100.0" y="1137.0" type="curve" smooth="yes"/>
      <point x="100.0" y="1102.5" type="line"/>
      <point x="230.5" y="1102.5" type="line"/>
      <point x="230.5" y="1116.0" type="line" smooth="yes"/>
      <point x="230.5" y="1166.0"/>
      <point x="247.0" y="1192.0"/>
      <point x="288.5" y="1192.0" type="curve" smooth="yes"/>
      <point x="364.5" y="1192.0"/>
      <point x="459.5" y="1114.0"/>
    </contour>
  </outline>
</glyph>
<glyph name="macroncomb" format="2">
  <unicode hex="0304"/>
  <anchor x="429.5" y="968.0" name="_top"/>
  <anchor x="429.5" y="1299.5" name="top"/>
  <outline>
    <contour>
      <point x="111.0" y="1149.5" type="line"/>
      <point x="748.0" y="1149.5" type="line"/>
      <point x="748.0" y="1289.0" type="line"/>
      <point x="111.0" y="1289.0" type="line"/>
    </contour>
  </outline>
</glyph>
<glyph name="dotaccentcomb" format="2">
  <unicode hex="0307"/>
  <anchor x="220.0" y="968.0" name="_top"/>
  <anchor x="220.0" y="1330.5" name="top"/>
  <outline>
    <contour>
      <point x="219.0" y="1122.0" type="curve" smooth="yes"/>
      <point x="300.0" y="1122.0"/>
      <point x="339.0" y="1162.0"/>
      <point x="339.0" y="1230.0" type="curve" smooth="yes"/>
      <point x="339.0" y="1235.5" type="line" smooth="yes"/>
      <point x="339.0" y="1302.5"/>
      <point x="300.0" y="1344.5"/>
      <point x="219.0" y="1344.5" type="curve" smooth="yes"/>
      <point x="139.5" y="1344.5"/>
      <point x="100.0" y="1302.5"/>
      <point x="100.0" y="1235.5" type="curve" smooth="yes"/>
      <point x="100.0" y="1230.0" type="line" smooth="yes"/>
      <point x="100.0" y="1162.0"/>
      <point x="139.5" y="1122.0"/>
    </contour>
  </outline>
</glyph>
<glyph name="dieresiscomb" format="2">
  <unicode hex="0308"/>
  <anchor x="385.0" y="968.0" name="_top"/>
  <anchor x="385.0" y="1329.0" name="top"/>
  <outline>
    <contour>
      <point x="210.0" y="1123.5" type="curve" smooth="yes"/>
      <point x="287.0" y="1123.5"/>
      <point x="323.5" y="1162.5"/>
      <point x="323.5" y="1230.0" type="curve" smooth="yes"/>
      <point x="323.5" y="1235.0" type="line" smooth="yes"/>
      <point x="323.5" y="1301.0"/>
      <point x="287.0" y="1340.5"/>
      <point x="210.0" y="1340.5" type="curve" smooth="yes"/>
      <point x="134.5" y="1340.5"/>
      <point x="98.0" y="1301.0"/>
      <point x="98.0" y="1235.0" type="curve" smooth="yes"/>
      <point x="98.0" y="1230.0" type="line" smooth="yes"/>
      <point x="98.0" y="1163.0"/>
      <point x="134.5" y="1123.5"/>
    </contour>
    <contour>
      <point x="558.5" y="1123.5" type="curve" smooth="yes"/>
      <point x="634.5" y="1123.5"/>
      <point x="671.5" y="1162.5"/>
      <point x="671.5" y="1230.0" type="curve" smooth="yes"/>
      <point x="671.5" y="1235.0" type="line" smooth="yes"/>
      <point x="671.5" y="1301.0"/>
      <point x="634.5" y="1340.5"/>
      <point x="558.5" y="1340.5" type="curve" smooth="yes"/>
      <point x="482.5" y="1340.5"/>
      <point x="446.5" y="1301.0"/>
      <point x="446.5" y="1235.0" type="curve" smooth="yes"/>
      <point x="446.5" y="1230.0" type="line" smooth="yes"/>
      <point x="446.5" y="1163.0"/>
      <point x="482.5" y="1123.5"/>
    </contour>
  </outline>
</glyph>
<glyph name="ringcomb" format="2">
  <unicode hex="030A"/>
  <anchor x="312.5" y="968.0" name="_top"/>
  <anchor x="312.5" y="1403.5" name="top"/>
  <outline>
    <contour>
      <point x="100.0" y="1252.0" type="line" smooth="yes"/>
      <point x="100.0" y="1146.5"/>
      <point x="169.5" y="1076.5"/>
      <point x="312.5" y="1076.5" type="curve" smooth="yes"/>
      <point x="454.0" y="1076.5"/>
      <point x="524.0" y="1146.5"/>
      <point x="524.0" y="1252.0" type="curve" smooth="yes"/>
      <point x="524.0" y="1256.0" type="line" smooth="yes"/>
      <point x="524.0" y="1363.0"/>
      <point x="454.0" y="1432.0"/>
      <point x="312.5" y="1432.0" type="curve" smooth="yes"/>
      <point x="169.5" y="1432.0"/>
      <point x="100.0" y="1363.0"/>
      <point x="100.0" y="1256.0" type="curve" smooth="yes"/>
    </contour>
    <contour>
      <point x="221.5" y="1253.0" type="curve" smooth="yes"/>
      <point x="221.5" y="1256.0" type="line" smooth="yes"/>
      <point x="221.5" y="1305.0"/>
      <point x="253.0" y="1332.0"/>
      <point x="312.5" y="1332.0" type="curve" smooth="yes"/>
      <point x="371.5" y="1332.0"/>
      <point x="403.0" y="1305.0"/>
      <point x="403.0" y="1256.0" type="curve" smooth="yes"/>
      <point x="403.0" y="1253.0" type="line" smooth="yes"/>
      <point x="403.0" y="1204.0"/>
      <point x="371.5" y="1176.5"/>
      <point x="312.5" y="1176.5" type="curve" smooth="yes"/>
      <point x="253.0" y="1176.5"/>
      <point x="221.5" y="1204.0"/>
    </contour>
  </outline>
</glyph>
<glyph name="cedillacomb" format="2">
  <unicode hex="0327"/>
  <anchor x="322.0" y="0.0" name="_bottom"/>
  <anchor x="373.0" y="-414.0" name="bottom"/>
  <outline>
    <contour>
      <point x="400.5" y="20.5" type="line"/>
      <point x="254.0" y="20.5" type="line"/>
      <point x="226.0" y="-171.5" type="line"/>
      <point x="230.5" y="-171.5"/>
      <point x="237.0" y="-171.5"/>
      <point x="256.5" y="-172.5" type="curve" smooth="yes"/>
      <point x="385.5" y="-178.5"/>
      <point x="430.5" y="-192.5"/>
      <point x="430.5" y="-233.0" type="curve" smooth="yes"/>
      <point x="430.5" y="-235.0" type="line" smooth="yes"/>
      <point x="430.5" y="-272.0"/>
      <point x="388.0" y="-287.5"/>
      <point x="316.0" y="-287.5" type="curve" smooth="yes"/>
      <point x="252.0" y="-287.5"/>
      <point x="194.0" y="-277.5"/>
      <point x="145.0" y="-262.5" type="curve"/>
      <point x="170.5" y="-391.0" type="line"/>
      <point x="214.0" y="-402.5"/>
      <point x="278.0" y="-413.0"/>
      <point x="341.5" y="-413.0" type="curve" smooth="yes"/>
      <point x="504.0" y="-413.0"/>
      <point x="589.5" y="-361.0"/>
      <point x="589.5" y="-248.0" type="curve" smooth="yes"/>
      <point x="589.5" y="-242.0" type="line" smooth="yes"/>
      <point x="589.5" y="-143.0"/>
      <point x="522.0" y="-91.5"/>
      <point x="371.5" y="-85.0" type="curve" smooth="yes"/>
      <point x="345.0" y="-84.0"/>
      <point x="319.0" y="-84.5"/>
      <point x="292.5" y="-85.0" type="curve"/>
      <point x="373.0" y="-145.0" type="line"/>
    </contour>
  </outline>
</glyph>
<glyph name="Anusvara.tm" format="2">
  <unicode hex="0B82"/>
  <note>
Anusvara.tm
</note>
  <outline>
    <contour>
      <point x="328.5" y="1800.0" type="curve" smooth="yes"/>
      <point x="101.0" y="1800.0"/>
      <point x="1.0" y="1697.5"/>
      <point x="1.0" y="1528.0" type="curve" smooth="yes"/>
      <point x="1.0" y="1501.5" type="line"/>
      <point x="1.0" y="1331.5"/>
      <point x="101.0" y="1231.0"/>
      <point x="328.5" y="1231.0" type="curve" smooth="yes"/>
      <point x="557.0" y="1231.0"/>
      <point x="656.0" y="1331.5"/>
      <point x="656.0" y="1501.5" type="curve" smooth="yes"/>
      <point x="656.0" y="1528.0" type="line"/>
      <point x="656.0" y="1697.5"/>
      <point x="557.0" y="1800.0"/>
    </contour>
    <contour>
      <point x="328.5" y="1665.0" type="curve" smooth="yes"/>
      <point x="439.0" y="1665.0"/>
      <point x="486.5" y="1615.0"/>
      <point x="486.5" y="1529.0" type="curve" smooth="yes"/>
      <point x="486.5" y="1501.0" type="line"/>
      <point x="486.5" y="1415.0"/>
      <point x="440.5" y="1365.0"/>
      <point x="328.5" y="1365.0" type="curve" smooth="yes"/>
      <point x="217.5" y="1365.0"/>
      <point x="170.5" y="1415.0"/>
      <point x="170.5" y="1501.0" type="curve" smooth="yes"/>
      <point x="170.5" y="1529.0" type="line"/>
      <point x="170.5" y="1615.0"/>
      <point x="219.0" y="1665.0"/>
    </contour>
  </outline>
</glyph>
<glyph name="Aaytam.tm" format="2">
  <advance width="1799.5"/>
  <unicode hex="0B83"/>
  <note>
Aaytam.tm
</note>
  <outline>
    <contour>
      <point x="453.5" y="629.5" type="curve" smooth="yes"/>
      <point x="205.5" y="629.5"/>
      <point x="84.5" y="510.0"/>
      <point x="84.5" y="311.5" type="curve" smooth="yes"/>
      <point x="84.5" y="290.5" type="line"/>
      <point x="84.5" y="91.0"/>
      <point x="205.5" y="-29.0"/>
      <point x="453.5" y="-29.0" type="curve" smooth="yes"/>
      <point x="701.5" y="-29.0"/>
      <point x="822.5" y="90.5"/>
      <point x="822.5" y="289.0" type="curve" smooth="yes"/>
      <point x="822.5" y="312.5" type="line"/>
      <point x="822.5" y="510.0"/>
      <point x="701.5" y="629.5"/>
    </contour>
    <contour>
      <point x="453.5" y="481.5" type="curve" smooth="yes"/>
      <point x="583.0" y="481.5"/>
      <point x="640.5" y="416.5"/>
      <point x="640.5" y="309.0" type="curve" smooth="yes"/>
      <point x="640.5" y="292.5" type="line"/>
      <point x="640.5" y="185.0"/>
      <point x="583.0" y="120.5"/>
      <point x="453.5" y="120.5" type="curve" smooth="yes"/>
      <point x="323.5" y="120.5"/>
      <point x="265.0" y="185.0"/>
      <point x="265.0" y="292.5" type="curve" smooth="yes"/>
      <point x="265.0" y="309.0" type="line"/>
      <point x="265.0" y="416.5"/>
      <point x="323.5" y="481.5"/>
    </contour>
    <contour>
      <point x="1346.5" y="629.5" type="curve" smooth="yes"/>
      <point x="1098.5" y="629.5"/>
      <point x="977.5" y="510.0"/>
      <point x="977.5" y="311.5" type="curve" smooth="yes"/>
      <point x="977.5" y="290.5" type="line"/>
      <point x="977.5" y="91.0"/>
      <point x="1098.5" y="-29.0"/>
      <point x="1346.5" y="-29.0" type="curve" smooth="yes"/>
      <point x="1594.5" y="-29.0"/>
      <point x="1715.0" y="90.5"/>
      <point x="1715.0" y="289.0" type="curve" smooth="yes"/>
      <point x="1715.0" y="312.5" type="line"/>
      <point x="1715.0" y="510.0"/>
      <point x="1594.5" y="629.5"/>
    </contour>
    <contour>
      <point x="1346.5" y="481.5" type="curve" smooth="yes"/>
      <point x="1476.0" y="481.5"/>
      <point x="1534.0" y="416.5"/>
      <point x="1534.0" y="309.0" type="curve" smooth="yes"/>
      <point x="1534.0" y="292.5" type="line"/>
      <point x="1534.0" y="185.0"/>
      <point x="1476.0" y="120.5"/>
      <point x="1346.5" y="120.5" type="curve" smooth="yes"/>
      <point x="1216.5" y="120.5"/>
      <point x="1158.5" y="185.0"/>
      <point x="1158.5" y="292.5" type="curve" smooth="yes"/>
      <point x="1158.5" y="309.0" type="line"/>
      <point x="1158.5" y="416.5"/>
      <point x="1216.5" y="481.5"/>
    </contour>
    <contour>
      <point x="900.5" y="1331.5" type="curve" smooth="yes"/>
      <point x="651.5" y="1331.5"/>
      <point x="530.5" y="1212.5"/>
      <point x="530.5" y="1016.5" type="curve" smooth="yes"/>
      <point x="530.5" y="995.5" type="line"/>
      <point x="530.5" y="799.0"/>
      <point x="651.5" y="680.5"/>
      <point x="900.5" y="680.5" type="curve" smooth="yes"/>
      <point x="1149.0" y="680.5"/>
      <point x="1269.5" y="798.5"/>
      <point x="1269.5" y="994.5" type="curve" smooth="yes"/>
      <point x="1269.5" y="1017.5" type="line"/>
      <point x="1269.5" y="1213.0"/>
      <point x="1149.0" y="1331.5"/>
    </contour>
    <contour>
      <point x="900.5" y="1183.5" type="curve" smooth="yes"/>
      <point x="1029.5" y="1183.5"/>
      <point x="1089.0" y="1119.5"/>
      <point x="1089.0" y="1014.0" type="curve" smooth="yes"/>
      <point x="1089.0" y="998.0" type="line"/>
      <point x="1089.0" y="892.0"/>
      <point x="1029.5" y="828.0"/>
      <point x="900.5" y="828.0" type="curve" smooth="yes"/>
      <point x="770.5" y="828.0"/>
      <point x="712.0" y="892.0"/>
      <point x="712.0" y="998.0" type="curve" smooth="yes"/>
      <point x="712.0" y="1014.0" type="line"/>
      <point x="712.0" y="1119.5"/>
      <point x="770.5" y="1183.5"/>
    </contour>
  </outline>
</glyph>
<glyph name="VowelA.tm" format="2">
  <advance width="2445.5"/>
  <unicode hex="0B85"/>
  <note>
vowelA.tm
</note>
  <outline>
    <contour>
      <point x="1167.0" y="1184.0" type="curve" smooth="yes"/>
      <point x="761.5" y="1184.0"/>
      <point x="554.5" y="986.5"/>
      <point x="554.5" y="664.0" type="curve" smooth="yes"/>
      <point x="554.5" y="600.5" type="line" smooth="yes"/>
      <point x="554.5" y="374.5"/>
      <point x="688.0" y="233.0"/>
      <point x="953.0" y="233.0" type="curve" smooth="yes"/>
      <point x="1200.0" y="233.0"/>
      <point x="1309.5" y="358.5"/>
      <point x="1309.5" y="548.0" type="curve" smooth="yes"/>
      <point x="1309.5" y="603.0" type="line" smooth="yes"/>
      <point x="1309.5" y="789.0"/>
      <point x="1209.0" y="896.5"/>
      <point x="1011.0" y="896.5" type="curve" smooth="yes"/>
      <point x="855.0" y="896.5"/>
      <point x="759.5" y="814.0"/>
      <point x="730.0" y="709.5" type="curve"/>
      <point x="714.0" y="709.5" type="line"/>
      <point x="720.0" y="603.5" type="line"/>
      <point x="746.0" y="689.0"/>
      <point x="833.0" y="754.5"/>
      <point x="949.5" y="754.5" type="curve" smooth="yes"/>
      <point x="1074.5" y="754.5"/>
      <point x="1132.5" y="697.0"/>
      <point x="1132.5" y="587.0" type="curve" smooth="yes"/>
      <point x="1132.5" y="555.0" type="line" smooth="yes"/>
      <point x="1132.5" y="441.5"/>
      <point x="1072.5" y="374.0"/>
      <point x="945.5" y="374.0" type="curve" smooth="yes"/>
      <point x="799.0" y="374.0"/>
      <point x="731.0" y="456.0"/>
      <point x="731.0" y="594.5" type="curve"/>
      <point x="732.0" y="709.5" type="line"/>
      <point x="724.0" y="709.5" type="line"/>
      <point x="727.5" y="904.0"/>
      <point x="867.5" y="1043.0"/>
      <point x="1166.5" y="1043.0" type="curve" smooth="yes"/>
      <point x="1499.5" y="1043.0"/>
      <point x="1621.0" y="896.5"/>
      <point x="1621.0" y="633.0" type="curve" smooth="yes"/>
      <point x="1621.0" y="567.0" type="line" smooth="yes"/>
      <point x="1621.0" y="221.0"/>
      <point x="1421.0" y="56.5"/>
      <point x="965.0" y="56.5" type="curve" smooth="yes"/>
      <point x="962.5" y="56.5" type="line" smooth="yes"/>
      <point x="531.5" y="56.5"/>
      <point x="261.0" y="214.0"/>
      <point x="261.0" y="505.0" type="curve" smooth="yes"/>
      <point x="261.0" y="508.5" type="line" smooth="yes"/>
      <point x="261.0" y="516.0"/>
      <point x="261.0" y="523.5"/>
      <point x="262.0" y="532.0" type="curve"/>
      <point x="652.0" y="532.0" type="line"/>
      <point x="646.0" y="667.0" type="line"/>
      <point x="79.0" y="667.0" type="line"/>
      <point x="76.5" y="637.5"/>
      <point x="74.5" y="606.0"/>
      <point x="74.5" y="575.5" type="curve" smooth="yes"/>
      <point x="74.5" y="565.5" type="line" smooth="yes"/>
      <point x="74.5" y="121.0"/>
      <point x="413.5" y="-94.5"/>
      <point x="963.5" y="-94.5" type="curve" smooth="yes"/>
      <point x="967.5" y="-94.5" type="line" smooth="yes"/>
      <point x="1554.0" y="-94.5"/>
      <point x="1809.5" y="128.0"/>
      <point x="1809.5" y="569.0" type="curve" smooth="yes"/>
      <point x="1809.5" y="629.0" type="line" smooth="yes"/>
      <point x="1809.5" y="979.0"/>
      <point x="1621.0" y="1184.0"/>
    </contour>
    <contour>
      <point x="1172.0" y="666.0" type="line"/>
      <point x="1172.0" y="524.0" type="line"/>
      <point x="1665.0" y="523.0" type="line"/>
      <point x="1665.0" y="665.0" type="line"/>
    </contour>
    <contour>
      <point x="1690.0" y="666.5" type="line"/>
      <point x="1690.0" y="522.0" type="line"/>
      <point x="2080.5" y="522.0" type="line"/>
      <point x="2080.5" y="666.5" type="line"/>
    </contour>
    <contour>
      <point x="2066.0" y="1133.0" type="line"/>
      <point x="2066.0" y="-67.0" type="line"/>
      <point x="2262.0" y="-67.0" type="line"/>
      <point x="2262.0" y="1133.0" type="line"/>
    </contour>
  </outline>
</glyph>
